<svg preserveAspectRatio="none" width="100%" height="100%" overflow="visible" style="display: block;" viewBox="0 0 22.381 29.4596" fill="none" xmlns="http://www.w3.org/2000/svg">
<g id="made-with-blunge 2" clip-path="url(#clip0_258_1399)">
<g id="Group">
<path id="Vector" d="M21.9029 11.59C21.7851 11.5965 21.6669 11.5988 21.5483 11.5969C21.4601 11.5955 21.3279 11.6261 21.1517 11.6885C21.0878 11.7112 21.0214 11.757 20.9525 11.8259C20.9423 11.8362 20.9348 11.8488 20.931 11.8627C20.8856 12.0251 20.9134 12.1587 21.0142 12.2635C21.3416 12.6042 21.7551 12.8455 22.2547 12.9873" stroke="var(--stroke-0, #919BCA)" stroke-width="0.0693985"/>
<path id="Vector_2" d="M12.4419 25.2415C12.5902 24.8619 12.6837 24.4809 12.7226 24.0986C12.809 23.2505 12.7233 22.4274 12.3433 21.663C11.6601 20.2882 10.2787 19.6144 8.76861 19.8184C8.68926 19.829 8.57406 19.8474 8.423 19.8736C8.262 19.901 7.99239 19.9416 8.04478 20.1512C8.04819 20.1648 8.05527 20.1772 8.06526 20.1869C8.11916 20.2397 8.18277 20.2579 8.2561 20.2417C8.71899 20.1408 9.21415 20.087 9.67565 20.1512C9.87736 20.1794 9.99488 20.1972 10.0282 20.2046C10.4025 20.2872 10.7557 20.4402 11.0879 20.6637C11.3986 20.8728 11.6616 21.1514 11.877 21.4996C12.1215 21.8954 12.2825 22.311 12.36 22.7463C12.4766 23.4031 12.4578 24.063 12.3038 24.7263C12.289 24.7906 12.2213 25.0124 12.1008 25.3918C12.07 25.4887 12.0822 25.5649 12.1372 25.6205M4.45376 28.4127C4.45121 28.4194 4.44474 28.4176 4.43433 28.4072" stroke="var(--stroke-0, #229CA4)" stroke-width="0.0693985"/>
<path id="Vector_3" d="M4.43377 28.4073C3.35832 27.3698 2.69083 26.1093 2.43128 24.6258" stroke="var(--stroke-0, #94B77D)" stroke-width="0.0693985"/>
<path id="Vector_4" d="M2.43258 24.6276C2.43414 24.6219 2.43297 24.6165 2.42906 24.6116" stroke="var(--stroke-0, #229CA4)" stroke-width="0.0693985"/>
<path id="Vector_5" d="M2.4202 24.6169L2.43165 24.6259M4.43414 28.4075C4.43252 28.4149 4.43206 28.4217 4.43275 28.4279" stroke="var(--stroke-0, #8D9F4E)" stroke-width="0.0693985"/>
<path id="Vector_6" d="M12.4967 9.69611C12.6396 9.5535 12.5862 9.3911 12.5213 9.22697C12.1648 8.32503 11.7098 7.38433 11.1563 6.40489C10.7263 5.64393 10.2936 4.93468 9.80819 4.30662C9.52713 3.94321 9.29961 3.67891 9.12566 3.51375C8.84459 3.24795 8.50558 2.98146 8.14401 2.82219C8.03194 2.77292 7.85879 2.73128 7.75608 2.72712C7.27619 2.70768 7.01733 3.1383 7.07389 3.58557C7.13218 4.04881 7.31158 4.51794 7.53678 4.93919C7.70588 5.25588 7.90609 5.57997 8.13742 5.91146C8.31069 6.15991 8.52154 6.42837 8.76999 6.71683C9.03093 7.01964 9.26029 7.2726 9.45807 7.4757C10.1393 8.17501 10.8755 8.82747 11.6667 9.43309C11.8867 9.60138 12.2753 9.91714 12.4967 9.69611Z" stroke="var(--stroke-0, #919BCA)" stroke-width="0.0693985"/>
<path id="Vector_7" d="M9.82562 2.74777C9.81452 2.80213 9.82724 2.84979 9.86379 2.89073C10.0869 3.14195 10.2528 3.29949 10.4363 3.53857C10.5992 3.75093 10.705 3.89146 10.7538 3.96016C11.1101 4.46052 11.4464 4.98576 11.7629 5.53585C12.0724 6.07346 12.3854 6.72893 12.7018 7.50226C12.8892 7.96006 13.0242 8.30474 13.1068 8.5363C13.1396 8.6286 13.1946 8.67949 13.2716 8.68897C13.3808 8.70262 13.4341 8.65508 13.4316 8.54636C13.4304 8.48598 13.4252 8.44388 13.416 8.42005C13.1812 7.81698 12.9907 7.34473 12.8445 7.00329C12.6703 6.59638 12.4676 6.17293 12.2365 5.73295C12.0162 5.31413 11.7448 4.88316 11.5051 4.51674C11.1833 4.0247 10.8119 3.56216 10.3909 3.12911C10.2531 2.9872 10.0498 2.78629 9.85026 2.7325C9.84763 2.73178 9.84489 2.73161 9.8422 2.732C9.8395 2.73239 9.83692 2.73333 9.83461 2.73477C9.8323 2.7362 9.83031 2.73809 9.82876 2.74033C9.82721 2.74257 9.82614 2.7451 9.82562 2.74777Z" stroke="var(--stroke-0, #229CA4)" stroke-width="0.0693985"/>
<path id="Vector_8" d="M17.3879 10.3022C17.2255 10.3045 17.0709 10.3891 16.9581 10.5374C16.8453 10.6858 16.7835 10.8857 16.7864 11.0932C16.7879 11.1959 16.8051 11.2974 16.8372 11.3919C16.8693 11.4864 16.9156 11.572 16.9735 11.6439C17.0314 11.7158 17.0997 11.7725 17.1746 11.8107C17.2494 11.849 17.3293 11.8681 17.4097 11.867C17.5721 11.8648 17.7268 11.7801 17.8395 11.6318C17.9523 11.4835 18.0141 11.2836 18.0112 11.0761C18.0097 10.9733 17.9925 10.8718 17.9604 10.7773C17.9283 10.6828 17.882 10.5972 17.8241 10.5254C17.7662 10.4535 17.6979 10.3968 17.6231 10.3585C17.5482 10.3202 17.4683 10.3011 17.3879 10.3022Z" stroke="var(--stroke-0, #1B6172)" stroke-width="0.0693985"/>
</g>
<path id="Vector_9" d="M21.903 11.5899C21.7853 11.5964 21.6671 11.5987 21.5484 11.5968C21.4603 11.5954 21.3281 11.626 21.1518 11.6884C21.088 11.7111 21.0216 11.7569 20.9526 11.8259C20.9424 11.8361 20.935 11.8488 20.9311 11.8626C20.8858 12.025 20.9135 12.1586 21.0144 12.2634C21.3417 12.6042 21.7552 12.8454 22.2549 12.9872C22.0786 13.4934 21.7989 13.9638 21.4159 14.3985C21.1253 14.7283 20.8313 14.9922 20.5338 15.1899C20.0171 15.5335 19.4484 15.7146 18.837 15.8C18.7246 15.8155 18.6818 15.8827 18.7086 16.0016C18.8773 16.7455 18.9852 17.351 19.0324 17.8181C19.0493 17.9848 19.0625 18.1068 19.0719 18.1838C19.0833 18.2752 19.0953 18.5292 19.108 18.9458C19.1288 19.6333 19.0609 20.319 18.9043 21.0028C18.754 21.6586 18.5103 22.2627 18.1732 22.8151C18.0631 22.9958 17.9553 23.1626 17.8498 23.3155C17.7945 23.3955 17.7549 23.489 17.7308 23.5958C17.6729 23.8533 17.7031 24.0566 17.7447 24.3415C17.7583 24.4354 17.7782 24.5422 17.8044 24.6618C17.9897 25.5103 18.1997 26.354 18.4345 27.1928C18.4372 27.2025 18.4431 27.211 18.4512 27.2171C18.4593 27.2231 18.4691 27.2264 18.4793 27.2264C18.603 27.2262 18.7495 27.233 18.9186 27.2469C19.127 27.264 19.3503 27.3225 19.5886 27.4225C20.0775 27.6279 20.496 28.0758 20.5963 28.6158C20.6799 29.0676 20.4523 29.3736 19.9988 29.4253C19.9333 29.4329 19.8094 29.4369 19.6271 29.4371C19.0368 29.4385 18.4436 29.4388 17.8477 29.4381C17.5695 29.4377 17.3314 29.4303 17.1336 29.4159C17.0952 29.4132 17.0158 29.3919 16.8953 29.3521C16.6184 29.2608 16.4056 29.0953 16.2332 28.8496C16.0997 28.6597 15.988 28.4652 15.898 28.266C15.691 27.8075 15.4919 27.3415 15.3008 26.868C15.0077 26.1423 14.725 25.4364 14.4528 24.7503C14.4017 24.6212 14.3568 24.5183 14.3181 24.4415C14.2941 24.3931 14.2585 24.3564 14.2113 24.3315C14.2056 24.3284 14.1993 24.3269 14.1929 24.3269C14.1865 24.3269 14.1801 24.3284 14.1745 24.3315C14.1074 24.3673 14.0683 24.3892 14.0572 24.397C13.6589 24.6781 13.1986 24.9324 12.6765 25.1601C12.5967 25.195 12.5184 25.2222 12.4416 25.2416C12.5899 24.862 12.6835 24.481 12.7223 24.0986C12.8087 23.2506 12.723 22.4275 12.3431 21.6631C11.6598 20.2883 10.2785 19.6144 8.76835 19.8185C8.689 19.8291 8.5738 19.8475 8.42274 19.8736C8.26174 19.9011 7.99212 19.9417 8.04452 20.1512C8.04792 20.1648 8.05501 20.1772 8.06499 20.187C8.11889 20.2397 8.18251 20.258 8.25584 20.2418C8.71873 20.1408 9.21388 20.087 9.67538 20.1512C9.8771 20.1795 9.99462 20.1973 10.0279 20.2047C10.4022 20.2873 10.7555 20.4403 11.0876 20.6637C11.3983 20.8729 11.6613 21.1515 11.8767 21.4997C12.1212 21.8955 12.2822 22.311 12.3597 22.7464C12.4763 23.4031 12.4576 24.0631 12.3035 24.7263C12.2887 24.7906 12.221 25.0125 12.1005 25.3919C12.0697 25.4888 12.0819 25.565 12.1369 25.6205C12.1307 25.6339 12.1183 25.651 12.0998 25.6715C12.0952 25.6766 12.091 25.6821 12.0873 25.6878C11.714 26.2892 11.2216 26.7583 10.6411 27.1903C10.6397 27.1914 10.6387 27.1929 10.6381 27.1945C10.6376 27.1962 10.6376 27.1979 10.638 27.1996C10.6384 27.2012 10.6394 27.2027 10.6407 27.2038C10.642 27.2048 10.6435 27.2055 10.6452 27.2056C10.7607 27.2142 10.9974 27.2044 11.3555 27.1764C11.5087 27.1646 11.8846 27.1629 12.4832 27.1712C12.6172 27.173 12.7404 27.1952 12.8993 27.2087C13.0603 27.2224 13.2392 27.2566 13.4361 27.3114C14.095 27.4953 14.7154 27.9582 14.8744 28.646C14.8968 28.7431 14.8987 28.8492 14.8799 28.9642C14.8533 29.1289 14.7789 29.2436 14.6568 29.3084C14.5134 29.3845 14.4006 29.4246 14.3185 29.4288C14.2088 29.4341 14.1279 29.4369 14.0756 29.4371C13.3534 29.4403 10.9317 29.4399 6.81061 29.4357C6.50966 29.4355 6.21969 29.3912 5.94071 29.3028C5.52316 29.1705 5.13383 28.962 4.77273 28.6772C4.62653 28.562 4.52012 28.4738 4.4535 28.4128C4.45095 28.4195 4.44447 28.4176 4.43406 28.4072C3.35862 27.3697 2.69112 26.1092 2.43157 24.6257C2.43296 24.6206 2.43192 24.6159 2.42845 24.6115C2.39028 24.2996 2.36854 24.0825 2.36321 23.9602C2.35581 23.7864 2.3557 23.4656 2.36287 22.9976C2.36495 22.8571 2.3875 22.7166 2.3993 22.5465C2.41735 22.2874 2.46777 21.9426 2.55059 21.5121C2.69876 20.7432 2.96143 19.9659 3.33063 19.2782C4.14641 17.758 5.51356 16.5064 7.05872 15.742C7.5637 15.4919 8.10258 15.2735 8.67535 15.0865C9.62773 14.7752 10.664 14.5295 11.7841 14.3495C11.8067 14.3458 11.84 14.3365 11.884 14.3214C11.8949 14.3177 11.9049 14.3116 11.9133 14.3036C11.9216 14.2956 11.9281 14.2858 11.9322 14.275C11.9364 14.2642 11.9381 14.2527 11.9372 14.2411C11.9364 14.2296 11.933 14.2184 11.9274 14.2083C11.5571 13.548 11.411 12.7967 11.4561 12.0379C11.4598 11.9761 11.4667 11.9162 11.4766 11.8581C11.4902 11.779 11.4818 11.703 11.4978 11.6166C11.5158 11.5183 11.5294 11.4427 11.5384 11.3897C11.5921 11.0762 11.6779 10.7755 11.7959 10.4875C11.8026 10.4711 11.8031 10.4528 11.7973 10.4361C11.7914 10.4194 11.7795 10.4054 11.7639 10.3969C11.5562 10.2836 11.3692 10.1742 11.2028 10.0687C9.78781 9.17032 8.57334 8.13177 7.54867 6.86108C6.86024 6.00748 6.30435 5.05915 5.97575 4.01852C5.87697 3.70577 5.81729 3.38133 5.7967 3.04521C5.77958 2.76669 5.82076 2.50182 5.92023 2.2506C6.03613 1.95773 6.24444 1.7411 6.54517 1.60068C6.80749 1.47819 7.11632 1.42302 7.39599 1.47646C7.48899 1.49415 7.55838 1.48687 7.64236 1.50803C7.97524 1.59339 8.2696 1.70778 8.52545 1.85121C8.8699 2.0446 9.19376 2.26424 9.49703 2.51015C9.55116 2.5541 9.6024 2.60152 9.65075 2.65241C9.65285 2.65464 9.65566 2.65607 9.6587 2.65645C9.66174 2.65683 9.66482 2.65614 9.66741 2.6545C9.66999 2.65286 9.67193 2.65036 9.67288 2.64745C9.67383 2.64454 9.67373 2.64138 9.67261 2.63853C9.60298 2.45625 9.54179 2.25754 9.48905 2.0424C9.47031 1.96653 9.44359 1.79199 9.40889 1.51879C9.39154 1.38277 9.3905 1.19886 9.40577 0.967071C9.40959 0.90843 9.43526 0.826539 9.45331 0.751242C9.51345 0.499326 9.64751 0.30848 9.85547 0.178705C10.1619 -0.0124881 10.554 0.00382051 10.886 0.12388C11.1779 0.229713 11.4568 0.409802 11.6911 0.614527C11.9758 0.863436 12.2464 1.1497 12.5027 1.47333C12.9017 1.9774 13.2531 2.51373 13.5568 3.08234C14.2344 4.35025 14.705 5.67206 14.9688 7.04777C15.0412 7.42483 15.0865 7.75482 15.1048 8.03773C15.1049 8.04045 15.1057 8.0431 15.1069 8.04553C15.1082 8.04796 15.1099 8.05011 15.1121 8.05186C15.1142 8.05361 15.1167 8.05492 15.1194 8.05572C15.1221 8.05651 15.1249 8.05677 15.1277 8.05647C15.5494 8.00466 15.9888 8.00419 16.4459 8.05508C16.89 8.10436 17.3189 8.20371 17.7325 8.35315C18.5691 8.65503 19.3308 9.12625 20.0175 9.70295C20.6992 10.2755 21.3277 10.9045 21.903 11.5899ZM12.4964 9.69601C12.6394 9.5534 12.586 9.391 12.5211 9.22688C12.1646 8.32493 11.7096 7.38423 11.156 6.40479C10.7261 5.64383 10.2934 4.93458 9.80793 4.30653C9.52687 3.94311 9.29936 3.67882 9.1254 3.51365C8.84434 3.24785 8.50533 2.98136 8.14376 2.82209C8.03168 2.77282 7.85853 2.73118 7.75582 2.72702C7.27593 2.70759 7.01708 3.1382 7.07364 3.58548C7.13193 4.04871 7.31133 4.51784 7.53652 4.93909C7.70562 5.25578 7.90584 5.57987 8.13717 5.91137C8.31043 6.15981 8.52129 6.42827 8.76973 6.71673C9.03067 7.01954 9.26003 7.2725 9.45782 7.47561C10.1391 8.17491 10.8753 8.82737 11.6664 9.43299C11.8864 9.60128 12.275 9.91705 12.4964 9.69601ZM9.82598 2.74784C9.81488 2.8022 9.8276 2.84985 9.86415 2.8908C10.0873 3.14202 10.2531 3.29955 10.4367 3.53863C10.5995 3.75099 10.7054 3.89152 10.7542 3.96023C11.1104 4.46059 11.4468 4.98582 11.7632 5.53592C12.0728 6.07353 12.3857 6.729 12.7022 7.50233C12.8896 7.96012 13.0246 8.3048 13.1071 8.53636C13.14 8.62866 13.1949 8.67955 13.272 8.68904C13.3811 8.70269 13.4345 8.65515 13.4319 8.54643C13.4308 8.48605 13.4256 8.44395 13.4163 8.42012C13.1815 7.81705 12.991 7.34479 12.8448 7.00335C12.6706 6.59644 12.468 6.173 12.2369 5.73301C12.0165 5.31419 11.7452 4.88323 11.5054 4.5168C11.1836 4.02477 10.8122 3.56223 10.3912 3.12918C10.2535 2.98726 10.0501 2.78635 9.85061 2.73257C9.84799 2.73185 9.84525 2.73168 9.84256 2.73207C9.83986 2.73246 9.83728 2.7334 9.83497 2.73483C9.83266 2.73626 9.83066 2.73816 9.82912 2.7404C9.82757 2.74263 9.8265 2.74517 9.82598 2.74784ZM17.3882 10.3019C17.2257 10.3042 17.0711 10.3888 16.9583 10.5371C16.8456 10.6855 16.7838 10.8854 16.7867 11.0929C16.7881 11.1956 16.8054 11.2971 16.8375 11.3916C16.8696 11.4861 16.9159 11.5717 16.9738 11.6436C17.0317 11.7155 17.1 11.7722 17.1748 11.8104C17.2497 11.8487 17.3296 11.8678 17.41 11.8667C17.5724 11.8645 17.727 11.7798 17.8398 11.6315C17.9526 11.4832 18.0144 11.2833 18.0115 11.0758C18.01 10.973 17.9928 10.8715 17.9607 10.777C17.9286 10.6825 17.8823 10.5969 17.8244 10.5251C17.7665 10.4532 17.6982 10.3965 17.6233 10.3582C17.5485 10.3199 17.4686 10.3008 17.3882 10.3019Z" fill="var(--fill-0, #FFBA27)"/>
<path id="Vector_10" d="M12.4965 9.69591C12.2752 9.91694 11.8865 9.60118 11.6665 9.43288C10.8754 8.82727 10.1392 8.17481 9.45794 7.4755C9.26015 7.27239 9.03079 7.01944 8.76985 6.71663C8.5214 6.42816 8.31055 6.15971 8.13728 5.91126C7.90596 5.57977 7.70574 5.25568 7.53664 4.93899C7.31144 4.51774 7.13205 4.04861 7.07375 3.58537C7.01719 3.1381 7.27605 2.70748 7.75594 2.72691C7.85865 2.73108 8.0318 2.77271 8.14388 2.82199C8.50544 2.98126 8.84445 3.24775 9.12552 3.51354C9.29948 3.67871 9.52699 3.943 9.80805 4.30642C10.2935 4.93448 10.7262 5.64373 11.1561 6.40468C11.7097 7.38413 12.1647 8.32482 12.5212 9.22677C12.5861 9.3909 12.6395 9.55329 12.4965 9.69591Z" fill="var(--fill-0, #FD6ACD)"/>
<path id="Vector_11" d="M9.85012 2.73274C10.0496 2.78653 10.253 2.98743 10.3907 3.12935C10.8118 3.5624 11.1831 4.02494 11.5049 4.51698C11.7447 4.8834 12.016 5.31437 12.2364 5.73319C12.4675 6.17317 12.6701 6.59662 12.8443 7.00352C12.9905 7.34497 13.181 7.81722 13.4158 8.42029C13.4251 8.44412 13.4303 8.48622 13.4314 8.5466C13.434 8.65532 13.3806 8.70286 13.2715 8.68921C13.1944 8.67973 13.1395 8.62884 13.1066 8.53654C13.0241 8.30498 12.8891 7.9603 12.7017 7.5025C12.3852 6.72917 12.0723 6.0737 11.7627 5.53609C11.4463 4.986 11.1099 4.46076 10.7537 3.9604C10.7049 3.8917 10.599 3.75116 10.4362 3.53881C10.2526 3.29973 10.0868 3.14219 9.86365 2.89097C9.8271 2.85003 9.81438 2.80237 9.82548 2.74801C9.82601 2.74534 9.82707 2.74281 9.82862 2.74057C9.83017 2.73833 9.83216 2.73644 9.83447 2.73501C9.83678 2.73357 9.83937 2.73263 9.84206 2.73224C9.84475 2.73185 9.8475 2.73202 9.85012 2.73274Z" fill="var(--fill-0, #13A050)"/>
<path id="Vector_12" d="M18.0111 11.0761C18.0051 10.644 17.726 10.2976 17.3878 10.3023C17.0496 10.307 16.7803 10.6611 16.7864 11.0932C16.7924 11.5253 17.0714 11.8718 17.4097 11.8671C17.7479 11.8623 18.0171 11.5082 18.0111 11.0761Z" fill="var(--fill-0, #0C0E10)"/>
<path id="Vector_13" d="M21.9028 11.5898C22.1369 11.7674 22.2803 11.9799 22.333 12.2272C22.3835 12.4639 22.3573 12.7172 22.2546 12.9871C21.7549 12.8453 21.3414 12.604 21.0141 12.2633C20.9132 12.1585 20.8855 12.0249 20.9308 11.8625C20.9347 11.8486 20.9421 11.836 20.9523 11.8257C21.0213 11.7568 21.0877 11.711 21.1515 11.6883C21.3278 11.6259 21.46 11.5953 21.5481 11.5967C21.6668 11.5986 21.785 11.5963 21.9028 11.5898Z" fill="var(--fill-0, #FD6ACD)"/>
<path id="Vector_14" d="M12.4416 25.2413C12.3982 25.3075 12.3454 25.3862 12.2834 25.4773C12.248 25.5289 12.1992 25.5765 12.137 25.6203C12.0819 25.5647 12.0698 25.4885 12.1006 25.3916C12.2211 25.0122 12.2887 24.7904 12.3035 24.7261C12.4576 24.0628 12.4763 23.4029 12.3598 22.7461C12.2823 22.3108 12.1213 21.8952 11.8767 21.4994C11.6614 21.1512 11.3984 20.8726 11.0877 20.6635C10.7555 20.44 10.4023 20.287 10.028 20.2044C9.99466 20.197 9.87714 20.1792 9.67542 20.151C9.21392 20.0868 8.71877 20.1406 8.25588 20.2415C8.18255 20.2577 8.11893 20.2395 8.06503 20.1867C8.05505 20.1769 8.04796 20.1646 8.04456 20.151C7.99216 19.9414 8.26178 19.9008 8.42278 19.8734C8.57384 19.8472 8.68904 19.8288 8.76839 19.8182C10.2785 19.6142 11.6599 20.288 12.3431 21.6628C12.7231 22.4272 12.8088 23.2503 12.7224 24.0984C12.6835 24.4807 12.5899 24.8617 12.4416 25.2413Z" fill="var(--fill-0, #13A050)"/>
<path id="Vector_15" d="M2.42024 24.6166L2.43169 24.6256C2.69124 26.1091 3.35874 27.3696 4.43418 28.4071C4.43257 28.4145 4.4321 28.4214 4.4328 28.4276C4.1286 28.6453 3.79017 28.78 3.4175 28.8318C3.18224 28.8645 2.97751 28.8763 2.7478 28.8502C2.2324 28.7924 1.76917 28.6241 1.3581 28.3454C1.01458 28.1124 0.730967 27.8401 0.507273 27.5285C0.162362 27.0483 -0.0329945 26.44 0.0305051 25.8429C0.0881058 25.3005 0.363271 24.822 0.850448 24.569C1.26476 24.3543 1.70266 24.3459 2.15653 24.4924C2.27219 24.5298 2.3601 24.5712 2.42024 24.6166Z" fill="var(--fill-0, #29B4D3)"/>
<path id="Vector_16" d="M2.42839 24.6114C2.43186 24.6158 2.4329 24.6205 2.43151 24.6256L2.42006 24.6166C2.42284 24.6147 2.42561 24.613 2.42839 24.6114ZM4.45343 28.4127L4.43261 28.4276C4.43192 28.4214 4.43238 28.4145 4.434 28.4071C4.44441 28.4176 4.45089 28.4194 4.45343 28.4127Z" fill="var(--fill-0, #1A8474)"/>
</g>
<defs>
<clipPath id="clip0_258_1399">
<rect width="22.381" height="29.4596" fill="white"/>
</clipPath>
</defs>
</svg>
