<svg preserveAspectRatio="none" width="100%" height="100%" overflow="visible" style="display: block;" viewBox="0 0 30.5616 24.7639" fill="none" xmlns="http://www.w3.org/2000/svg">
<g id="made-with-blunge 4" clip-path="url(#clip0_270_3516)">
<g id="Group">
<path id="Vector" d="M19.6964 5.14824C19.5572 5.45942 19.4302 5.7802 19.3154 6.11059C19.081 6.78607 18.8695 7.45703 18.6135 8.10334C18.2767 8.95385 17.6001 9.43554 16.718 9.58835C16.4328 9.6379 16.165 9.66267 15.9147 9.66267C15.717 9.66267 15.5166 9.66325 15.3136 9.66441" stroke="var(--stroke-0, #FCC882)" stroke-width="0.0694581"/>
<path id="Vector_2" d="M15.3134 9.6644L13.6221 9.66301" stroke="var(--stroke-0, #8F8F8E)" stroke-width="0.0694581"/>
<path id="Vector_3" d="M13.6229 9.66301H12.1316" stroke="var(--stroke-0, #FCC882)" stroke-width="0.0694581"/>
<path id="Vector_4" d="M12.1316 9.66301L10.4469 9.66996" stroke="var(--stroke-0, #8F8F8E)" stroke-width="0.0694581"/>
<path id="Vector_5" d="M10.4463 9.66969C10.4257 9.66806 10.4051 9.6676 10.3845 9.6683C10.241 9.67316 9.90805 9.68103 9.38572 9.69191C9.15674 9.69677 8.77808 9.73023 8.24973 9.79228C7.70842 9.85595 7.11711 9.99 6.47578 10.1944C6.07778 10.3213 5.70363 10.5084 5.35333 10.7557C4.86435 11.1011 4.43915 11.4715 4.07774 11.867C3.46894 12.5331 3.09525 13.3034 2.85701 14.1713C2.71601 14.6853 2.60835 15.2403 2.53403 15.8365C2.45867 16.4391 2.39095 16.9239 2.29023 17.3382C2.25018 17.5026 2.17366 17.7434 2.06067 18.0606" stroke="var(--stroke-0, #FCC882)" stroke-width="0.0694581"/>
<path id="Vector_6" d="M2.06091 18.0605C2.01113 18.1603 1.96193 18.2603 1.91331 18.3606C1.70042 18.7985 1.37605 19.1545 0.977015 19.4201C0.770725 19.5577 0.401208 19.7389 0.211935 20.0206C-0.0669395 20.437 0.0643363 21.0045 0.516508 21.2177C0.966944 21.4299 1.54796 21.1524 1.91331 20.8763C2.6711 20.3029 3.23475 19.5518 3.55808 18.6492" stroke="var(--stroke-0, #89DAE4)" stroke-width="0.0694581"/>
<path id="Vector_7" d="M3.55746 18.6495C3.58941 18.5761 3.61882 18.4987 3.64568 18.4172C3.80057 17.949 3.91459 17.4761 3.98776 16.9985C4.02422 16.7603 4.06659 16.5217 4.09021 16.2845C4.12077 15.9751 4.15365 15.7118 4.18884 15.4944C4.22218 15.2883 4.2745 15.0441 4.34581 14.7616C4.56021 13.9117 4.97418 13.1959 5.58772 12.6143C5.77422 12.4375 6.02878 12.2469 6.22986 12.1368C6.24167 12.1303 6.25197 12.1274 6.26077 12.1281C6.2638 12.1283 6.26673 12.1292 6.26936 12.1308C6.27199 12.1323 6.27425 12.1344 6.27598 12.1369C6.27771 12.1394 6.27886 12.1423 6.27935 12.1454C6.27985 12.1484 6.27967 12.1515 6.27883 12.1545C6.01095 13.1153 5.83233 14.109 5.74296 15.1356C5.73532 15.2215 5.73011 15.2839 5.72733 15.3228C5.68682 15.8607 5.62118 16.5043 5.53042 17.2538C5.4862 17.6184 5.42126 17.9796 5.33559 18.3373C5.26359 18.6381 5.19401 18.8688 5.12687 19.0295C5.05162 19.2091 4.94616 19.4623 4.81049 19.789C4.6982 20.0587 4.62249 20.3373 4.58336 20.6249C4.56924 20.7277 4.56437 20.8825 4.56877 21.0892C4.5734 21.3113 4.58104 21.4656 4.59169 21.5522C4.67944 22.2546 4.79671 22.9568 4.9435 23.6588C5.03553 24.0985 5.18938 24.4691 5.65475 24.6059C5.81913 24.6543 5.99787 24.6809 6.19097 24.6858C6.70982 24.6997 7.21374 24.6948 7.72147 24.6924C8.00301 24.6912 8.2269 24.6776 8.39313 24.6514C9.31241 24.5066 9.42667 23.5852 8.99777 22.9167C8.72584 22.4926 8.34139 22.2568 7.86386 22.1408C7.85299 22.1382 7.84316 22.1323 7.83567 22.1241C7.82818 22.1159 7.82336 22.1056 7.82184 22.0946C7.78954 21.8567 7.81941 21.5959 7.81837 21.3601C7.81744 21.146 7.83585 20.9795 7.87359 20.8607C7.94235 20.6449 8.07166 20.4656 8.26151 20.3228C8.69308 19.9984 9.07417 19.6988 9.40479 19.424" stroke="var(--stroke-0, #FCC882)" stroke-width="0.0694581"/>
<path id="Vector_8" d="M9.40526 19.4236C9.29552 19.8033 9.23914 20.1873 9.23613 20.5756C9.23405 20.8475 9.27225 21.1208 9.33164 21.3806C9.48236 22.0356 9.69351 22.811 9.9651 23.7068C10.1231 24.2284 10.3551 24.5868 10.941 24.6601C11.1369 24.6846 11.4259 24.6969 11.8082 24.6969C12.1024 24.6967 12.4527 24.6948 12.8591 24.6913C12.9366 24.6906 13.0229 24.6858 13.1178 24.6767C13.2644 24.6631 13.3503 24.6534 13.3755 24.6476C13.7925 24.5517 14.0417 24.3083 14.1232 23.9172C14.2159 23.472 14.0062 22.9931 13.6971 22.6836C13.3905 22.3766 13.0282 22.2003 12.6101 22.1547C12.4173 22.1335 12.3395 22.1127 12.3024 21.922C12.2614 21.7118 12.2463 21.4721 12.2572 21.2028C12.2639 21.0324 12.2867 20.8958 12.3256 20.793C12.4371 20.4975 12.6302 20.2908 12.8636 20.0557C13.3067 19.6094 13.6592 19.1573 13.8648 18.5936" stroke="var(--stroke-0, #F3B782)" stroke-width="0.0694581"/>
<path id="Vector_9" d="M13.8647 18.5936C14.8943 18.7101 15.925 18.7446 16.9569 18.6971C17.123 18.6895 17.2869 18.6933 17.4407 18.6888C17.4433 18.6887 17.4458 18.6891 17.4482 18.69C17.4506 18.691 17.4527 18.6924 17.4546 18.6942C17.4564 18.696 17.4578 18.6982 17.4588 18.7006C17.4597 18.703 17.4602 18.7056 17.4602 18.7082C17.457 18.8812 17.4918 19.0645 17.4994 19.2483C17.5101 19.5092 17.5273 19.7906 17.5512 20.0925C17.5776 20.4224 17.5723 20.6398 17.5904 20.9958C17.595 21.091 17.5998 21.3167 17.6046 21.673C17.6088 21.9783 17.6335 22.2857 17.6338 22.6222C17.634 22.8333 17.6486 23.1009 17.6776 23.4248C17.71 23.7846 17.7668 24.0294 17.8481 24.1593C17.9919 24.3897 18.1992 24.5379 18.4701 24.6042C18.6004 24.6361 18.6951 24.6532 18.7542 24.6556C19.2964 24.6769 19.8259 24.6865 20.3427 24.6844C20.6846 24.683 20.9739 24.671 21.2106 24.6483C21.752 24.5962 22.1416 24.2471 22.167 23.6859C22.1788 23.4285 22.1207 23.185 21.9927 22.9556C21.8166 22.6399 21.511 22.3426 21.155 22.2488C21.1419 22.2454 21.1306 22.2373 21.1232 22.226C21.1157 22.2147 21.1127 22.2011 21.1147 22.1877C21.2302 21.4179 21.3747 20.6622 21.5481 19.9206C21.5502 19.9118 21.5675 19.831 21.5999 19.6782C21.6193 19.5856 21.644 19.4927 21.6738 19.3997" stroke="var(--stroke-0, #FCC882)" stroke-width="0.0694581"/>
<path id="Vector_10" d="M21.6739 19.4007C21.8397 20.2537 22.0058 21.0989 22.1723 21.9363C22.2892 22.5256 22.4094 23.051 22.5328 23.5127C22.6984 24.1319 23.0242 24.5868 23.7 24.6528C24.1838 24.7004 24.8325 24.6858 25.4597 24.6858C25.8526 24.6858 26.1496 24.6776 26.3505 24.6612C26.5487 24.6447 26.707 24.6056 26.8253 24.5438C27.3216 24.2843 27.4025 23.6797 27.2028 23.1973C26.96 22.6101 26.4148 22.1801 25.7713 22.1409C25.7219 22.1379 25.6844 22.1237 25.6587 22.0985C25.6504 22.0902 25.6451 22.0793 25.6438 22.0676C25.5811 21.4297 25.5447 20.8819 25.5347 20.4242C25.5219 19.8501 25.4965 19.4209 25.4945 18.8371C25.4894 17.5364 25.4898 16.7571 25.4958 16.4991C25.4991 16.3533 25.5277 16.0756 25.5816 15.666" stroke="var(--stroke-0, #F9C282)" stroke-width="0.0694581"/>
<path id="Vector_11" d="M25.5815 15.665C25.6468 15.3071 25.6934 14.9872 25.7214 14.7054C25.7925 13.9891 25.844 13.2346 25.876 12.4418C25.8906 12.0811 25.895 11.722 25.8892 11.3645C25.8891 11.3621 25.8896 11.3596 25.8905 11.3573C25.8914 11.355 25.8927 11.3529 25.8944 11.3512C25.8961 11.3494 25.8982 11.348 25.9004 11.347C25.9027 11.346 25.9051 11.3455 25.9076 11.3454L26.3844 11.3346" stroke="var(--stroke-0, #FFFAF1)" stroke-width="0.0694581"/>
<path id="Vector_12" d="M26.3843 11.3346L26.7035 11.3409" stroke="var(--stroke-0, #FCC882)" stroke-width="0.0694581"/>
<path id="Vector_13" d="M26.7033 11.3408C26.788 11.3549 26.899 11.3627 27.0363 11.364C27.4223 11.368 27.7034 11.369 27.8796 11.3672C28.1724 11.3642 28.3954 11.3426 28.5484 11.3026C28.9904 11.1868 29.3621 10.9465 29.6636 10.5816C29.7306 10.5003 29.7963 10.376 29.8525 10.2902C29.8909 10.2319 29.9318 10.1551 29.9751 10.06C30.1198 9.74093 30.2294 9.41193 30.304 9.07297" stroke="var(--stroke-0, #FFFAF1)" stroke-width="0.0694581"/>
<path id="Vector_14" d="M30.3045 9.07234C30.4601 8.59378 30.5208 8.1041 30.4865 7.6033C30.4849 7.57946 30.4815 7.55966 30.4764 7.54392C30.4665 7.51197 30.4551 7.49703 30.4424 7.49912" stroke="var(--stroke-0, #8F8F8E)" stroke-width="0.0694581"/>
<path id="Vector_15" d="M30.4424 7.50003C30.4455 7.32743 30.1833 7.05307 30.0534 6.94367C29.9409 6.84921 29.8484 6.77697 29.776 6.72696C29.0578 6.2308 28.4124 5.65175 27.8398 4.98981C27.8243 4.97199 27.6841 4.81409 27.4193 4.51611C26.9796 4.02134 26.463 3.63515 25.8696 3.35755C25.6453 3.25267 25.4488 3.18032 25.2803 3.14049C25.0546 3.08747 24.7893 3.04684 24.4846 3.01859C24.1281 2.98572 23.7871 2.96615 23.4615 2.9599C22.842 2.94844 22.4391 2.93802 21.9296 3.0179" stroke="var(--stroke-0, #FCC882)" stroke-width="0.0694581"/>
<path id="Vector_16" d="M21.9293 3.0176C21.6689 2.47132 21.1986 1.86634 20.5749 1.71249C20.1681 1.61247 19.7729 1.645 19.3892 1.81008C18.7231 2.09694 18.3529 2.71928 18.3745 3.44616C18.3991 4.2866 18.952 4.83289 19.6962 5.14788" stroke="var(--stroke-0, #8F8F8E)" stroke-width="0.0694581"/>
<path id="Vector_17" d="M21.929 3.01804C21.8376 3.053 21.7449 3.08715 21.6509 3.12049C21.3026 3.24389 20.9927 3.4305 20.7212 3.68032C20.3415 4.0297 20.0396 4.43718 19.8154 4.90278C19.7779 4.98081 19.7381 5.06265 19.696 5.14832M30.4418 7.50017C30.0024 7.53004 29.5647 7.53258 29.1287 7.50781C29.015 7.50133 28.9253 7.5371 28.8596 7.61512" stroke="var(--stroke-0, #8C5811)" stroke-width="0.0694581"/>
<path id="Vector_18" d="M28.8603 7.61525C28.4825 7.55158 28.1162 7.54197 27.7615 7.58643C26.5126 7.74306 25.6409 8.87175 25.8545 10.1223C25.924 10.5282 26.115 10.8712 26.4275 11.1514C26.485 11.2028 26.5771 11.2661 26.704 11.3413M26.3848 11.3351C25.9683 11.3205 25.6182 11.3309 25.3346 11.3663C24.3219 11.4931 23.7638 12.3061 23.4172 13.199C23.1241 13.9538 22.8765 14.6989 22.6744 15.4345C22.4351 16.3048 22.15 17.4731 21.9048 18.4997" stroke="var(--stroke-0, #FCC374)" stroke-width="0.0694581"/>
<path id="Vector_19" d="M21.9045 18.4992L21.6739 19.3997" stroke="var(--stroke-0, #F68B05)" stroke-width="0.0694581"/>
<path id="Vector_20" d="M13.8646 18.5942C13.6638 18.5623 13.4625 18.5296 13.2606 18.4963C12.4445 18.3615 11.6339 18.1494 10.8546 17.8979C10.8396 17.8931 10.8233 17.8937 10.8086 17.8995C10.7939 17.9053 10.7817 17.9161 10.774 17.9299C10.49 18.447 10.0031 18.8821 9.55019 19.2711C9.49636 19.3176 9.45156 19.3718 9.40502 19.4243" stroke="var(--stroke-0, #F08005)" stroke-width="0.0694581"/>
<path id="Vector_21" d="M3.55784 18.6492C3.44983 18.6644 3.41024 18.6162 3.32446 18.5832C3.29714 18.5727 3.26855 18.5608 3.23868 18.5474C3.05601 18.465 2.76949 18.3456 2.37914 18.1893C2.37428 18.1873 2.32172 18.1643 2.22147 18.1206C2.16914 18.0979 2.11554 18.0779 2.06067 18.0605" stroke="var(--stroke-0, #86A367)" stroke-width="0.0694581"/>
<path id="Vector_22" d="M10.4463 9.66996C10.4489 9.68362 10.449 9.69682 10.4467 9.70955C10.2501 10.731 10.2145 11.7538 10.3397 12.7779C10.4048 13.3092 10.5306 13.8315 10.7172 14.3448C10.8409 14.6856 10.9944 14.9755 11.1777 15.2145C11.3111 15.3884 11.5205 15.5006 11.7032 15.3367C11.7831 15.2648 11.7865 15.1189 11.7761 15.0224C11.7539 14.8187 11.7311 14.5959 11.7077 14.3542C11.6484 13.7474 11.6503 13.1106 11.7133 12.4438C11.7584 11.9661 11.809 11.5767 11.865 11.2755C11.9942 10.5816 12.0786 10.2069 12.131 9.66301M13.6223 9.66301C13.6063 9.787 13.5702 9.93182 13.5546 10.0259C13.3091 11.4964 13.4073 13.0474 13.9203 14.448C14.0231 14.7289 14.3659 15.5916 14.7986 15.3801C14.9781 15.2926 14.942 15.0526 14.9222 14.8835C14.7856 13.7147 14.8191 12.5454 15.0226 11.3755C15.0807 11.0416 15.1492 10.6641 15.2282 10.243C15.2414 10.1726 15.2552 10.0762 15.2695 9.9537C15.2811 9.85599 15.2958 9.75956 15.3136 9.6644" stroke="var(--stroke-0, #8C5811)" stroke-width="0.0694581"/>
<path id="Vector_23" d="M25.5819 15.6653C25.5916 15.6366 25.5857 15.6361 25.5642 15.6639C25.5511 15.6804 25.5413 15.6994 25.5354 15.7198C25.5122 15.8002 25.4923 15.8606 25.4756 15.9011C24.9182 17.2694 23.7315 18.3057 22.2361 18.4641C22.1261 18.4757 22.0157 18.4875 21.9048 18.4995" stroke="var(--stroke-0, #F9BD73)" stroke-width="0.0694581"/>
<path id="Vector_24" d="M30.3049 9.07331C30.0903 9.07053 29.9552 8.98787 29.8097 8.84618C29.5413 8.58479 29.2706 8.32605 28.9974 8.06999C28.8574 7.93871 28.7709 7.79806 28.8605 7.61504" stroke="var(--stroke-0, #8F8A80)" stroke-width="0.0694581"/>
<path id="Vector_25" d="M25.6781 5.48877C25.5179 5.50306 25.3707 5.58985 25.2689 5.73003C25.1672 5.87021 25.1193 6.0523 25.1357 6.23624C25.1438 6.32732 25.1675 6.41611 25.2054 6.49755C25.2433 6.57899 25.2946 6.65147 25.3565 6.71087C25.4183 6.77026 25.4895 6.81541 25.5659 6.84372C25.6424 6.87203 25.7226 6.88296 25.8019 6.87588C25.8813 6.8688 25.9583 6.84385 26.0285 6.80245C26.0987 6.76105 26.1607 6.70402 26.2111 6.6346C26.2615 6.56519 26.2992 6.48476 26.322 6.3979C26.3449 6.31104 26.3525 6.21945 26.3443 6.12837C26.3362 6.03729 26.3125 5.9485 26.2747 5.86706C26.2368 5.78562 26.1854 5.71314 26.1236 5.65374C26.0617 5.59434 25.9905 5.5492 25.9141 5.52089C25.8377 5.49258 25.7575 5.48165 25.6781 5.48873M22.1018 10.8867C22.0979 10.829 22.0783 10.7839 22.0431 10.7513C21.9035 10.6218 21.818 10.5427 21.7865 10.5137C20.8957 9.69237 20.8026 8.33203 21.102 7.23946C21.1791 6.95815 20.8929 6.72755 20.671 6.97204C20.5895 7.06141 20.5222 7.15634 20.4692 7.25682C19.7607 8.59806 20.1848 10.331 21.6298 10.9756C21.7122 11.0124 21.7913 11.0548 21.8792 11.0635C21.9942 11.0746 22.1105 11.0128 22.1018 10.8867ZM23.2805 10.1709C23.315 10.0876 23.2996 10.005 23.2343 9.92332C23.1027 9.75801 22.8922 9.56491 22.7651 9.38849C22.5908 9.14701 22.4768 8.87103 22.4231 8.56055C22.4013 8.43414 22.3859 8.35252 22.3769 8.31571C22.3175 8.07434 22.0049 8.08059 21.9171 8.29765C21.7576 8.69182 21.8709 9.18567 22.0803 9.54269C22.2676 9.86219 22.5385 10.0863 22.8929 10.215C22.9916 10.2505 23.2295 10.2942 23.2805 10.1709Z" stroke="var(--stroke-0, #8C5811)" stroke-width="0.0694581"/>
</g>
<path id="Vector_26" d="M21.9293 3.01754C21.8378 3.0525 21.7451 3.08665 21.6511 3.11999C21.3029 3.2434 20.993 3.43001 20.7214 3.67983C20.3417 4.0292 20.0398 4.43669 19.8157 4.90229C19.7782 4.98031 19.7383 5.06216 19.6962 5.14782C18.952 4.83283 18.3991 4.28654 18.3744 3.4461C18.3529 2.71922 18.7231 2.09688 19.3892 1.81002C19.7728 1.64494 20.1681 1.61241 20.5748 1.71243C21.1986 1.86628 21.6688 2.47126 21.9293 3.01754Z" fill="var(--fill-0, #1F1F1D)"/>
<path id="Vector_27" d="M25.8249 3.63423C25.7408 3.58414 25.6565 3.53255 25.5721 3.47946C25.2594 3.28273 24.9209 3.15525 24.5565 3.09702C24.047 3.01566 23.5401 3.03138 23.0358 3.14415C22.9513 3.16309 22.8624 3.18258 22.7691 3.20262C22.5548 2.42337 22.6408 1.65089 23.2849 1.11053C23.8419 0.643027 24.5598 0.547713 25.1978 0.892548C25.5651 1.09124 25.8357 1.38119 26.0094 1.76239C26.2753 2.34718 26.0921 3.0912 25.8249 3.63423Z" fill="var(--fill-0, #1F1F1D)"/>
<path id="Vector_28" d="M30.4422 7.49997C30.0028 7.52984 29.5651 7.53238 29.1291 7.50761C29.0155 7.50113 28.9257 7.5369 28.86 7.61492C28.4821 7.55125 28.1159 7.54164 27.7612 7.5861C26.5123 7.74272 25.6406 8.87142 25.8542 10.122C25.9236 10.5279 26.1147 10.8709 26.4272 11.151C26.4846 11.2024 26.5768 11.2658 26.7037 11.341L26.3845 11.3347C25.968 11.3202 25.6179 11.3306 25.3343 11.366C24.3216 11.4928 23.7635 12.3058 23.4169 13.1987C23.1238 13.9534 22.8762 14.6986 22.674 15.4342C22.4348 16.3045 22.1496 17.4728 21.9045 18.4993L21.6739 19.3999C21.644 19.4929 21.6193 19.5858 21.5999 19.6784C21.5675 19.8312 21.5502 19.912 21.5481 19.9208C21.3747 20.6624 21.2302 21.4181 21.1147 22.1879C21.1127 22.2013 21.1157 22.2149 21.1232 22.2262C21.1306 22.2375 21.1419 22.2456 21.155 22.249C21.511 22.3428 21.8166 22.6401 21.9927 22.9558C22.1207 23.1852 22.1788 23.4287 22.167 23.6861C22.1417 24.2473 21.752 24.5964 21.2106 24.6485C20.9739 24.6712 20.6847 24.6832 20.3427 24.6846C19.8259 24.6867 19.2964 24.6771 18.7542 24.6558C18.6951 24.6534 18.6004 24.6363 18.4701 24.6044C18.1992 24.5381 17.9919 24.3899 17.8481 24.1595C17.7668 24.0296 17.71 23.7848 17.6776 23.425C17.6486 23.1011 17.6341 22.8335 17.6338 22.6224C17.6335 22.2859 17.6088 21.9785 17.6046 21.6732C17.5998 21.3169 17.595 21.0912 17.5904 20.996C17.5724 20.64 17.5776 20.4226 17.5512 20.0927C17.5273 19.7908 17.5101 19.5094 17.4994 19.2485C17.4918 19.0647 17.4571 18.8814 17.4602 18.7084C17.4602 18.7058 17.4598 18.7032 17.4588 18.7008C17.4578 18.6984 17.4564 18.6963 17.4546 18.6944C17.4527 18.6926 17.4506 18.6912 17.4482 18.6902C17.4458 18.6893 17.4433 18.6889 17.4407 18.689C17.2869 18.6935 17.123 18.6897 16.957 18.6973C15.925 18.7448 14.8943 18.7103 13.8647 18.5938C13.6639 18.5619 13.4626 18.5292 13.2607 18.4959C12.4446 18.3611 11.634 18.1489 10.8547 17.8975C10.8397 17.8927 10.8234 17.8933 10.8087 17.8991C10.794 17.9049 10.7818 17.9156 10.7741 17.9294C10.4901 18.4466 10.0032 18.8817 9.55029 19.2707C9.49646 19.3172 9.45166 19.3714 9.40513 19.4238C9.07451 19.6987 8.69341 19.9983 8.26185 20.3226C8.07199 20.4655 7.94269 20.6448 7.87392 20.8606C7.83618 20.9793 7.81778 21.1458 7.8187 21.36C7.81975 21.5958 7.78988 21.8566 7.82218 22.0945C7.82369 22.1055 7.82851 22.1157 7.83601 22.124C7.8435 22.1322 7.85332 22.138 7.8642 22.1407C8.34172 22.2567 8.72617 22.4925 8.9981 22.9165C9.427 23.5851 9.31275 24.5064 8.39347 24.6512C8.22723 24.6774 8.00335 24.6911 7.72181 24.6922C7.21407 24.6947 6.71015 24.6995 6.1913 24.6856C5.99821 24.6808 5.81947 24.6541 5.65508 24.6058C5.18972 24.4689 5.03587 24.0984 4.94383 23.6587C4.79705 22.9567 4.67978 22.2545 4.59203 21.552C4.58138 21.4654 4.57374 21.3111 4.56911 21.0891C4.56471 20.8823 4.56957 20.7276 4.58369 20.6248C4.62282 20.3372 4.69853 20.0586 4.81082 19.7888C4.9465 19.4622 5.05196 19.209 5.1272 19.0293C5.19435 18.8686 5.26392 18.6379 5.33592 18.3372C5.42159 17.9795 5.48653 17.6183 5.53075 17.2536C5.62151 16.5042 5.68715 15.8605 5.72767 15.3227C5.73045 15.2838 5.73566 15.2214 5.7433 15.1355C5.83267 14.1089 6.01129 13.1152 6.27917 12.1544C6.28 12.1514 6.28018 12.1483 6.27969 12.1452C6.2792 12.1422 6.27804 12.1393 6.27632 12.1368C6.27459 12.1342 6.27233 12.1321 6.2697 12.1306C6.26707 12.1291 6.26413 12.1282 6.26111 12.128C6.25231 12.1273 6.242 12.1302 6.2302 12.1366C6.02912 12.2467 5.77455 12.4374 5.58806 12.6142C4.97451 13.1958 4.56054 13.9115 4.34615 14.7615C4.27484 15.0439 4.22251 15.2882 4.18917 15.4942C4.15398 15.7116 4.1211 15.975 4.09054 16.2843C4.06693 16.5215 4.02456 16.7601 3.98809 16.9984C3.91493 17.476 3.8009 17.9489 3.64601 18.417C3.61915 18.4985 3.58975 18.576 3.5578 18.6494C3.44979 18.6647 3.4102 18.6164 3.32442 18.5834C3.2971 18.573 3.2685 18.5611 3.23864 18.5476C3.05596 18.4652 2.76945 18.3458 2.37909 18.1896C2.37423 18.1875 2.32168 18.1646 2.22142 18.1208C2.1691 18.0981 2.1155 18.0781 2.06063 18.0607C2.17361 17.7435 2.25013 17.5027 2.29019 17.3384C2.3909 16.924 2.45862 16.4392 2.53399 15.8367C2.60831 15.2405 2.71597 14.6854 2.85697 14.1714C3.09521 13.3035 3.46889 12.5332 4.07769 11.8671C4.4391 11.4717 4.8643 11.1013 5.35329 10.7558C5.70359 10.5085 6.07774 10.3215 6.47573 10.1946C7.11706 9.99016 7.70838 9.8561 8.24969 9.79243C8.77804 9.73038 9.1567 9.69693 9.38568 9.69206C9.908 9.68118 10.2409 9.67331 10.3845 9.66845C10.4051 9.66775 10.4257 9.66822 10.4463 9.66984C10.4488 9.6835 10.449 9.6967 10.4466 9.70943C10.2501 10.7309 10.2144 11.7537 10.3397 12.7777C10.4047 13.3091 10.5306 13.8314 10.7172 14.3447C10.8408 14.6855 10.9943 14.9754 11.1777 15.2143C11.3111 15.3883 11.5205 15.5005 11.7031 15.3366C11.783 15.2647 11.7865 15.1188 11.7761 15.0223C11.7539 14.8185 11.731 14.5958 11.7077 14.3541C11.6484 13.7473 11.6502 13.1104 11.7132 12.4436C11.7584 11.966 11.809 11.5766 11.865 11.2754C11.9942 10.5815 12.0786 10.2067 12.131 9.66289H13.6223C13.6063 9.78687 13.5702 9.9317 13.5546 10.0258C13.309 11.4962 13.4073 13.0472 13.9202 14.4479C14.023 14.7288 14.3658 15.5915 14.7985 15.38C14.9781 15.2925 14.942 15.0525 14.9222 14.8834C14.7856 13.7146 14.819 12.5453 15.0225 11.3754C15.0807 11.0415 15.1492 10.664 15.2281 10.2429C15.2413 10.1725 15.2551 10.0761 15.2695 9.95357C15.281 9.85587 15.2957 9.75944 15.3136 9.66428C15.5166 9.66312 15.717 9.66255 15.9147 9.66255C16.165 9.66255 16.4328 9.63777 16.718 9.58823C17.6001 9.43542 18.2767 8.95373 18.6135 8.10321C18.8695 7.4569 19.081 6.78594 19.3154 6.11046C19.4302 5.78007 19.5572 5.45929 19.6964 5.14812C19.7385 5.06245 19.7783 4.98061 19.8158 4.90258C20.04 4.43698 20.3419 4.0295 20.7216 3.68012C20.9932 3.4303 21.3031 3.24369 21.6513 3.12029C21.7453 3.08695 21.838 3.0528 21.9295 3.01784C22.4389 2.93796 22.8418 2.94838 23.4614 2.95984C23.7869 2.96609 24.1279 2.98566 24.4845 3.01853C24.7892 3.04678 25.0544 3.08741 25.2801 3.14043C25.4487 3.18026 25.6451 3.25261 25.8695 3.35749C26.4629 3.63509 26.9794 4.02128 27.4191 4.51605C27.6839 4.81403 27.8241 4.97193 27.8396 4.98975C28.4122 5.65169 29.0576 6.23074 29.7758 6.7269C29.8483 6.77691 29.9408 6.84915 30.0533 6.94361C30.1832 7.05301 30.4454 7.32736 30.4422 7.49997ZM25.6777 5.48916C25.5174 5.50346 25.3702 5.59024 25.2685 5.73042C25.1668 5.8706 25.1189 6.05269 25.1353 6.23663C25.1434 6.32771 25.1671 6.4165 25.2049 6.49794C25.2428 6.57938 25.2942 6.65186 25.356 6.71126C25.4179 6.77066 25.4891 6.8158 25.5655 6.84411C25.6419 6.87242 25.7221 6.88335 25.8015 6.87627C25.8808 6.86919 25.9578 6.84424 26.028 6.80284C26.0982 6.76144 26.1603 6.70441 26.2107 6.63499C26.261 6.56558 26.2987 6.48515 26.3216 6.39829C26.3444 6.31143 26.352 6.21984 26.3439 6.12876C26.3358 6.03768 26.3121 5.94889 26.2742 5.86745C26.2363 5.78601 26.185 5.71353 26.1231 5.65413C26.0613 5.59474 25.9901 5.54959 25.9137 5.52128C25.8372 5.49297 25.7571 5.48204 25.6777 5.48912M22.1014 10.8871C22.0974 10.8294 22.0779 10.7843 22.0427 10.7516C21.9031 10.6222 21.8175 10.543 21.786 10.5141C20.8952 9.69276 20.8022 8.33242 21.1015 7.23985C21.1786 6.95854 20.8924 6.72794 20.6705 6.97243C20.589 7.0618 20.5218 7.15673 20.4688 7.25721C19.7603 8.59845 20.1843 10.3314 21.6294 10.976C21.7117 11.0128 21.7909 11.0552 21.8788 11.0639C21.9937 11.075 22.11 11.0132 22.1014 10.8871ZM23.2801 10.1713C23.3146 10.088 23.2992 10.0054 23.2339 9.92371C23.1023 9.7584 22.8918 9.5653 22.7647 9.38888C22.5904 9.1474 22.4763 8.87142 22.4226 8.56094C22.4008 8.43453 22.3855 8.35291 22.3764 8.3161C22.317 8.07473 22.0045 8.08099 21.9166 8.29804C21.7572 8.69222 21.8704 9.18606 22.0798 9.54308C22.2671 9.86258 22.538 10.0867 22.8925 10.2154C22.9911 10.2509 23.229 10.2946 23.2801 10.1713Z" fill="var(--fill-0, #F99105)"/>
<path id="Vector_29" d="M26.3437 6.12863C26.3095 5.74559 26.0112 5.45921 25.6775 5.489C25.3437 5.51879 25.1009 5.85345 25.1351 6.2365C25.1692 6.61954 25.4675 6.90591 25.8013 6.87612C26.135 6.84634 26.3779 6.51167 26.3437 6.12863Z" fill="var(--fill-0, #1F1F1D)"/>
<path id="Vector_30" d="M22.1018 10.887C22.1105 11.013 21.9941 11.0748 21.8792 11.0637C21.7913 11.055 21.7121 11.0127 21.6298 10.9759C20.1847 10.3313 19.7607 8.59832 20.4692 7.25708C20.5222 7.1566 20.5894 7.06167 20.6709 6.9723C20.8928 6.72781 21.179 6.95841 21.1019 7.23972C20.8026 8.33229 20.8956 9.69263 21.7864 10.514C21.8179 10.5429 21.9035 10.6221 22.0431 10.7515C22.0783 10.7842 22.0978 10.8293 22.1018 10.887ZM30.4426 7.49984C30.4554 7.49775 30.4667 7.51269 30.4767 7.54464C30.4818 7.56038 30.4851 7.58018 30.4867 7.60402C30.521 8.10482 30.4604 8.5945 30.3048 9.07306C30.0901 9.07028 29.955 8.98763 29.8095 8.84593C29.5412 8.58454 29.2704 8.32581 28.9972 8.06974C28.8573 7.93846 28.7708 7.79781 28.8604 7.61479C28.9261 7.53676 29.0159 7.50099 29.1295 7.50748C29.5655 7.53225 30.0032 7.5297 30.4426 7.49984Z" fill="var(--fill-0, #1F1F1D)"/>
<path id="Vector_31" d="M28.8598 7.61519C28.7702 7.79821 28.8567 7.93887 28.9967 8.07014C29.2699 8.32621 29.5406 8.58494 29.809 8.84634C29.9545 8.98803 30.0896 9.07069 30.3042 9.07346C30.2297 9.41242 30.12 9.74142 29.9753 10.0605C29.932 10.1556 29.8912 10.2324 29.8527 10.2907C29.7965 10.3765 29.7308 10.5008 29.6638 10.5821C29.3624 10.947 28.9906 11.1873 28.5486 11.3031C28.3956 11.3431 28.1726 11.3647 27.8798 11.3677C27.7036 11.3695 27.4225 11.3685 27.0365 11.3645C26.8993 11.3631 26.7882 11.3554 26.7035 11.3413C26.5766 11.266 26.4845 11.2027 26.4271 11.1513C26.1145 10.8712 25.9235 10.5281 25.854 10.1223C25.6404 8.87169 26.5121 7.74299 27.761 7.58637C28.1157 7.54191 28.482 7.55152 28.8598 7.61519Z" fill="var(--fill-0, #FFF5E2)"/>
<path id="Vector_32" d="M23.2801 10.1712C23.229 10.2945 22.9911 10.2507 22.8925 10.2153C22.538 10.0866 22.2671 9.86244 22.0798 9.54293C21.8704 9.18592 21.7572 8.69207 21.9166 8.2979C22.0045 8.08084 22.317 8.07459 22.3764 8.31596C22.3854 8.35277 22.4008 8.43438 22.4226 8.5608C22.4763 8.87127 22.5903 9.14725 22.7647 9.38874C22.8918 9.56516 23.1022 9.75825 23.2339 9.92356C23.2992 10.0053 23.3146 10.0878 23.2801 10.1712ZM12.131 9.66275C12.0786 10.2066 11.9942 10.5813 11.865 11.2752C11.8089 11.5764 11.7584 11.9659 11.7132 12.4435C11.6502 13.1103 11.6484 13.7471 11.7077 14.3539C11.731 14.5957 11.7538 14.8184 11.7761 15.0221C11.7865 15.1187 11.783 15.2645 11.7031 15.3364C11.5205 15.5004 11.311 15.3882 11.1777 15.2142C10.9943 14.9752 10.8408 14.6854 10.7172 14.3446C10.5306 13.8313 10.4047 13.3089 10.3397 12.7776C10.2144 11.7536 10.2501 10.7308 10.4466 9.70928C10.449 9.69655 10.4488 9.68335 10.4463 9.66969L12.131 9.66275ZM15.3136 9.66414C15.2957 9.75929 15.281 9.85572 15.2695 9.95343C15.2551 10.0759 15.2413 10.1723 15.2281 10.2427C15.1492 10.6639 15.0807 11.0414 15.0225 11.3752C14.819 12.5451 14.7856 13.7145 14.9222 14.8832C14.942 15.0523 14.9781 15.2923 14.7985 15.3798C14.3658 15.5913 14.023 14.7287 13.9202 14.4477C13.4073 13.0471 13.309 11.4961 13.5545 10.0257C13.5702 9.93155 13.6063 9.78673 13.6223 9.66275L15.3136 9.66414Z" fill="var(--fill-0, #1F1F1D)"/>
<path id="Vector_33" d="M26.3848 11.3351L25.908 11.3459C25.9055 11.3459 25.9031 11.3464 25.9008 11.3474C25.8985 11.3484 25.8965 11.3498 25.8948 11.3516C25.8931 11.3534 25.8917 11.3555 25.8908 11.3578C25.8899 11.3601 25.8895 11.3625 25.8896 11.365C25.8953 11.7224 25.8909 12.0815 25.8764 12.4423C25.8444 13.235 25.7929 13.9896 25.7218 14.7059C25.6938 14.9877 25.6471 15.3075 25.5819 15.6655C25.5916 15.6368 25.5857 15.6363 25.5641 15.6641C25.5511 15.6806 25.5413 15.6996 25.5353 15.72C25.5122 15.8003 25.4923 15.8608 25.4756 15.9013C24.9182 17.2696 23.7315 18.3059 22.2361 18.4643C22.1261 18.4758 22.0156 18.4877 21.9047 18.4997C22.1499 17.4731 22.4351 16.3048 22.6743 15.4345C22.8765 14.699 23.1241 13.9538 23.4172 13.199C23.7638 12.3061 24.3219 11.4931 25.3346 11.3664C25.6182 11.3309 25.9683 11.3205 26.3848 11.3351Z" fill="var(--fill-0, #FFF5E2)"/>
<path id="Vector_34" d="M25.5816 15.6652C25.5276 16.0748 25.499 16.3525 25.4958 16.4984C25.4898 16.7563 25.4893 17.5356 25.4944 18.8363C25.4965 19.4201 25.5219 19.8494 25.5347 20.4235C25.5447 20.8812 25.581 21.429 25.6438 22.0668C25.6451 22.0785 25.6504 22.0894 25.6587 22.0977C25.6844 22.123 25.7219 22.1371 25.7712 22.1401C26.4147 22.1794 26.96 22.6093 27.2027 23.1966C27.4024 23.679 27.3215 24.2836 26.8252 24.543C26.7069 24.6048 26.5487 24.644 26.3505 24.6604C26.1495 24.6768 25.8526 24.6851 25.4597 24.6851C24.8325 24.6851 24.1837 24.6996 23.7 24.6521C23.0241 24.5861 22.6984 24.1311 22.5327 23.5119C22.4093 23.0502 22.2892 22.5248 22.1722 21.9356C22.0058 21.0981 21.8396 20.2529 21.6739 19.4L21.9045 18.4995C22.0154 18.4874 22.1258 18.4756 22.2358 18.464C23.7312 18.3057 24.9179 17.2694 25.4753 15.901C25.492 15.8605 25.5119 15.8001 25.535 15.7198C25.541 15.6993 25.5508 15.6804 25.5639 15.6638C25.5854 15.6361 25.5913 15.6365 25.5816 15.6652Z" fill="var(--fill-0, #F28504)"/>
<path id="Vector_35" d="M13.8648 18.5942C13.6592 19.1578 13.3067 19.61 12.8635 20.0563C12.6302 20.2914 12.4371 20.498 12.3256 20.7936C12.2867 20.8964 12.2639 21.033 12.2572 21.2034C12.2463 21.4726 12.2613 21.7124 12.3023 21.9226C12.3395 22.1133 12.4173 22.1341 12.61 22.1553C13.0282 22.2009 13.3905 22.3772 13.697 22.6842C14.0061 22.9936 14.2159 23.4726 14.1232 23.9178C14.0417 24.3088 13.7924 24.5523 13.3754 24.6481C13.3502 24.6539 13.2643 24.6636 13.1178 24.6773C13.0228 24.6863 12.9366 24.6912 12.859 24.6919C12.4527 24.6954 12.1024 24.6972 11.8081 24.6975C11.4259 24.6975 11.1368 24.6852 10.9409 24.6606C10.3551 24.5874 10.1231 24.229 9.96505 23.7073C9.69347 22.8115 9.48232 22.0362 9.33159 21.3812C9.27221 21.1214 9.23401 20.8481 9.23609 20.5762C9.2391 20.1879 9.29548 19.8039 9.40522 19.4242C9.45176 19.3718 9.49656 19.3176 9.55039 19.271C10.0033 18.8821 10.4902 18.4469 10.7742 17.9298C10.7819 17.916 10.7941 17.9053 10.8088 17.8994C10.8235 17.8936 10.8398 17.8931 10.8548 17.8979C11.6341 18.1493 12.4447 18.3615 13.2608 18.4962C13.4627 18.5296 13.664 18.5622 13.8648 18.5942Z" fill="var(--fill-0, #E76E04)"/>
<path id="Vector_36" d="M3.55803 18.6491C3.23471 19.5517 2.67105 20.3029 1.91327 20.8763C1.54792 21.1524 0.9669 21.4298 0.516465 21.2177C0.0642925 21.0044 -0.0669834 20.4369 0.211891 20.0205C0.401164 19.7389 0.770681 19.5576 0.976972 19.4201C1.37601 19.1544 1.70038 18.7984 1.91327 18.3605C1.96189 18.2602 2.01109 18.1602 2.06086 18.0604C2.11574 18.0778 2.16933 18.0978 2.22166 18.1205C2.32191 18.1643 2.37447 18.1872 2.37933 18.1893C2.76968 18.3456 3.0562 18.4649 3.23887 18.5473C3.26874 18.5608 3.29733 18.5727 3.32465 18.5831C3.41043 18.6161 3.45003 18.6644 3.55803 18.6491Z" fill="var(--fill-0, #E76E04)"/>
</g>
<defs>
<clipPath id="clip0_270_3516">
<rect width="30.5616" height="24.7639" fill="white"/>
</clipPath>
</defs>
</svg>
