<svg preserveAspectRatio="none" width="100%" height="100%" overflow="visible" style="display: block;" viewBox="0 0 29 30.0357" fill="none" xmlns="http://www.w3.org/2000/svg">
<g id="made-with-blunge 5" clip-path="url(#clip0_270_3555)">
<g id="Group">
<path id="Vector" d="M20.8066 3.69058C20.7697 3.69217 20.7268 3.68234 20.678 3.6611C20.665 3.65554 20.6515 3.65166 20.6377 3.64955C20.4473 3.62086 20.2701 3.5639 20.0749 3.52685C19.9036 3.49445 19.7049 3.47228 19.4789 3.46033C19.4768 3.46026 19.4746 3.46065 19.4726 3.46149C19.4706 3.46232 19.4688 3.46357 19.4674 3.46516C19.4659 3.46674 19.4648 3.46863 19.4641 3.47068C19.4634 3.47273 19.4632 3.47491 19.4634 3.47706C19.5052 3.8061 19.2686 4.12358 18.9364 4.1674C18.8023 4.1852 18.6752 4.13965 18.5552 4.03077C18.4376 3.92441 18.36 3.74714 18.2516 3.6125C18.2447 3.60375 18.2387 3.59442 18.2337 3.58461C18.1891 3.49618 18.1289 3.43085 18.0532 3.38863M25.8291 6.54118C25.8423 6.70265 25.8204 6.85787 25.7633 7.00685M25.6737 7.12835C25.6615 7.14057 25.6568 7.14906 25.6598 7.15384" stroke="var(--stroke-0, #9891C9)" stroke-width="0.0796703"/>
<path id="Vector_2" d="M25.6598 7.15397C25.6351 7.12981 25.6067 7.1225 25.5746 7.13206C25.4373 7.1727 25.2777 7.1958 25.0957 7.20138C24.8716 7.20828 24.6071 7.212 24.3022 7.21253C24.2409 7.21253 24.1879 7.22661 24.1433 7.25476C24.1326 7.26156 24.1238 7.27088 24.1178 7.28184C24.0317 7.43919 23.9728 7.51926 23.7963 7.60371C23.5687 7.71259 23.3152 7.76677 23.0359 7.76624C22.6483 7.76544 22.4399 7.71406 22.0097 7.6069C21.7958 7.55352 21.6253 7.77899 21.8149 7.94351C21.8447 7.96953 21.9227 8.00047 22.0491 8.03632C22.847 8.26179 23.733 8.22116 24.3707 7.67024C24.3818 7.66024 24.3948 7.6524 24.409 7.64713C24.4788 7.62058 24.535 7.60623 24.5775 7.60411C24.77 7.59375 24.9604 7.58459 25.1487 7.57662C25.2638 7.57184 25.4053 7.54197 25.5339 7.52803" stroke="var(--stroke-0, #266772)" stroke-width="0.0796703"/>
<path id="Vector_3" d="M25.534 7.52783L25.5942 7.63259M24.9739 8.70814C24.8457 8.82207 24.7044 8.89829 24.5501 8.9368M24.2079 9.01687L23.7267 9.0328" stroke="var(--stroke-0, #9891C9)" stroke-width="0.0796703"/>
<path id="Vector_4" d="M19.8499 8.91221C19.7145 8.88512 19.4881 8.86188 19.1707 8.8425C18.7289 8.81541 17.8048 8.48956 17.6518 7.93346C17.5697 7.6343 17.6195 7.30645 17.8561 7.09931C17.9475 7.01937 18.062 6.94302 18.1995 6.87026C18.3362 6.79816 18.3593 6.62129 18.233 6.52688C18.0641 6.4002 17.8271 6.60097 17.7012 6.70733C17.5145 6.86481 17.3812 7.03996 17.3012 7.23276C17.1613 7.57029 17.1742 7.90039 17.3399 8.22306" stroke="var(--stroke-0, #266772)" stroke-width="0.0796703"/>
<path id="Vector_5" d="M17.3403 8.22293C17.3079 8.41839 17.2914 8.55224 17.2909 8.62447C17.2864 9.16862 17.4183 9.66377 17.6868 10.1099C17.9293 10.5123 18.2169 10.8592 18.5497 11.1508C19.1269 11.6563 19.8128 12.0674 20.4749 12.4279C20.7668 12.587 21.1881 12.8092 21.7389 13.0944C22.6857 13.5851 23.5159 14.1508 24.2094 14.8678C24.3961 15.0609 24.6231 15.3375 24.8902 15.6976C25.0923 15.9701 25.2736 16.2752 25.434 16.613C25.7874 17.3574 26.0051 18.123 26.0869 18.9099C26.1 19.0374 26.0972 19.1637 26.1104 19.2736C26.1213 19.3636 26.1278 19.4546 26.1299 19.5465C26.1368 19.8354 26.1221 20.154 26.0857 20.5021C25.9232 22.0525 25.185 23.5631 23.9537 24.533C23.0656 25.2325 22.0671 25.6317 20.9581 25.7305C20.3873 25.7811 19.7344 25.7699 19.1368 25.6429C18.8912 25.5908 18.7296 25.5514 18.652 25.5245C18.1836 25.3631 17.8127 25.1992 17.5394 25.033C17.1913 24.8213 16.8889 24.6025 16.6324 24.3765C15.9847 23.8061 15.4091 23.1081 14.9055 22.2828C14.8214 22.1449 14.6348 21.7948 14.3459 21.2323C13.9097 20.3834 13.4241 19.5513 12.7516 18.9633C12.459 18.7073 12.1069 18.5198 11.6952 18.4008C11.2839 18.2818 10.8874 18.2651 10.5057 18.3506C10.1034 18.4412 9.74502 18.6214 9.43059 18.8912C8.86175 19.3796 8.55887 19.9823 8.52195 20.6993C8.48769 21.3614 8.68488 22.0266 8.9701 22.6887C9.06198 22.9022 9.20101 23.2158 9.38717 23.6296C9.53137 23.9499 9.6461 24.2829 9.74011 24.586C9.93876 25.2271 10.0097 25.8858 9.95283 26.5622C9.89653 27.2325 9.63641 27.8156 9.17246 28.3114C8.51916 29.0097 7.66789 29.4622 6.73495 29.6594C6.49487 29.7102 6.14459 29.7577 5.68409 29.802" stroke="var(--stroke-0, #98BF72)" stroke-width="0.0796703"/>
<path id="Vector_6" d="M1.614 16.3822C1.61772 16.3808 1.62117 16.3795 1.62435 16.3782C1.62721 16.3769 1.6297 16.3747 1.63153 16.3718C1.79857 16.1126 1.97929 15.8424 2.17368 15.5612C2.39158 15.2469 2.55331 14.9712 2.77041 14.6728C2.82751 14.5942 2.90014 14.5571 2.98831 14.5613C3.00166 14.5618 3.01451 14.5672 3.02456 14.5764C3.14327 14.6856 3.13132 14.8728 3.11299 15.0278C3.08192 15.2899 3.06798 15.4911 3.01819 15.7265C2.9518 16.0383 2.8781 16.3499 2.7971 16.6614M6.46512 16.622C6.47362 16.6278 6.48398 16.6285 6.4962 16.624C6.50012 16.6224 6.50366 16.6199 6.50655 16.6168C7.33433 15.7034 8.37363 15.0393 9.57585 14.7433C9.89692 14.6645 10.2481 14.6161 10.6295 14.5983C11.0244 14.58 11.3784 14.5906 11.6915 14.6302C12.8717 14.7792 13.9237 15.2374 14.8476 16.0049C15.0463 16.1698 15.3607 16.467 15.7909 16.8964" stroke="var(--stroke-0, #9891C9)" stroke-width="0.0796703"/>
<path id="Vector_7" d="M19.6442 9.17579C19.0677 9.24988 18.5179 9.14246 17.995 8.85352C17.7263 8.7048 17.5078 8.49461 17.3397 8.22293" stroke="var(--stroke-0, #8E711A)" stroke-width="0.0796703"/>
<path id="Vector_8" d="M25.6597 7.15358C25.6642 7.28636 25.6222 7.41105 25.5338 7.52763" stroke="var(--stroke-0, #8E4371)" stroke-width="0.0796703"/>
<path id="Vector_9" d="M20.1611 10.3011C19.8711 10.4896 19.5724 10.6528 19.2648 10.7906C19.1413 10.8456 19.0477 10.9571 19.1258 11.091C19.2234 11.2583 19.5939 11.032 19.7142 10.9747C19.9646 10.8546 20.2022 10.7128 20.4268 10.5492M23.0416 12.0044L22.3481 12.4187C22.3107 12.441 22.283 12.4767 22.2705 12.5187C22.258 12.5606 22.2615 12.6059 22.2804 12.6458L22.2831 12.6513C22.2923 12.6708 22.3052 12.6882 22.3212 12.7026C22.3371 12.717 22.3558 12.7281 22.376 12.7353C22.3963 12.7425 22.4177 12.7456 22.4392 12.7445C22.4607 12.7433 22.4817 12.7379 22.501 12.7286C22.7238 12.6221 22.9228 12.516 23.0978 12.4103C23.1971 12.3503 23.2681 12.2985 23.3109 12.255C23.3414 12.2236 23.3329 12.1814 23.2854 12.1283M26.1221 14.1599C25.7861 14.3067 25.4414 14.4406 25.0879 14.5614C24.7971 14.661 24.9131 15.0287 25.2309 14.9028C25.3682 14.8484 25.5535 14.7783 25.7866 14.6925C26.0126 14.6091 26.1989 14.5136 26.3455 14.4061M27.9425 17.2702L26.6499 17.4331C26.6027 17.4391 26.5596 17.4633 26.5296 17.5007C26.4997 17.5381 26.4851 17.5858 26.4889 17.6339L26.4893 17.6411C26.4911 17.6641 26.4975 17.6865 26.5081 17.707C26.5186 17.7275 26.5332 17.7458 26.5508 17.7606C26.5685 17.7755 26.589 17.7867 26.611 17.7936C26.6331 17.8005 26.6563 17.803 26.6793 17.8008C27.1074 17.7607 27.4992 17.7095 27.8545 17.6471C27.9113 17.6372 27.9745 17.6174 28.0441 17.5877M28.3194 20.8916L26.908 20.6176C26.8607 20.6084 26.8118 20.6172 26.771 20.6424C26.7302 20.6677 26.7006 20.7073 26.6881 20.7534L26.6865 20.7606C26.6805 20.7828 26.679 20.8061 26.682 20.8289C26.6851 20.8518 26.6927 20.8738 26.7044 20.8937C26.7161 20.9136 26.7316 20.931 26.7501 20.9448C26.7686 20.9586 26.7896 20.9685 26.812 20.9741C27.3017 21.0949 27.7881 21.1857 28.2712 21.2466M27.188 24.1828C26.8181 23.9483 26.4421 23.7247 26.0599 23.512C25.9185 23.4335 25.7655 23.3463 25.6751 23.5498C25.6241 23.6646 25.7157 23.7398 25.8109 23.7944C26.3386 24.0961 26.7331 24.3143 26.9944 24.4489M24.3713 26.7904C24.3955 26.7546 24.4006 26.7232 24.3868 26.6964C24.3385 26.6032 24.1383 26.2499 23.7861 25.6364C23.7508 25.5751 23.7091 25.5324 23.661 25.5085C23.5555 25.4563 23.4208 25.5277 23.4101 25.6464C23.405 25.7003 23.4153 25.7498 23.4408 25.7949C23.658 26.1805 23.8846 26.5573 24.1207 26.9251M20.244 27.6094L20.2332 26.4196C20.2328 26.3673 20.2128 26.3171 20.1772 26.2788C20.1416 26.2405 20.093 26.2168 20.0408 26.2124L20.0329 26.212C20.0085 26.2099 19.9839 26.213 19.9608 26.2209C19.9377 26.2288 19.9165 26.2415 19.8987 26.258C19.8809 26.2745 19.8668 26.2946 19.8574 26.3169C19.848 26.3392 19.8434 26.3632 19.844 26.3873L19.8731 27.5708M16.5047 26.2351C16.6321 26.0333 16.7802 25.7794 16.9488 25.4735C17.0129 25.3568 16.9922 25.2157 16.8588 25.1743C16.7616 25.1444 16.664 25.2345 16.6178 25.3121C16.4805 25.5413 16.3485 25.7806 16.2218 26.03M14.2599 23.9084C14.3104 23.8773 14.3566 23.8442 14.3986 23.8092C14.5377 23.6934 14.7127 23.5308 14.9236 23.3216C14.9579 23.2875 14.9779 23.2416 14.9795 23.1933C14.9811 23.1449 14.9643 23.0978 14.9324 23.0615L14.9272 23.0555C14.9113 23.0375 14.8918 23.0229 14.8701 23.0126C14.8484 23.0023 14.8248 22.9965 14.8008 22.9956C14.7768 22.9947 14.7529 22.9987 14.7305 23.0074C14.7082 23.016 14.6878 23.0291 14.6706 23.0459L14.0855 23.6195M10.3465 19.8989C10.2135 19.7417 10.0437 19.6149 9.83704 19.5185C9.76614 19.4853 9.70173 19.474 9.64384 19.4847C9.51358 19.5082 9.45383 19.6611 9.53629 19.7671C9.55461 19.7907 9.58821 19.8154 9.63707 19.8412L10.0812 20.075C10.1155 20.0931 10.1552 20.0814 10.2003 20.04M10.1227 21.7298C9.87754 21.7462 9.638 21.7647 9.40403 21.7851C9.24111 21.7995 9.15108 21.9218 9.22557 22.0727C9.25863 22.1389 9.34109 22.1564 9.4112 22.1556C9.68739 22.1516 9.96106 22.1179 10.2322 22.0544M11.2006 23.9888C10.9303 24.0611 10.6642 24.1243 10.4023 24.1784C10.3354 24.1925 10.293 24.2131 10.2752 24.2402C10.2157 24.3321 10.2179 24.4116 10.2816 24.4788C10.3553 24.5565 10.4688 24.5473 10.5772 24.5294C10.8688 24.4818 11.1272 24.4172 11.3524 24.3354M11.2436 27.8146C10.9781 27.6991 10.7138 27.5875 10.4509 27.48C10.3868 27.4537 10.2238 27.4166 10.182 27.5035C10.1151 27.644 10.1515 27.7475 10.2912 27.8142C10.5413 27.934 10.7971 28.0285 11.0584 28.0978" stroke="var(--stroke-0, #8E711A)" stroke-width="0.0796703"/>
<path id="Vector_10" d="M16.3816 3.95449C15.8011 4.22962 15.3 4.59278 14.8782 5.04398C14.5285 5.41817 14.2538 5.83166 14.0541 6.28445C13.8578 6.73007 13.7354 7.21141 13.6868 7.72847C13.6525 8.09071 13.6501 8.41882 13.6796 8.7128C13.7168 9.08592 13.7691 9.39797 13.8366 9.64893C14.0668 10.5059 14.4555 11.2915 15.0025 12.0056C15.0559 12.0754 15.1077 12.132 15.1579 12.1753C15.1659 12.182 15.1711 12.1915 15.1726 12.202L15.175 12.2183" stroke="var(--stroke-0, #9891C9)" stroke-width="0.0796703"/>
<path id="Vector_11" d="M21.3558 5.64329C21.3551 5.59909 21.3457 5.55545 21.3282 5.51488C21.3106 5.47431 21.2852 5.43759 21.2535 5.40682C21.2217 5.37606 21.1842 5.35185 21.1431 5.33557C21.102 5.3193 21.0581 5.31128 21.0139 5.31198L20.9693 5.3127C20.8801 5.3141 20.795 5.3509 20.7329 5.41501C20.6708 5.47911 20.6366 5.56526 20.638 5.65452L20.6454 6.12294C20.6461 6.16714 20.6555 6.21077 20.673 6.25134C20.6906 6.29191 20.7159 6.32862 20.7477 6.35938C20.7794 6.39014 20.8169 6.41435 20.858 6.43062C20.8991 6.44689 20.943 6.45491 20.9872 6.45421L21.0318 6.45349C21.1211 6.45209 21.2061 6.41529 21.2683 6.35118C21.3304 6.28708 21.3645 6.20093 21.3631 6.11167L21.3558 5.64325" stroke="var(--stroke-0, #266772)" stroke-width="0.0796703"/>
<path id="Vector_12" d="M15.433 8.40744C15.4055 8.39122 15.3749 8.38074 15.3431 8.37661C15.3112 8.37247 15.2787 8.37476 15.2475 8.38334C15.2162 8.39191 15.1867 8.40662 15.1607 8.4266C15.1348 8.44659 15.1128 8.47147 15.0961 8.49982C15.0624 8.55708 15.0522 8.62501 15.0676 8.68866C15.0831 8.7523 15.1231 8.80646 15.1787 8.83922C15.2343 8.87198 15.301 8.88066 15.3642 8.86334C15.4274 8.84603 15.4818 8.80414 15.5156 8.74688C15.5493 8.68962 15.5595 8.6217 15.544 8.55805C15.5286 8.4944 15.4886 8.44024 15.433 8.40748M16.9441 22.7911C16.9178 22.809 16.8954 22.832 16.8781 22.859C16.8609 22.886 16.8492 22.9164 16.8438 22.9484C16.8383 22.9804 16.8391 23.0135 16.8462 23.0457C16.8533 23.0779 16.8666 23.1086 16.8852 23.1361C16.9227 23.1915 16.9799 23.2304 17.044 23.2441C17.1082 23.2579 17.1741 23.2454 17.2273 23.2094C17.2805 23.1733 17.3166 23.1168 17.3276 23.0521C17.3387 22.9874 17.3238 22.9199 17.2863 22.8645C17.2677 22.837 17.2441 22.8133 17.2168 22.7948C17.1895 22.7762 17.1591 22.7632 17.1274 22.7564C17.0956 22.7496 17.063 22.7491 17.0316 22.7551C17.0001 22.7611 16.9704 22.7733 16.9441 22.7912M16.5419 10.018C16.5419 9.95258 16.516 9.88986 16.4697 9.84362C16.4235 9.79738 16.3607 9.7714 16.2954 9.7714C16.263 9.7714 16.2309 9.77778 16.201 9.79017C16.1711 9.80256 16.1439 9.82073 16.121 9.84362C16.0981 9.86652 16.0799 9.8937 16.0675 9.92362C16.0552 9.95353 16.0488 9.9856 16.0488 10.018C16.0488 10.0504 16.0552 10.0824 16.0675 10.1123C16.0799 10.1423 16.0981 10.1694 16.121 10.1923C16.1439 10.2152 16.1711 10.2334 16.201 10.2458C16.2309 10.2582 16.263 10.2646 16.2954 10.2646C16.3607 10.2646 16.4235 10.2386 16.4697 10.1923C16.516 10.1461 16.5419 10.0834 16.5419 10.018ZM15.3106 10.0984C15.3106 10.0332 15.2847 9.97054 15.2385 9.92437C15.1924 9.8782 15.1297 9.85227 15.0644 9.85227C14.9992 9.85227 14.9365 9.8782 14.8904 9.92437C14.8442 9.97054 14.8183 10.0332 14.8183 10.0984C14.8183 10.1637 14.8442 10.2264 14.8904 10.2725C14.9365 10.3187 14.9992 10.3446 15.0644 10.3446C15.1297 10.3446 15.1924 10.3187 15.2385 10.2725C15.2847 10.2264 15.3106 10.1637 15.3106 10.0984ZM21.9859 15.4575C21.9383 15.5009 21.9104 15.562 21.9083 15.6273C21.9063 15.6927 21.9302 15.7568 21.9749 15.8058C21.997 15.83 22.0235 15.8497 22.053 15.8639C22.0824 15.878 22.1142 15.8863 22.1465 15.8882C22.1788 15.8901 22.211 15.8856 22.2412 15.875C22.2715 15.8644 22.2992 15.8479 22.3227 15.8263C22.3703 15.7829 22.3982 15.7218 22.4003 15.6565C22.4024 15.5912 22.3784 15.527 22.3338 15.4781C22.3116 15.4538 22.2851 15.4341 22.2557 15.4199C22.2262 15.4058 22.1944 15.3975 22.1621 15.3956C22.1298 15.3937 22.0976 15.3982 22.0674 15.4088C22.0371 15.4194 22.0094 15.436 21.9859 15.4575ZM10.2488 15.871C10.2488 15.8065 10.2232 15.7447 10.1776 15.6991C10.132 15.6536 10.0702 15.628 10.0058 15.628C9.94133 15.628 9.87953 15.6536 9.83395 15.6991C9.78838 15.7447 9.76278 15.8065 9.76278 15.871C9.76278 15.9354 9.78838 15.9972 9.83395 16.0428C9.87953 16.0884 9.94133 16.114 10.0058 16.114C10.0702 16.114 10.132 16.0884 10.1776 16.0428C10.2232 15.9972 10.2488 15.9354 10.2488 15.871ZM11.4639 15.7868C11.4316 15.7919 11.4006 15.8034 11.3728 15.8209C11.3449 15.8383 11.3207 15.8612 11.3016 15.8883C11.2824 15.9154 11.2687 15.9462 11.2611 15.9789C11.2536 16.0115 11.2524 16.0455 11.2576 16.0788C11.2628 16.1121 11.2743 16.144 11.2915 16.1728C11.3087 16.2017 11.3312 16.2268 11.3577 16.2467C11.3842 16.2667 11.4143 16.2811 11.4461 16.2892C11.4779 16.2972 11.511 16.2988 11.5433 16.2937C11.5756 16.2887 11.6065 16.2771 11.6344 16.2597C11.6622 16.2423 11.6864 16.2194 11.7056 16.1923C11.7247 16.1651 11.7385 16.1344 11.746 16.1017C11.7536 16.069 11.7548 16.035 11.7496 16.0017C11.739 15.9345 11.703 15.8741 11.6494 15.8338C11.5959 15.7935 11.5291 15.7766 11.4639 15.7868ZM23.7617 16.1645C23.7617 16.1004 23.7362 16.0389 23.6908 15.9936C23.6455 15.9482 23.584 15.9227 23.5199 15.9227C23.4557 15.9227 23.3942 15.9482 23.3489 15.9936C23.3035 16.0389 23.2781 16.1004 23.2781 16.1645C23.2781 16.1963 23.2843 16.2277 23.2965 16.2571C23.3086 16.2864 23.3264 16.3131 23.3489 16.3355C23.3713 16.358 23.398 16.3758 23.4273 16.3879C23.4567 16.4001 23.4881 16.4063 23.5199 16.4063C23.5516 16.4063 23.5831 16.4001 23.6124 16.3879C23.6417 16.3758 23.6684 16.358 23.6908 16.3355C23.7133 16.3131 23.7311 16.2864 23.7433 16.2571C23.7554 16.2277 23.7617 16.1963 23.7617 16.1645ZM10.6284 16.9848C10.6284 16.9173 10.6016 16.8527 10.554 16.805C10.5063 16.7574 10.4417 16.7306 10.3743 16.7306C10.3068 16.7306 10.2422 16.7574 10.1945 16.805C10.1469 16.8527 10.1201 16.9173 10.1201 16.9848C10.1201 17.0522 10.1469 17.1168 10.1945 17.1645C10.2422 17.2121 10.3068 17.2389 10.3743 17.2389C10.4417 17.2389 10.5063 17.2121 10.554 17.1645C10.6016 17.1168 10.6284 17.0522 10.6284 16.9848ZM23.6131 17.413C23.6131 17.3467 23.5868 17.2832 23.5399 17.2364C23.4931 17.1895 23.4295 17.1632 23.3633 17.1632C23.2971 17.1632 23.2335 17.1895 23.1867 17.2364C23.1399 17.2832 23.1135 17.3467 23.1135 17.413C23.1135 17.4792 23.1399 17.5428 23.1867 17.5896C23.2335 17.6364 23.2971 17.6627 23.3633 17.6627C23.4295 17.6627 23.4931 17.6364 23.5399 17.5896C23.5868 17.5428 23.6131 17.4792 23.6131 17.413ZM18.4895 22.9708C18.4895 22.9059 18.4637 22.8437 18.4178 22.7978C18.372 22.752 18.3098 22.7262 18.2449 22.7262C18.18 22.7262 18.1178 22.752 18.0719 22.7978C18.0261 22.8437 18.0003 22.9059 18.0003 22.9708C18.0003 23.0357 18.0261 23.0979 18.0719 23.1437C18.1178 23.1896 18.18 23.2154 18.2449 23.2154C18.3098 23.2154 18.372 23.1896 18.4178 23.1437C18.4637 23.0979 18.4895 23.0357 18.4895 22.9708ZM18.2421 24.0637C18.1986 24.1097 18.1759 24.1718 18.1791 24.2364C18.1823 24.301 18.211 24.3627 18.259 24.4081C18.2827 24.4306 18.3105 24.4483 18.3407 24.4604C18.3709 24.4724 18.4029 24.4785 18.4349 24.4783C18.4669 24.4781 18.4983 24.4716 18.5273 24.4591C18.5563 24.4467 18.5823 24.4286 18.6038 24.4058C18.6473 24.3598 18.67 24.2977 18.6668 24.2331C18.6636 24.1685 18.6349 24.1068 18.5869 24.0614C18.5632 24.0389 18.5354 24.0212 18.5052 24.0091C18.475 23.9971 18.443 23.991 18.411 23.9912C18.3789 23.9914 18.3475 23.9979 18.3186 24.0104C18.2896 24.0228 18.2636 24.0409 18.2421 24.0637ZM8.67489 25.5346C8.67489 25.4691 8.64886 25.4063 8.60255 25.3599C8.55623 25.3136 8.49341 25.2876 8.42791 25.2876C8.3624 25.2876 8.29958 25.3136 8.25327 25.3599C8.20695 25.4063 8.18093 25.4691 8.18093 25.5346C8.18093 25.6001 8.20695 25.6629 8.25327 25.7092C8.29958 25.7555 8.3624 25.7816 8.42791 25.7816C8.49341 25.7816 8.55623 25.7555 8.60255 25.7092C8.64886 25.6629 8.67489 25.6001 8.67489 25.5346ZM7.79572 26.7432C7.79572 26.6781 7.76987 26.6157 7.72385 26.5697C7.67783 26.5236 7.61542 26.4978 7.55034 26.4978C7.51811 26.4978 7.4862 26.5041 7.45643 26.5165C7.42666 26.5288 7.39961 26.5469 7.37682 26.5697C7.35404 26.5924 7.33596 26.6195 7.32363 26.6493C7.3113 26.679 7.30495 26.7109 7.30495 26.7432C7.30495 26.8083 7.33081 26.8707 7.37682 26.9167C7.42284 26.9627 7.48526 26.9886 7.55034 26.9886C7.61542 26.9886 7.67783 26.9627 7.72385 26.9167C7.76987 26.8707 7.79572 26.8083 7.79572 26.7432ZM8.44735 26.756C8.40574 26.8037 8.3857 26.8667 8.39163 26.9313C8.39757 26.9959 8.42898 27.0566 8.47898 27.1003C8.52898 27.1439 8.59345 27.1667 8.65822 27.1639C8.72299 27.161 8.78275 27.1326 8.82435 27.0849C8.86595 27.0372 8.88599 26.9741 8.88006 26.9096C8.87413 26.845 8.84271 26.7842 8.79272 26.7406C8.74272 26.697 8.67824 26.6741 8.61347 26.677C8.5487 26.6799 8.48894 26.7083 8.44735 26.756Z" stroke="var(--stroke-0, #9891C9)" stroke-width="0.0796703"/>
</g>
<path id="Vector_13" d="M20.8068 3.68983C20.7699 3.69143 20.727 3.6816 20.6781 3.66036C20.6652 3.6548 20.6517 3.65092 20.6379 3.6488C20.4475 3.62012 20.2702 3.56316 20.075 3.52611C19.9037 3.49371 19.7051 3.47154 19.4791 3.45959C19.4769 3.45952 19.4748 3.45991 19.4728 3.46075C19.4708 3.46158 19.469 3.46283 19.4675 3.46442C19.466 3.466 19.4649 3.46789 19.4642 3.46994C19.4636 3.47199 19.4633 3.47417 19.4636 3.47632C19.5054 3.80536 19.2688 4.12284 18.9365 4.16666C18.8024 4.18445 18.6754 4.13891 18.5553 4.03003C18.4378 3.92367 18.3601 3.7464 18.2518 3.61176C18.2449 3.60301 18.2389 3.59367 18.2338 3.58387C18.1892 3.49544 18.1291 3.43011 18.0534 3.38788C18.0412 3.37514 18.0278 3.36173 18.0132 3.34765C17.4454 2.79819 16.7658 2.55852 15.9744 2.62863C15.6472 2.65784 15.4681 2.6759 15.437 2.6828C15.2697 2.71945 15.0474 2.71746 14.7718 2.71587C14.5381 2.71427 14.3413 2.69316 14.1814 2.65253C13.7355 2.5394 13.3681 2.31472 13.0792 1.97852C12.8864 1.75385 12.746 1.51377 12.6581 1.2583C12.6 1.089 12.6 0.889422 12.7187 0.753186C12.7824 0.680155 12.8655 0.63315 12.968 0.61217C13.1676 0.57114 13.3409 0.587472 13.448 0.775096C13.5245 0.908676 13.6041 1.0473 13.6867 1.19097C13.8153 1.41485 13.9528 1.56304 14.2025 1.66541C14.5455 1.80643 14.8937 1.79129 15.2506 1.74269C15.2554 1.74206 15.2599 1.74015 15.2636 1.73717C15.2674 1.73419 15.2703 1.73024 15.272 1.72576C15.2737 1.72127 15.2742 1.71641 15.2733 1.71167C15.2725 1.70694 15.2704 1.70252 15.2673 1.69887C15.0124 1.40303 14.8524 1.0566 14.7873 0.659574C14.7542 0.456016 14.777 0.189917 14.9937 0.0963043C15.2566 -0.0173588 15.4696 0.0292485 15.6326 0.236126C15.6828 0.30026 15.7382 0.423749 15.7569 0.486291C15.806 0.64988 15.8679 0.81108 15.9425 0.96989C16.0796 1.26069 16.3021 1.45853 16.6102 1.56343C16.7153 1.59929 16.9384 1.66262 17.2794 1.75345C17.3638 1.77576 17.6246 1.86167 18.0618 2.01118C18.077 2.01618 18.0911 2.02403 18.1032 2.03429C18.1212 2.04942 18.1351 2.05819 18.1446 2.06058C18.1495 2.06185 18.1546 2.06175 18.1594 2.06031C18.1643 2.05886 18.1686 2.05612 18.172 2.05238C18.1753 2.04864 18.1776 2.04404 18.1785 2.0391C18.1795 2.03415 18.179 2.02904 18.1773 2.02433C18.1048 1.82356 18.0425 1.64204 17.9905 1.47978C17.9384 1.31699 17.9117 1.13321 17.9104 0.928461C17.9091 0.755045 17.9604 0.632619 18.0645 0.561181C18.1864 0.477793 18.3194 0.454821 18.4633 0.492266C18.6955 0.552815 18.7768 0.855961 18.8047 1.09059C18.8597 1.55626 18.9867 1.91876 19.4361 2.13348C19.6468 2.23426 19.8671 2.33066 20.04 2.45375C20.4586 2.75132 20.7411 3.18034 20.8068 3.68983ZM16.3823 3.95394C15.8018 4.22907 15.3007 4.59223 14.8789 5.04343C14.5292 5.41762 14.2544 5.83111 14.0547 6.2839C13.8585 6.72952 13.7361 7.21087 13.6875 7.72793C13.6532 8.09016 13.6508 8.41827 13.6803 8.71225C13.7175 9.08538 13.7698 9.39742 13.8372 9.64838C14.0675 10.5054 14.4561 11.2909 15.0032 12.005C15.0566 12.0749 15.1084 12.1314 15.1586 12.1747C15.1665 12.1814 15.1718 12.1909 15.1733 12.2014L15.1757 12.2177C15.1563 12.2199 15.1369 12.2199 15.1175 12.2177C14.9109 12.1938 14.7165 12.1557 14.5344 12.1034C14.302 12.0368 14.1221 11.9582 13.9946 11.8676C13.6209 11.6019 13.4146 11.2346 13.2381 10.8028C13.13 10.5372 13.0314 10.2545 12.9421 9.95471C12.9265 9.9016 12.8941 9.86747 12.8449 9.85234C12.8352 9.84918 12.8249 9.8481 12.8147 9.84915C12.4745 9.87982 12.1741 9.92165 11.9212 9.789C11.7335 9.6906 11.7821 9.33846 11.8343 9.17673C12.0251 8.58398 12.2645 8.03545 12.5486 7.49808C12.5496 7.49611 12.5503 7.49394 12.5504 7.49172C12.5506 7.48949 12.5503 7.48725 12.5496 7.48515C12.5488 7.48305 12.5476 7.48112 12.5461 7.47951C12.5445 7.47789 12.5427 7.47662 12.5406 7.47577L11.5065 7.04714C11.498 7.04371 11.49 7.03915 11.4826 7.0336C11.323 6.91277 11.307 6.77812 11.4348 6.62967C11.6196 6.41496 11.8981 6.23411 12.2163 6.01143C12.5239 5.79632 12.9421 5.584 13.1827 5.43541C13.2433 5.39797 13.2957 5.34605 13.3401 5.27966C13.3442 5.27351 13.347 5.26654 13.3483 5.25921C13.3496 5.25187 13.3494 5.24432 13.3477 5.23703C13.3114 5.08168 13.2086 4.97731 13.1106 4.8578C12.9887 4.70882 12.8019 4.55665 12.7091 4.46065C12.6608 4.41045 12.6316 4.33915 12.6215 4.24673C12.6199 4.2312 12.6233 4.21571 12.631 4.20251C12.6706 4.13639 12.7248 4.09164 12.7936 4.06827C12.925 4.02365 13.0696 3.99723 13.2274 3.989C13.737 3.96244 14.2483 3.98302 14.7614 4.05074C14.7683 4.05167 14.7752 4.05099 14.7818 4.04875C14.7883 4.04652 14.7943 4.04279 14.7992 4.03786C14.8041 4.03293 14.8078 4.02692 14.81 4.02031C14.8122 4.01371 14.8129 4.00667 14.812 3.99975L14.7236 3.36797C14.7215 3.35289 14.724 3.33737 14.7307 3.32335C14.7432 3.29733 14.7627 3.2717 14.7893 3.24647C14.8006 3.23569 14.8156 3.22945 14.8315 3.22894C14.9059 3.22708 14.9594 3.23173 14.9921 3.24288C15.4872 3.41139 15.9358 3.66753 16.3823 3.95394Z" fill="var(--fill-0, #FF6CC8)"/>
<path id="Vector_14" d="M18.0532 3.3884C18.1289 3.43063 18.189 3.49596 18.2336 3.58439C18.2387 3.5942 18.2447 3.60353 18.2516 3.61228C18.3599 3.74692 18.4376 3.92419 18.5551 4.03055C18.6751 4.13943 18.8022 4.18497 18.9363 4.16718C19.2686 4.12336 19.5052 3.80588 19.4634 3.47684C19.4631 3.47469 19.4634 3.47251 19.464 3.47046C19.4647 3.46841 19.4658 3.46652 19.4673 3.46494C19.4688 3.46335 19.4706 3.4621 19.4726 3.46127C19.4746 3.46043 19.4767 3.46004 19.4789 3.46011C19.7049 3.47206 19.9035 3.49423 20.0748 3.52663C20.27 3.56368 20.4473 3.62064 20.6377 3.64932C20.6514 3.65144 20.665 3.65532 20.6779 3.66088C20.7268 3.68212 20.7697 3.69195 20.8066 3.69035C20.8432 3.70894 20.9046 3.73099 20.9906 3.75648C21.0501 3.77401 21.2214 3.84213 21.5045 3.96084C21.5967 3.99961 21.722 4.07463 21.8806 4.1859C22.3749 4.53247 22.6625 5.07781 22.7239 5.68012C22.7261 5.70192 22.734 5.72276 22.7469 5.74053C22.7597 5.7583 22.7771 5.77236 22.7972 5.7813C22.854 5.806 22.9283 5.82472 23.0202 5.83747C23.2016 5.8627 23.3489 5.86642 23.462 5.84862C23.609 5.82592 23.7508 5.81437 23.8847 5.77971C24.1266 5.71677 24.3679 5.66578 24.6085 5.62674C24.7776 5.59912 24.9464 5.60258 25.1148 5.6371C25.2884 5.67242 25.4356 5.75023 25.5561 5.87053C25.7288 6.04289 25.8197 6.26636 25.829 6.54096C25.8423 6.70242 25.8204 6.85765 25.7633 7.00663C25.6966 7.03717 25.6667 7.07767 25.6737 7.12813C25.6614 7.14035 25.6568 7.14884 25.6597 7.15362C25.635 7.12946 25.6066 7.12215 25.5745 7.13171C25.4372 7.17235 25.2776 7.19545 25.0956 7.20103C24.8715 7.20793 24.607 7.21165 24.3021 7.21218C24.2408 7.21218 24.1878 7.22626 24.1432 7.25441C24.1325 7.26121 24.1237 7.27053 24.1177 7.2815C24.0316 7.43884 23.9727 7.51891 23.7962 7.60336C23.5686 7.71225 23.3151 7.76642 23.0358 7.76589C22.6482 7.76509 22.4398 7.71371 22.0096 7.60655C21.7957 7.55317 21.6252 7.77864 21.8148 7.94316C21.8446 7.96918 21.9226 8.00012 22.0491 8.03597C22.847 8.26144 23.7329 8.22081 24.3706 7.66989C24.3817 7.65989 24.3947 7.65205 24.4089 7.64678C24.4787 7.62023 24.5349 7.60589 24.5774 7.60376C24.7699 7.5934 24.9603 7.58424 25.1486 7.57628C25.2638 7.57149 25.4052 7.54162 25.5338 7.52768L25.594 7.63244C25.5863 7.6197 25.5762 7.62328 25.5637 7.6432C25.56 7.649 25.5573 7.65533 25.5557 7.66192C25.4963 7.92988 25.407 8.15561 25.288 8.33912C25.2211 8.44216 25.1164 8.56512 24.9737 8.70799C24.8455 8.82192 24.7042 8.89814 24.5499 8.93665L24.2077 9.01671L23.7265 9.03265C23.2928 9.01114 22.8063 8.9547 22.2669 8.86335C21.9674 8.81236 21.6236 8.79125 21.2356 8.80001C21.1111 8.80267 20.9893 8.8117 20.8703 8.8271C20.7138 8.84741 20.5807 8.84662 20.3843 8.87291C20.1995 8.89761 20.0214 8.91075 19.8502 8.91235C19.7147 8.88526 19.4883 8.86202 19.171 8.84264C18.7292 8.81555 17.805 8.4897 17.652 7.9336C17.57 7.63443 17.6198 7.30659 17.8564 7.09945C17.9478 7.01951 18.0622 6.94316 18.1998 6.8704C18.3364 6.79829 18.3595 6.62143 18.2332 6.52702C18.0643 6.40034 17.8273 6.60111 17.7014 6.70747C17.5147 6.86495 17.3814 7.04009 17.3015 7.2329C17.1615 7.57043 17.1744 7.90053 17.3401 8.2232C17.3077 8.41866 17.2913 8.5525 17.2907 8.62474C17.2862 9.16889 17.4182 9.66404 17.6867 10.1102C17.9292 10.5125 18.2168 10.8595 18.5495 11.1511C19.1267 11.6566 19.8127 12.0677 20.4748 12.4282C20.7666 12.5873 21.1879 12.8094 21.7387 13.0946C22.6856 13.5854 23.5158 14.1511 24.2093 14.8681C24.396 15.0612 24.6229 15.3378 24.8901 15.6979C25.0922 15.9703 25.2734 16.2755 25.4338 16.6133C25.7873 17.3577 26.0049 18.1233 26.0867 18.9102C26.0999 19.0376 26.0971 19.1639 26.1102 19.2739C26.1211 19.3639 26.1276 19.4549 26.1298 19.5467C26.1367 19.8357 26.1219 20.1542 26.0856 20.5024C25.923 22.0528 25.1849 23.5633 23.9536 24.5333C23.0655 25.2328 22.067 25.632 20.958 25.7308C20.3871 25.7813 19.7342 25.7702 19.1367 25.6431C18.8911 25.5911 18.7295 25.5516 18.6519 25.5248C18.1834 25.3633 17.8126 25.1995 17.5393 25.0332C17.1912 24.8216 16.8888 24.6028 16.6323 24.3768C15.9845 23.8063 15.4089 23.1084 14.9054 22.283C14.8212 22.1452 14.6347 21.795 14.3457 21.2326C13.9095 20.3837 13.4239 19.5515 12.7515 18.9636C12.4589 18.7075 12.1067 18.5201 11.6951 18.4011C11.2837 18.2821 10.8872 18.2654 10.5056 18.3509C10.1033 18.4414 9.7449 18.6216 9.43047 18.8915C8.86162 19.3798 8.55874 19.9825 8.52183 20.6996C8.48757 21.3616 8.68475 22.0269 8.96997 22.6889C9.06186 22.9025 9.20088 23.2161 9.38705 23.6298C9.53125 23.9501 9.64597 24.2831 9.73999 24.5863C9.93863 25.2274 10.0095 25.8861 9.95271 26.5625C9.89641 27.2328 9.63628 27.8159 9.17233 28.3117C8.51904 29.01 7.66776 29.4625 6.73482 29.6597C6.49475 29.7104 6.14446 29.758 5.68397 29.8023C5.32705 29.737 5.01646 29.6548 4.75222 29.5557C3.6946 29.1594 2.76604 28.4471 2.04742 27.5401C1.08221 26.3211 0.493845 24.8986 0.218185 23.3645C0.156043 23.0185 0.115543 22.7407 0.0966881 22.5312C0.0711936 22.2484 0.0437074 22.0285 0.0401222 21.7676C0.0337486 21.3031 0.0365373 20.9598 0.0484879 20.7378C0.068671 20.3658 0.120324 19.9734 0.203447 19.5607C0.327732 18.9424 0.507655 18.3826 0.743213 17.8812C0.988598 17.3583 1.27382 16.8705 1.59887 16.4177C1.60896 16.4039 1.61388 16.3921 1.61361 16.3822C1.61733 16.3809 1.62078 16.3796 1.62397 16.3783C1.62682 16.377 1.62932 16.3747 1.63114 16.3719C1.79818 16.1127 1.9789 15.8425 2.1733 15.5612C2.39119 15.2469 2.55292 14.9713 2.77003 14.6729C2.82712 14.5943 2.89976 14.5571 2.98792 14.5614C3.00127 14.5619 3.01413 14.5672 3.02417 14.5765C3.14288 14.6857 3.13093 14.8729 3.11261 15.0278C3.08154 15.29 3.06759 15.4911 3.0178 15.7265C2.95141 16.0383 2.87771 16.35 2.79672 16.6615C2.44165 17.4829 2.20437 18.3369 2.08486 19.2237C2.0753 19.2956 2.06893 19.3732 2.06574 19.4563C2.06216 19.5627 2.03666 19.6507 2.03387 19.7662C2.02139 20.3048 2.02285 20.6503 2.03825 20.8027C2.06481 21.0686 2.08088 21.2239 2.08646 21.2688C2.11328 21.4858 2.13545 21.6402 2.15298 21.7321C2.35826 22.8069 2.76896 23.8027 3.38508 24.7197C3.75156 25.2651 4.19891 25.7654 4.77931 26.0713C5.15097 26.2669 5.74292 26.3657 6.10781 26.116C6.28893 25.9917 6.39848 25.8058 6.43645 25.5583C6.46314 25.387 6.44841 25.2715 6.42012 25.1101C6.3532 24.7209 6.21059 24.3198 6.05643 23.9489C5.88275 23.5312 5.72739 23.1364 5.59036 22.7646C5.43898 22.3535 5.32227 21.9193 5.2402 21.462C5.17381 21.091 5.13929 20.7985 5.13663 20.5844C5.13053 20.1269 5.13278 19.8417 5.14341 19.7288C5.16226 19.5286 5.20781 19.2598 5.28004 18.9225C5.35812 18.5571 5.5148 18.1469 5.7501 17.692C5.82445 17.5481 5.93453 17.3763 6.08033 17.1765C6.22586 16.9774 6.34895 16.8143 6.4496 16.6874C6.46394 16.6693 6.46899 16.6475 6.46474 16.622C6.47324 16.6279 6.48359 16.6286 6.49581 16.624C6.49974 16.6225 6.50327 16.62 6.50617 16.6169C7.33394 15.7034 8.37324 15.0394 9.57547 14.7434C9.89654 14.6645 10.2478 14.6162 10.6291 14.5984C11.024 14.5801 11.378 14.5907 11.6911 14.6303C12.8713 14.7793 13.9233 15.2375 14.8473 16.005C15.0459 16.1699 15.3603 16.4671 15.7905 16.8965C16.2542 17.5556 16.6773 18.2586 17.0597 19.0054C17.1216 19.1262 17.2821 19.4355 17.5413 19.9331C17.5517 19.9531 17.6378 20.1058 17.7998 20.3912C18.1831 21.0669 18.7069 21.6787 19.3885 22.0388C19.517 22.1065 19.6996 22.1724 19.9362 22.2364C20.0772 22.2747 20.1943 22.2735 20.3628 22.297C20.3917 22.3009 20.421 22.3015 20.4501 22.2986C20.6846 22.277 20.8239 22.2615 20.8679 22.2519C22.2 21.9659 22.8709 20.6944 22.8477 19.4181C22.8342 18.6684 22.6075 17.9811 22.1678 17.3562C21.8525 16.9079 21.4608 16.5271 20.9926 16.2137C20.3266 15.768 19.8171 15.4939 18.9985 15.0513C17.5831 14.2861 16.2351 13.4603 15.2113 12.235C15.2071 12.2302 15.1951 12.2246 15.1755 12.2183L15.1731 12.2019C15.1716 12.1914 15.1663 12.1819 15.1584 12.1752C15.1082 12.132 15.0564 12.0754 15.003 12.0055C14.4559 11.2914 14.0673 10.5059 13.837 9.6489C13.7696 9.39794 13.7173 9.0859 13.6801 8.71277C13.6506 8.41879 13.653 8.09068 13.6873 7.72845C13.7359 7.21139 13.8583 6.73004 14.0545 6.28442C14.2542 5.83163 14.529 5.41814 14.8787 5.04395C15.3004 4.59275 15.8016 4.22959 16.3821 3.95446C16.4907 3.89312 16.6078 3.83416 16.7334 3.77759C16.9101 3.69819 17.135 3.61785 17.4083 3.53659C17.6518 3.46409 17.8668 3.4147 18.0532 3.3884ZM21.3562 5.64347C21.3555 5.59927 21.3461 5.55564 21.3285 5.51507C21.311 5.4745 21.2856 5.43779 21.2539 5.40702C21.2221 5.37626 21.1846 5.35205 21.1435 5.33577C21.1024 5.31949 21.0585 5.31147 21.0143 5.31216L20.9697 5.31288C20.8805 5.31429 20.7954 5.35109 20.7333 5.41519C20.6712 5.47929 20.6371 5.56545 20.6384 5.65471L20.6458 6.12313C20.6465 6.16733 20.6559 6.21096 20.6734 6.25152C20.691 6.29209 20.7164 6.3288 20.7481 6.35957C20.7798 6.39033 20.8173 6.41453 20.8584 6.43081C20.8995 6.44708 20.9434 6.45509 20.9876 6.4544L21.0323 6.45368C21.1215 6.45228 21.2066 6.41547 21.2687 6.35137C21.3308 6.28727 21.3649 6.20111 21.3635 6.11186L21.3562 5.64347ZM15.4325 8.40724C15.405 8.39101 15.3744 8.38054 15.3426 8.3764C15.3107 8.37226 15.2783 8.37455 15.247 8.38313C15.2157 8.3917 15.1862 8.40641 15.1603 8.42639C15.1343 8.44638 15.1123 8.47126 15.0956 8.49961C15.0619 8.55687 15.0517 8.6248 15.0672 8.68845C15.0826 8.75209 15.1226 8.80625 15.1782 8.83901C15.2338 8.87178 15.3006 8.88045 15.3637 8.86314C15.4269 8.84582 15.4814 8.80393 15.5151 8.74667C15.5488 8.68941 15.559 8.62149 15.5436 8.55784C15.5281 8.49419 15.4881 8.44003 15.4325 8.40728M16.5414 10.0178C16.5414 9.95241 16.5155 9.8897 16.4692 9.84345C16.423 9.79721 16.3603 9.77123 16.2949 9.77123C16.2295 9.77123 16.1667 9.79721 16.1205 9.84345C16.0743 9.8897 16.0483 9.95241 16.0483 10.0178C16.0483 10.0832 16.0743 10.1459 16.1205 10.1922C16.1667 10.2384 16.2295 10.2644 16.2949 10.2644C16.3603 10.2644 16.423 10.2384 16.4692 10.1922C16.5155 10.1459 16.5414 10.0832 16.5414 10.0178ZM15.3101 10.0983C15.3101 10.033 15.2842 9.97037 15.238 9.9242C15.1919 9.87803 15.1292 9.8521 15.064 9.8521C14.9987 9.8521 14.936 9.87803 14.8899 9.9242C14.8437 9.97037 14.8178 10.033 14.8178 10.0983C14.8178 10.1636 14.8437 10.2262 14.8899 10.2724C14.936 10.3185 14.9987 10.3445 15.064 10.3445C15.1292 10.3445 15.1919 10.3185 15.238 10.2724C15.2842 10.2262 15.3101 10.1636 15.3101 10.0983ZM21.9854 15.4573C21.9378 15.5008 21.9099 15.5619 21.9078 15.6272C21.9058 15.6925 21.9297 15.7567 21.9744 15.8056C21.9965 15.8298 22.023 15.8496 22.0525 15.8637C22.0819 15.8778 22.1137 15.8861 22.146 15.888C22.1783 15.8899 22.2105 15.8855 22.2407 15.8748C22.271 15.8642 22.2987 15.8477 22.3222 15.8262C22.3698 15.7827 22.3977 15.7216 22.3998 15.6563C22.4019 15.591 22.3779 15.5268 22.3333 15.4779C22.3112 15.4537 22.2846 15.4339 22.2552 15.4198C22.2257 15.4056 22.1939 15.3974 22.1616 15.3955C22.1293 15.3935 22.0971 15.398 22.0669 15.4086C22.0367 15.4192 22.009 15.4358 21.9854 15.4573ZM10.2483 15.8708C10.2483 15.8063 10.2227 15.7445 10.1771 15.6989C10.1315 15.6534 10.0697 15.6278 10.0053 15.6278C9.94084 15.6278 9.87904 15.6534 9.83347 15.6989C9.78789 15.7445 9.76229 15.8063 9.76229 15.8708C9.76229 15.9352 9.78789 15.997 9.83347 16.0426C9.87904 16.0881 9.94084 16.1137 10.0053 16.1137C10.0697 16.1137 10.1315 16.0881 10.1771 16.0426C10.2227 15.997 10.2483 15.9352 10.2483 15.8708ZM11.4634 15.7866C11.4311 15.7917 11.4002 15.8032 11.3723 15.8206C11.3445 15.8381 11.3203 15.861 11.3011 15.8881C11.2819 15.9152 11.2682 15.946 11.2607 15.9786C11.2531 16.0113 11.2519 16.0453 11.2571 16.0786C11.2623 16.1119 11.2738 16.1438 11.291 16.1726C11.3082 16.2015 11.3307 16.2266 11.3572 16.2465C11.3837 16.2665 11.4138 16.2809 11.4456 16.289C11.4775 16.297 11.5105 16.2986 11.5428 16.2935C11.5751 16.2885 11.606 16.2769 11.6339 16.2595C11.6617 16.2421 11.6859 16.2192 11.7051 16.1921C11.7243 16.1649 11.738 16.1342 11.7455 16.1015C11.7531 16.0688 11.7543 16.0348 11.7491 16.0015C11.7385 15.9343 11.7025 15.8739 11.649 15.8336C11.5954 15.7933 11.5286 15.7764 11.4634 15.7866ZM23.7612 16.1643C23.7612 16.1002 23.7357 16.0387 23.6903 15.9934C23.645 15.948 23.5835 15.9225 23.5194 15.9225C23.4552 15.9225 23.3937 15.948 23.3484 15.9934C23.303 16.0387 23.2776 16.1002 23.2776 16.1643C23.2776 16.1961 23.2838 16.2275 23.296 16.2569C23.3081 16.2862 23.3259 16.3129 23.3484 16.3353C23.3708 16.3578 23.3975 16.3756 23.4268 16.3877C23.4562 16.3999 23.4876 16.4061 23.5194 16.4061C23.5511 16.4061 23.5826 16.3999 23.6119 16.3877C23.6412 16.3756 23.6679 16.3578 23.6903 16.3353C23.7128 16.3129 23.7306 16.2862 23.7428 16.2569C23.7549 16.2275 23.7612 16.1961 23.7612 16.1643ZM10.6279 16.9845C10.6279 16.9171 10.6011 16.8525 10.5535 16.8048C10.5058 16.7572 10.4412 16.7304 10.3738 16.7304C10.3064 16.7304 10.2417 16.7572 10.1941 16.8048C10.1464 16.8525 10.1196 16.9171 10.1196 16.9845C10.1196 17.0519 10.1464 17.1166 10.1941 17.1643C10.2417 17.2119 10.3064 17.2387 10.3738 17.2387C10.4412 17.2387 10.5058 17.2119 10.5535 17.1643C10.6011 17.1166 10.6279 17.0519 10.6279 16.9845ZM23.6126 17.4128C23.6126 17.3465 23.5863 17.283 23.5394 17.2362C23.4926 17.1893 23.4291 17.163 23.3628 17.163C23.2966 17.163 23.233 17.1893 23.1862 17.2362C23.1394 17.283 23.113 17.3465 23.113 17.4128C23.113 17.479 23.1394 17.5425 23.1862 17.5894C23.233 17.6362 23.2966 17.6625 23.3628 17.6625C23.4291 17.6625 23.4926 17.6362 23.5394 17.5894C23.5863 17.5425 23.6126 17.479 23.6126 17.4128ZM18.489 22.9706C18.489 22.9057 18.4632 22.8435 18.4173 22.7976C18.3715 22.7518 18.3093 22.726 18.2444 22.726C18.1795 22.726 18.1173 22.7518 18.0714 22.7976C18.0256 22.8435 17.9998 22.9057 17.9998 22.9706C17.9998 23.0354 18.0256 23.0977 18.0714 23.1435C18.1173 23.1894 18.1795 23.2152 18.2444 23.2152C18.3093 23.2152 18.3715 23.1894 18.4173 23.1435C18.4632 23.0977 18.489 23.0354 18.489 22.9706ZM16.9436 22.7909C16.9173 22.8087 16.8949 22.8318 16.8776 22.8588C16.8604 22.8858 16.8487 22.9162 16.8433 22.9482C16.8378 22.9802 16.8386 23.0133 16.8457 23.0455C16.8528 23.0777 16.8661 23.1084 16.8847 23.1358C16.9222 23.1913 16.9794 23.2302 17.0435 23.2439C17.1077 23.2577 17.1736 23.2452 17.2268 23.2091C17.28 23.1731 17.3161 23.1166 17.3271 23.0519C17.3382 22.9872 17.3233 22.9197 17.2858 22.8643C17.2672 22.8368 17.2436 22.8131 17.2163 22.7946C17.189 22.776 17.1586 22.763 17.1269 22.7562C17.0951 22.7493 17.0626 22.7489 17.0311 22.7549C16.9997 22.7609 16.9699 22.7731 16.9436 22.791M18.2415 24.0635C18.198 24.1095 18.1754 24.1716 18.1786 24.2362C18.1818 24.3008 18.2105 24.3626 18.2585 24.4079C18.2822 24.4304 18.31 24.4482 18.3402 24.4602C18.3704 24.4723 18.4024 24.4783 18.4344 24.4781C18.4664 24.4779 18.4978 24.4714 18.5268 24.459C18.5558 24.4465 18.5818 24.4284 18.6033 24.4056C18.6468 24.3597 18.6694 24.2975 18.6663 24.233C18.6631 24.1684 18.6343 24.1066 18.5864 24.0612C18.5626 24.0388 18.5349 24.021 18.5047 24.009C18.4745 23.9969 18.4425 23.9908 18.4104 23.991C18.3784 23.9913 18.347 23.9978 18.318 24.0102C18.2891 24.0226 18.2631 24.0408 18.2415 24.0635ZM8.6744 25.5344C8.6744 25.4689 8.64837 25.406 8.60206 25.3597C8.55574 25.3134 8.49292 25.2874 8.42742 25.2874C8.36191 25.2874 8.29909 25.3134 8.25278 25.3597C8.20646 25.406 8.18044 25.4689 8.18044 25.5344C8.18044 25.5999 8.20646 25.6627 8.25278 25.709C8.29909 25.7553 8.36191 25.7813 8.42742 25.7813C8.49292 25.7813 8.55574 25.7553 8.60206 25.709C8.64837 25.6627 8.6744 25.5999 8.6744 25.5344ZM7.79523 26.743C7.79523 26.6779 7.76938 26.6155 7.72336 26.5694C7.67734 26.5234 7.61493 26.4976 7.54985 26.4976C7.51762 26.4976 7.48571 26.5039 7.45594 26.5163C7.42617 26.5286 7.39912 26.5467 7.37634 26.5694C7.35355 26.5922 7.33547 26.6193 7.32314 26.6491C7.31081 26.6788 7.30446 26.7107 7.30446 26.743C7.30446 26.808 7.33032 26.8705 7.37634 26.9165C7.42235 26.9625 7.48477 26.9883 7.54985 26.9883C7.61493 26.9883 7.67734 26.9625 7.72336 26.9165C7.76938 26.8705 7.79523 26.808 7.79523 26.743ZM8.44686 26.7558C8.40525 26.8035 8.38521 26.8665 8.39114 26.9311C8.39708 26.9957 8.42849 27.0564 8.47849 27.1C8.52849 27.1437 8.59296 27.1665 8.65773 27.1637C8.7225 27.1608 8.78226 27.1324 8.82386 27.0847C8.86546 27.037 8.8855 26.9739 8.87957 26.9094C8.87364 26.8448 8.84222 26.784 8.79223 26.7404C8.74223 26.6968 8.67775 26.6739 8.61298 26.6768C8.54821 26.6797 8.48846 26.7081 8.44686 26.7558Z" fill="var(--fill-0, #30B5CA)"/>
<path id="Vector_15" d="M25.7632 7.00676C25.8203 6.85778 25.8422 6.70256 25.8289 6.54109C26.1537 6.612 26.4271 6.64612 26.6492 6.64347C27.0982 6.63736 27.4949 6.50245 27.839 6.23874C28.0204 6.09958 28.178 5.90824 28.3119 5.66472C28.382 5.53764 28.4218 5.35918 28.4808 5.21657C28.4853 5.2055 28.4917 5.19525 28.4999 5.1863C28.5753 5.1045 28.6588 5.0879 28.7505 5.1365C28.8644 5.19705 28.9051 5.29305 28.8728 5.42451C28.8061 5.69592 28.6817 5.95273 28.4995 6.19492C28.043 6.80042 27.414 7.05576 26.6655 7.07966C26.4026 7.08763 26.064 7.02429 25.7632 7.00676Z" fill="var(--fill-0, #FF6CC8)"/>
<path id="Vector_16" d="M21.0144 5.31201L20.9698 5.31271C20.7839 5.31563 20.6356 5.46868 20.6385 5.65456L20.6458 6.12297C20.6488 6.30885 20.8018 6.45717 20.9877 6.45425L21.0323 6.45354C21.2182 6.45062 21.3665 6.29757 21.3636 6.11169L21.3562 5.64329C21.3533 5.45741 21.2002 5.30909 21.0144 5.31201Z" fill="var(--fill-0, #1C191A)"/>
<path id="Vector_17" d="M19.85 8.91199L19.6445 9.1757C19.0679 9.24979 18.5182 9.14237 17.9953 8.85343C17.7265 8.70471 17.5081 8.49451 17.34 8.22284C17.1743 7.90017 17.1614 7.57007 17.3014 7.23254C17.3813 7.03973 17.5146 6.86459 17.7013 6.70711C17.8272 6.60075 18.0642 6.39998 18.2331 6.52666C18.3594 6.62107 18.3363 6.79793 18.1996 6.87004C18.0621 6.9428 17.9476 7.01915 17.8563 7.09909C17.6196 7.30623 17.5699 7.63407 17.6519 7.93324C17.8049 8.48934 18.7291 8.81519 19.1708 8.84228C19.4882 8.86166 19.7146 8.8849 19.85 8.91199ZM25.6596 7.15326C25.6641 7.28605 25.6221 7.41073 25.5337 7.52732C25.405 7.54126 25.2636 7.57114 25.1485 7.57592C24.9602 7.58388 24.7698 7.59304 24.5773 7.6034C24.5348 7.60553 24.4786 7.61987 24.4088 7.64642C24.3945 7.65169 24.3816 7.65953 24.3705 7.66953C23.7328 8.22045 22.8468 8.26108 22.0489 8.03561C21.9225 7.99976 21.8444 7.96882 21.8147 7.9428C21.6251 7.77828 21.7956 7.55281 22.0095 7.60619C22.4397 7.71335 22.648 7.76473 23.0356 7.76553C23.315 7.76606 23.5685 7.71189 23.7961 7.603C23.9726 7.51855 24.0315 7.43848 24.1176 7.28114C24.1236 7.27017 24.1323 7.26085 24.1431 7.25405C24.1877 7.2259 24.2407 7.21182 24.302 7.21182C24.6069 7.21129 24.8714 7.20757 25.0955 7.20067C25.2774 7.19509 25.437 7.17199 25.5743 7.13136C25.6065 7.12179 25.6349 7.1291 25.6596 7.15326Z" fill="var(--fill-0, #1C191A)"/>
<path id="Vector_18" d="M25.6737 7.12823C25.6931 7.16647 25.7219 7.1909 25.7602 7.20152C26.1549 7.30948 26.5378 7.4975 26.8297 7.79666C27.052 8.02452 27.2512 8.27322 27.4273 8.54277C27.5575 8.74275 27.7575 8.92838 27.9826 9.06183C28.2112 9.19726 28.4719 9.29884 28.7645 9.36656C28.9109 9.40056 28.9753 9.48992 28.9577 9.63465C28.9559 9.64994 28.9494 9.66429 28.939 9.67569C28.837 9.78935 28.714 9.82772 28.5697 9.79081C28.1475 9.68272 27.773 9.48673 27.4464 9.20284C27.3234 9.09608 27.2007 8.95467 27.0783 8.7786C26.8863 8.50254 26.7258 8.28663 26.5071 8.07949C26.4165 7.99371 26.3366 7.92865 26.2673 7.8843C26.0623 7.75284 25.8379 7.66892 25.5941 7.63254L25.5339 7.52777C25.6223 7.41119 25.6643 7.2865 25.6598 7.15372C25.6569 7.14894 25.6615 7.14044 25.6737 7.12823Z" fill="var(--fill-0, #FF6CC8)"/>
<path id="Vector_19" d="M17.3404 8.22271C17.5085 8.49439 17.7269 8.70458 17.9957 8.8533C18.5186 9.14224 19.0683 9.24966 19.6449 9.17557C19.6202 9.31393 19.6348 9.45574 19.6887 9.60101C19.7942 9.88503 19.948 10.0786 20.1611 10.3005C19.8711 10.4891 19.5724 10.6523 19.2648 10.7901C19.1413 10.8451 19.0477 10.9566 19.1258 11.0904C19.2234 11.2578 19.5939 11.0315 19.7142 10.9741C19.9646 10.8541 20.2022 10.7123 20.4268 10.5487C20.9545 10.9603 21.5134 11.2998 22.1035 11.5673C22.5318 11.7617 22.8446 11.9072 23.0416 12.0039L22.3481 12.4181C22.3107 12.4405 22.283 12.4761 22.2705 12.5181C22.258 12.5601 22.2615 12.6054 22.2804 12.6452L22.2831 12.6508C22.2923 12.6702 22.3052 12.6876 22.3212 12.7021C22.3371 12.7165 22.3558 12.7276 22.376 12.7348C22.3963 12.742 22.4177 12.7451 22.4392 12.7439C22.4607 12.7428 22.4817 12.7374 22.501 12.7281C22.7239 12.6216 22.9228 12.5155 23.0978 12.4098C23.1971 12.3498 23.2681 12.298 23.3109 12.2544C23.3414 12.2231 23.3329 12.1809 23.2854 12.1278C23.6622 12.3216 24.0291 12.5294 24.386 12.7512C24.9737 13.1161 25.5135 13.5419 26.0053 14.0287C26.0542 14.0773 26.0931 14.1208 26.1221 14.1593C25.7861 14.3062 25.4414 14.44 25.0879 14.5609C24.7971 14.6605 24.9131 15.0281 25.2309 14.9023C25.3682 14.8478 25.5535 14.7777 25.7866 14.6919C26.0126 14.6086 26.1989 14.5131 26.3455 14.4055C27.0753 15.2511 27.6076 16.2058 27.9425 17.2697L26.6499 17.4326C26.6027 17.4385 26.5596 17.4627 26.5296 17.5001C26.4997 17.5375 26.4851 17.5852 26.4889 17.6334L26.4893 17.6405C26.4911 17.6635 26.4975 17.686 26.5081 17.7065C26.5186 17.727 26.5332 17.7452 26.5508 17.7601C26.5685 17.775 26.589 17.7862 26.611 17.7931C26.6331 17.8 26.6563 17.8024 26.6794 17.8003C27.1074 17.7602 27.4992 17.7089 27.8545 17.6465C27.9113 17.6367 27.9745 17.6169 28.0441 17.5872C28.3365 18.6723 28.4282 19.7736 28.3194 20.8911L26.908 20.617C26.8607 20.6078 26.8118 20.6167 26.771 20.6419C26.7302 20.6671 26.7006 20.7068 26.6881 20.7529L26.6865 20.76C26.6805 20.7823 26.679 20.8055 26.682 20.8284C26.6851 20.8513 26.6927 20.8733 26.7044 20.8932C26.7161 20.9131 26.7316 20.9304 26.7501 20.9442C26.7686 20.958 26.7896 20.968 26.812 20.9735C27.3017 21.0944 27.7881 21.1852 28.2712 21.246C28.1001 22.303 27.7391 23.2817 27.188 24.1823C26.8181 23.9478 26.4421 23.7242 26.0599 23.5114C25.9185 23.433 25.7655 23.3457 25.6751 23.5493C25.6241 23.664 25.7157 23.7393 25.8109 23.7939C26.3386 24.0956 26.7331 24.3137 26.9944 24.4484C26.6503 24.9354 26.2676 25.3713 25.8464 25.7562C25.413 26.1527 24.9213 26.4972 24.3713 26.7899C24.3955 26.754 24.4006 26.7227 24.3868 26.6959C24.3385 26.6027 24.1383 26.2493 23.7861 25.6359C23.7508 25.5745 23.7091 25.5319 23.661 25.508C23.5555 25.4558 23.4208 25.5271 23.4101 25.6458C23.405 25.6997 23.4153 25.7493 23.4408 25.7944C23.658 26.18 23.8846 26.5567 24.1207 26.9245C23.5487 27.2015 22.9355 27.3972 22.2812 27.5117C22.2501 27.517 22.2076 27.5218 22.1537 27.526C22.1107 27.5292 22.0678 27.5344 22.025 27.5416C21.4275 27.639 20.8338 27.6615 20.244 27.6089L20.2332 26.419C20.2328 26.3668 20.2128 26.3166 20.1772 26.2782C20.1416 26.2399 20.093 26.2162 20.0408 26.2119L20.0329 26.2115C20.0085 26.2094 19.9839 26.2124 19.9608 26.2203C19.9377 26.2283 19.9165 26.2409 19.8987 26.2575C19.8809 26.274 19.8668 26.2941 19.8574 26.3163C19.848 26.3386 19.8434 26.3626 19.844 26.3867L19.8731 27.5702C19.6875 27.5424 19.4931 27.5217 19.3166 27.4794C18.2929 27.2354 17.3555 26.8204 16.5047 26.2346C16.6321 26.0327 16.7802 25.7789 16.9488 25.4729C17.0129 25.3562 16.9922 25.2152 16.8588 25.1738C16.7616 25.1439 16.664 25.2339 16.6178 25.3116C16.4805 25.5408 16.3485 25.7801 16.2218 26.0294C15.4692 25.4369 14.8152 24.7297 14.2599 23.9078C14.3104 23.8767 14.3566 23.8437 14.3986 23.8086C14.5377 23.6928 14.7127 23.5303 14.9236 23.321C14.9579 23.2869 14.9779 23.241 14.9795 23.1927C14.9811 23.1444 14.9643 23.0972 14.9324 23.0609L14.9272 23.0549C14.9113 23.0369 14.8918 23.0223 14.8701 23.012C14.8484 23.0018 14.8248 22.996 14.8008 22.9951C14.7768 22.9942 14.7529 22.9982 14.7305 23.0068C14.7082 23.0155 14.6878 23.0286 14.6706 23.0454L14.0855 23.619C14.0122 23.5176 13.9393 23.4014 13.8668 23.2704C13.5999 22.7876 13.3744 22.3443 13.0924 21.7519C12.924 21.3985 12.7671 21.0977 12.6215 20.8497C12.3247 20.3445 11.9117 19.8494 11.3348 19.6893C11.2847 19.6755 11.1872 19.6705 11.0425 19.6745C10.9264 19.678 10.8293 19.6894 10.7513 19.7088C10.5917 19.7486 10.4567 19.8118 10.3465 19.8984C10.2135 19.7412 10.0437 19.6144 9.83704 19.518C9.76613 19.4848 9.70173 19.4735 9.64384 19.4841C9.51358 19.5076 9.45383 19.6606 9.53629 19.7665C9.55461 19.7902 9.5882 19.8149 9.63707 19.8406L10.0812 20.0745C10.1155 20.0925 10.1552 20.0808 10.2003 20.0394C9.99904 20.3469 9.92162 20.678 9.9681 21.0325C9.99359 21.2288 10.0451 21.461 10.1227 21.7292C9.87754 21.7457 9.638 21.7641 9.40403 21.7846C9.24111 21.7989 9.15108 21.9212 9.22557 22.0722C9.25863 22.1383 9.34109 22.1559 9.4112 22.1551C9.68739 22.1511 9.96106 22.1173 10.2322 22.0539C10.2792 22.1548 10.3271 22.2621 10.376 22.3757C10.4257 22.4915 10.4764 22.5972 10.5282 22.6928C10.7218 23.0506 10.9162 23.4079 11.1114 23.7648C11.1379 23.8134 11.1677 23.8879 11.2006 23.9883C10.9303 24.0605 10.6642 24.1237 10.4023 24.1779C10.3354 24.192 10.293 24.2125 10.2752 24.2396C10.2157 24.3315 10.2179 24.4111 10.2816 24.4782C10.3553 24.5559 10.4688 24.5468 10.5772 24.5288C10.8688 24.4813 11.1272 24.4166 11.3524 24.3348C11.6023 24.9613 11.7074 25.6166 11.6679 26.3007C11.6588 26.46 11.6401 26.6183 11.6117 26.7755C11.5419 27.1627 11.4192 27.5089 11.2436 27.814C10.9781 27.6985 10.7138 27.587 10.4509 27.4794C10.3868 27.4531 10.2238 27.4161 10.182 27.5029C10.1151 27.6434 10.1515 27.747 10.2912 27.8136C10.5413 27.9334 10.7971 28.028 11.0584 28.0973C10.8523 28.4035 10.6141 28.673 10.3437 28.9059C9.64743 29.5061 8.84063 29.862 7.92336 29.9735C7.28918 30.0508 6.65169 30.0256 6.01087 29.8978C5.89827 29.8755 5.78939 29.8435 5.68422 29.8018C6.14472 29.7575 6.495 29.7099 6.73508 29.6592C7.66802 29.462 8.51929 29.0095 9.17259 28.3112C9.63654 27.8154 9.89666 27.2323 9.95296 26.562C10.0098 25.8856 9.93889 25.2269 9.74024 24.5858C9.64623 24.2827 9.5315 23.9496 9.3873 23.6294C9.20114 23.2156 9.06211 22.902 8.97023 22.6885C8.68501 22.0264 8.48782 21.3611 8.52208 20.6991C8.559 19.9821 8.86188 19.3793 9.43072 18.891C9.74515 18.6211 10.1035 18.441 10.5059 18.3504C10.8875 18.2649 11.284 18.2816 11.6954 18.4006C12.107 18.5196 12.4591 18.7071 12.7518 18.9631C13.4242 19.551 13.9098 20.3832 14.346 21.2321C14.6349 21.7946 14.8215 22.1447 14.9057 22.2825C15.4092 23.1079 15.9848 23.8058 16.6325 24.3763C16.8891 24.6023 17.1914 24.8211 17.5396 25.0327C17.8128 25.199 18.1837 25.3629 18.6522 25.5243C18.7297 25.5511 18.8913 25.5906 19.137 25.6426C19.7345 25.7697 20.3874 25.7809 20.9582 25.7303C22.0672 25.6315 23.0658 25.2323 23.9538 24.5328C25.1851 23.5628 25.9233 22.0523 26.0858 20.5019C26.1222 20.1537 26.1369 19.8352 26.13 19.5463C26.1279 19.4544 26.1214 19.3634 26.1105 19.2734C26.0974 19.1634 26.1001 19.0372 26.087 18.9097C26.0052 18.1228 25.7876 17.3572 25.4341 16.6128C25.2737 16.275 25.0925 15.9699 24.8904 15.6974C24.6232 15.3373 24.3963 15.0607 24.2096 14.8676C23.516 14.1506 22.6859 13.5849 21.739 13.0942C21.1882 12.8089 20.7669 12.5868 20.475 12.4277C19.813 12.0672 19.127 11.6561 18.5498 11.1506C18.217 10.859 17.9294 10.512 17.687 10.1097C17.4185 9.66355 17.2865 9.1684 17.291 8.62425C17.2915 8.55201 17.308 8.41817 17.3404 8.22271Z" fill="var(--fill-0, #FFC81A)"/>
<path id="Vector_20" d="M15.5153 8.74615C15.5855 8.62692 15.5486 8.47495 15.4328 8.40673C15.3169 8.3385 15.1661 8.37985 15.0959 8.49909C15.0256 8.61832 15.0626 8.77029 15.1784 8.83851C15.2942 8.90674 15.4451 8.86539 15.5153 8.74615Z" fill="var(--fill-0, #FF6CC8)"/>
<path id="Vector_21" d="M24.974 8.7078C24.9904 9.07296 24.9513 9.42032 24.8564 9.74989C24.813 9.90206 24.5959 10.5506 24.3254 10.2936C24.2326 10.2052 24.2541 10.106 24.3063 9.98571C24.4513 9.6499 24.5509 9.30373 24.5501 8.93645C24.7044 8.89795 24.8457 8.82173 24.974 8.7078ZM24.2079 9.01652C23.9876 9.52562 23.6745 9.93393 23.181 10.2004C23.0825 10.2535 23.0141 10.282 22.9758 10.2857C22.8033 10.3028 22.74 10.1116 22.7986 9.97296C22.8137 9.93685 22.87 9.89396 22.9675 9.8443C23.2093 9.72081 23.4375 9.46626 23.6088 9.25753C23.6338 9.22699 23.6731 9.15196 23.7267 9.03246L24.2079 9.01652Z" fill="var(--fill-0, #FF6CC8)"/>
<path id="Vector_22" d="M16.2954 10.264C16.4316 10.264 16.542 10.1536 16.542 10.0175C16.542 9.88127 16.4316 9.77087 16.2954 9.77087C16.1592 9.77087 16.0488 9.88127 16.0488 10.0175C16.0488 10.1536 16.1592 10.264 16.2954 10.264Z" fill="var(--fill-0, #FF6CC8)"/>
<path id="Vector_23" d="M15.0641 10.344C15.2001 10.344 15.3103 10.2338 15.3103 10.0978C15.3103 9.96187 15.2001 9.85165 15.0641 9.85165C14.9282 9.85165 14.8179 9.96187 14.8179 10.0978C14.8179 10.2338 14.9282 10.344 15.0641 10.344Z" fill="var(--fill-0, #FF6CC8)"/>
<path id="Vector_24" d="M20.1615 10.3008L20.4272 10.549C20.2025 10.7126 19.965 10.8544 19.7145 10.9745C19.5942 11.0318 19.2238 11.2581 19.1262 11.0908C19.0481 10.9569 19.1417 10.8454 19.2652 10.7904C19.5727 10.6526 19.8715 10.4894 20.1615 10.3008Z" fill="var(--fill-0, #1C191A)"/>
<path id="Vector_25" d="M2.797 16.6614C2.878 16.3499 2.9517 16.0382 3.01809 15.7265C3.06788 15.491 3.08183 15.2899 3.1129 15.0277C3.13122 14.8728 3.14317 14.6856 3.02446 14.5764C3.01441 14.5672 3.00156 14.5618 2.98821 14.5613C2.90004 14.557 2.82741 14.5942 2.77031 14.6728C2.55321 14.9712 2.39148 15.2468 2.17358 15.5611C1.97919 15.8424 1.79847 16.1126 1.63143 16.3718C1.6296 16.3746 1.62711 16.3769 1.62426 16.3782C1.62107 16.3795 1.61762 16.3808 1.6139 16.3821C1.59451 16.362 1.57738 16.339 1.56251 16.3132C1.27968 15.831 1.12034 15.3224 1.08449 14.7875C1.06298 14.4678 1.06311 14.2101 1.08489 14.0143C1.11875 13.7096 1.18766 13.3945 1.3235 13.1284C1.39321 12.9922 1.45655 12.9336 1.60673 12.9444C1.6272 12.9459 1.64706 12.952 1.6648 12.9624C1.68254 12.9727 1.6977 12.987 1.70911 13.0041L1.79077 13.1284C1.79157 13.1297 1.79224 13.1309 1.79276 13.132L1.95768 13.4419C1.96208 13.4503 1.96852 13.4574 1.9764 13.4627C1.98428 13.468 1.99336 13.4711 2.0028 13.472C2.01223 13.4728 2.02173 13.4713 2.03041 13.4675C2.03909 13.4637 2.04668 13.4578 2.05249 13.4503C2.08913 13.403 2.11476 13.3537 2.12937 13.3025C2.25644 12.8619 2.40981 12.4875 2.72849 12.1293C3.06363 11.7522 3.45415 11.4726 3.90004 11.2904C4.12232 11.1999 4.25962 11.1441 4.31194 11.1231C4.39426 11.0904 4.47619 11.0939 4.55772 11.1335C4.56399 11.1365 4.56956 11.1408 4.57409 11.146C4.57861 11.1513 4.58199 11.1575 4.58401 11.1641C4.60791 11.2443 4.60393 11.3083 4.57206 11.3561C4.3697 11.6605 4.25696 11.9405 4.17331 12.3281C4.09523 12.6904 4.05752 13.1361 4.06018 13.6654C4.06044 13.7294 4.06695 13.7802 4.0797 13.818C4.08292 13.8277 4.08839 13.8365 4.09567 13.8437C4.10295 13.8508 4.11183 13.8562 4.12159 13.8594C4.13136 13.8625 4.14174 13.8633 4.1519 13.8617C4.16205 13.8601 4.17171 13.8562 4.18008 13.8502C4.35748 13.7225 4.50846 13.6246 4.63301 13.5566C4.74162 13.4977 4.82661 13.5164 4.88795 13.6128C4.89603 13.6256 4.90044 13.6402 4.9007 13.655C4.90574 13.8335 4.90535 13.9428 4.8995 13.9829C4.77761 14.8509 4.45694 15.5643 3.75464 16.1005C3.50634 16.2901 3.22643 16.4623 2.91492 16.6172C2.86818 16.6405 2.82887 16.6553 2.797 16.6614Z" fill="var(--fill-0, #FF6CC8)"/>
<path id="Vector_26" d="M23.2853 12.1277C23.3328 12.1808 23.3413 12.223 23.3108 12.2544C23.268 12.2979 23.197 12.3497 23.0977 12.4097C22.9226 12.5154 22.7237 12.6215 22.5009 12.728C22.4815 12.7373 22.4605 12.7427 22.4391 12.7439C22.4176 12.745 22.3961 12.7419 22.3759 12.7347C22.3556 12.7275 22.337 12.7164 22.3211 12.702C22.3051 12.6876 22.2922 12.6702 22.283 12.6507L22.2802 12.6452C22.2614 12.6053 22.2579 12.56 22.2704 12.5181C22.2829 12.4761 22.3106 12.4405 22.348 12.4181L23.0415 12.0038L23.2853 12.1277Z" fill="var(--fill-0, #1C191A)"/>
<path id="Vector_27" d="M15.7906 16.8967C15.3604 16.4672 15.046 16.1701 14.8473 16.0051C13.9234 15.2377 12.8714 14.7794 11.6912 14.6304C11.3781 14.5909 11.0241 14.5802 10.6292 14.5986C10.2478 14.6164 9.89662 14.6647 9.57555 14.7436C8.37333 15.0395 7.33403 15.7036 6.50625 16.617C6.50336 16.6202 6.49982 16.6226 6.4959 16.6242C6.48368 16.6287 6.47332 16.628 6.46483 16.6222C6.30349 16.611 5.89956 16.568 5.79201 16.4047C5.78466 16.3937 5.77977 16.381 5.77767 16.3676C5.762 16.2699 5.78285 16.1799 5.84021 16.0976C6.00871 15.8554 6.24812 15.6379 6.50068 15.4447C6.85123 15.1767 7.21652 14.9394 7.59654 14.7328C7.60211 14.7297 7.60675 14.7253 7.60998 14.7198C7.61322 14.7143 7.61492 14.7081 7.61492 14.7017C7.61492 14.6954 7.61322 14.6892 7.60998 14.6837C7.60675 14.6782 7.60211 14.6737 7.59654 14.6707C7.44119 14.5858 7.15636 14.4145 7.10498 14.2524C7.03248 14.0229 7.27706 13.8855 7.46907 13.8218C7.71605 13.7395 7.91602 13.6889 8.06899 13.67C8.23444 13.6493 8.32393 13.6385 8.33748 13.6377C8.92226 13.5984 9.52576 13.632 10.148 13.7385C10.1945 13.7462 10.2231 13.7483 10.234 13.7449C10.2445 13.7414 10.2541 13.7357 10.2621 13.7282C10.2701 13.7206 10.2764 13.7114 10.2805 13.7012C10.2845 13.6909 10.2863 13.68 10.2856 13.669C10.285 13.658 10.2819 13.6474 10.2767 13.6377C10.2079 13.5113 10.1451 13.392 10.0882 13.2796C10.0457 13.1946 10.027 13.1236 10.0321 13.0665C10.0492 12.8789 10.2763 12.8964 10.4344 12.9135C11.1026 12.9855 11.7236 13.2139 12.2975 13.5987C12.5466 13.7657 12.7172 13.8858 12.8094 13.9588C12.8115 13.9604 12.8138 13.9617 12.8161 13.9628L13.0117 14.0556C13.0241 14.0615 13.0378 14.0639 13.0514 14.0627C13.065 14.0614 13.0781 14.0564 13.0891 14.0483C13.1001 14.0402 13.1088 14.0293 13.1141 14.0167C13.1194 14.0041 13.1212 13.9903 13.1193 13.9767L13.0575 13.5342C13.0544 13.5118 13.058 13.489 13.0679 13.4684C13.1242 13.3513 13.2166 13.3144 13.3452 13.3577C13.5066 13.4121 13.6514 13.4959 13.7794 13.6091C13.9503 13.7596 14.0698 13.8453 14.2012 13.9891C14.6835 14.5162 15.0728 15.1009 15.3692 15.743C15.536 16.1034 15.6764 16.4879 15.7906 16.8967Z" fill="var(--fill-0, #FF6CC8)"/>
<path id="Vector_28" d="M26.1219 14.1596L26.3454 14.4058C26.1988 14.5133 26.0125 14.6088 25.7865 14.6922C25.5533 14.778 25.3681 14.8481 25.2308 14.9025C24.9129 15.0284 24.797 14.6607 25.0878 14.5611C25.4412 14.4403 25.786 14.3064 26.1219 14.1596Z" fill="var(--fill-0, #1C191A)"/>
<path id="Vector_29" d="M22.3332 15.4774C22.2402 15.3755 22.0845 15.3663 21.9854 15.4568C21.8863 15.5473 21.8813 15.7032 21.9743 15.8051C22.0674 15.907 22.2231 15.9162 22.3222 15.8257C22.4213 15.7352 22.4262 15.5793 22.3332 15.4774Z" fill="var(--fill-0, #FF6CC8)"/>
<path id="Vector_30" d="M10.0054 16.113C10.1396 16.113 10.2484 16.0042 10.2484 15.87C10.2484 15.7358 10.1396 15.627 10.0054 15.627C9.87119 15.627 9.7624 15.7358 9.7624 15.87C9.7624 16.0042 9.87119 16.113 10.0054 16.113Z" fill="var(--fill-0, #FF6CC8)"/>
<path id="Vector_31" d="M11.7494 16.001C11.7274 15.861 11.5995 15.7648 11.4637 15.7861C11.3278 15.8073 11.2355 15.9381 11.2574 16.078C11.2793 16.218 11.4072 16.3142 11.5431 16.293C11.6789 16.2717 11.7713 16.141 11.7494 16.001Z" fill="var(--fill-0, #FF6CC8)"/>
<path id="Vector_32" d="M23.5194 16.4058C23.653 16.4058 23.7612 16.2976 23.7612 16.164C23.7612 16.0305 23.653 15.9222 23.5194 15.9222C23.3859 15.9222 23.2776 16.0305 23.2776 16.164C23.2776 16.2976 23.3859 16.4058 23.5194 16.4058Z" fill="var(--fill-0, #FF6CC8)"/>
<path id="Vector_33" d="M10.3737 17.2383C10.5141 17.2383 10.6279 17.1245 10.6279 16.9841C10.6279 16.8438 10.5141 16.73 10.3737 16.73C10.2334 16.73 10.1196 16.8438 10.1196 16.9841C10.1196 17.1245 10.2334 17.2383 10.3737 17.2383Z" fill="var(--fill-0, #FF6CC8)"/>
<path id="Vector_34" d="M23.3627 17.6616C23.5007 17.6616 23.6125 17.5498 23.6125 17.4119C23.6125 17.2739 23.5007 17.1621 23.3627 17.1621C23.2248 17.1621 23.1129 17.2739 23.1129 17.4119C23.1129 17.5498 23.2248 17.6616 23.3627 17.6616Z" fill="var(--fill-0, #FF6CC8)"/>
<path id="Vector_35" d="M27.9427 17.2698L28.0442 17.5873C27.9747 17.617 27.9114 17.6368 27.8546 17.6467C27.4993 17.7091 27.1076 17.7603 26.6795 17.8004C26.6565 17.8025 26.6332 17.8001 26.6112 17.7932C26.5891 17.7863 26.5686 17.7751 26.551 17.7602C26.5333 17.7454 26.5187 17.7271 26.5082 17.7066C26.4976 17.6861 26.4913 17.6637 26.4895 17.6407L26.4891 17.6335C26.4852 17.5854 26.4998 17.5377 26.5298 17.5003C26.5598 17.4629 26.6028 17.4387 26.65 17.4327L27.9427 17.2698ZM10.3467 19.8985L10.2005 20.0396C10.1553 20.081 10.1156 20.0927 10.0814 20.0746L9.6372 19.8408C9.58833 19.815 9.55474 19.7903 9.53642 19.7667C9.45396 19.6607 9.51371 19.5078 9.64397 19.4842C9.70186 19.4736 9.76626 19.4849 9.83717 19.5181C10.0438 19.6145 10.2136 19.7413 10.3467 19.8985ZM28.3195 20.8912L28.2713 21.2462C27.7882 21.1853 27.3018 21.0945 26.8121 20.9737C26.7897 20.9681 26.7687 20.9582 26.7502 20.9444C26.7317 20.9305 26.7162 20.9132 26.7045 20.8933C26.6928 20.8734 26.6852 20.8514 26.6821 20.8285C26.6791 20.8057 26.6806 20.7824 26.6866 20.7602L26.6882 20.753C26.7007 20.7069 26.7303 20.6672 26.7711 20.642C26.8119 20.6168 26.8609 20.6079 26.9081 20.6172L28.3195 20.8912ZM10.1228 21.7294L10.2323 22.054C9.96119 22.1175 9.68752 22.1512 9.41133 22.1552C9.34122 22.156 9.25876 22.1385 9.2257 22.0723C9.15121 21.9214 9.24124 21.7991 9.40416 21.7847C9.63813 21.7643 9.87767 21.7458 10.1228 21.7294Z" fill="var(--fill-0, #1C191A)"/>
<path id="Vector_36" d="M18.2446 23.2148C18.3796 23.2148 18.4891 23.1053 18.4891 22.9702C18.4891 22.8351 18.3796 22.7256 18.2446 22.7256C18.1095 22.7256 18 22.8351 18 22.9702C18 23.1053 18.1095 23.2148 18.2446 23.2148Z" fill="var(--fill-0, #FF6CC8)"/>
<path id="Vector_37" d="M17.2857 22.8642C17.2075 22.7487 17.0543 22.7159 16.9436 22.7908C16.8328 22.8658 16.8064 23.0203 16.8846 23.1358C16.9628 23.2513 17.116 23.2841 17.2268 23.2091C17.3375 23.1341 17.3639 22.9797 17.2857 22.8642Z" fill="var(--fill-0, #FF6CC8)"/>
<path id="Vector_38" d="M14.26 23.9077L14.0855 23.6189L14.6707 23.0453C14.6879 23.0285 14.7082 23.0154 14.7306 23.0067C14.753 22.9981 14.7769 22.9941 14.8009 22.995C14.8249 22.9959 14.8485 23.0017 14.8702 23.0119C14.8919 23.0222 14.9113 23.0368 14.9273 23.0548L14.9324 23.0608C14.9644 23.0971 14.9812 23.1443 14.9796 23.1926C14.978 23.2409 14.958 23.2868 14.9237 23.3209C14.7128 23.5302 14.5378 23.6927 14.3986 23.8085C14.3567 23.8436 14.3105 23.8766 14.26 23.9077ZM27.1881 24.1822L26.9945 24.4483C26.7332 24.3136 26.3387 24.0955 25.811 23.7938C25.7158 23.7392 25.6242 23.6639 25.6752 23.5492C25.7656 23.3456 25.9186 23.4329 26.06 23.5113C26.4421 23.7241 26.8182 23.9477 27.1881 24.1822ZM11.2007 23.9882C11.2665 24.0886 11.3171 24.2041 11.3525 24.3347C11.1273 24.4165 10.8689 24.4812 10.5773 24.5287C10.4689 24.5467 10.3554 24.5558 10.2817 24.4781C10.2179 24.411 10.2158 24.3314 10.2753 24.2395C10.2931 24.2124 10.3355 24.1919 10.4024 24.1778C10.6642 24.1236 10.9303 24.0604 11.2007 23.9882Z" fill="var(--fill-0, #1C191A)"/>
<path id="Vector_39" d="M18.5863 24.0607C18.4864 23.9662 18.332 23.9672 18.2414 24.063C18.1509 24.1587 18.1585 24.3129 18.2584 24.4074C18.3583 24.5019 18.5127 24.5009 18.6032 24.4051C18.6938 24.3094 18.6862 24.1552 18.5863 24.0607Z" fill="var(--fill-0, #FF6CC8)"/>
<path id="Vector_40" d="M16.5053 26.2344L16.2225 26.0292C16.3492 25.7798 16.4812 25.5406 16.6185 25.3114C16.6647 25.2337 16.7623 25.1437 16.8595 25.1736C16.9929 25.215 17.0136 25.356 16.9495 25.4727C16.7809 25.7786 16.6328 26.0325 16.5053 26.2344Z" fill="var(--fill-0, #1C191A)"/>
<path id="Vector_41" d="M8.42801 25.781C8.56441 25.781 8.67499 25.6704 8.67499 25.534C8.67499 25.3976 8.56441 25.2871 8.42801 25.2871C8.29161 25.2871 8.18103 25.3976 8.18103 25.534C8.18103 25.6704 8.29161 25.781 8.42801 25.781Z" fill="var(--fill-0, #FF6CC8)"/>
<path id="Vector_42" d="M24.3716 26.7905L24.1211 26.9251C23.885 26.5573 23.6583 26.1806 23.4411 25.795C23.4156 25.7498 23.4054 25.7003 23.4104 25.6464C23.4212 25.5277 23.5558 25.4564 23.6614 25.5086C23.7094 25.5325 23.7511 25.5751 23.7864 25.6364C24.1386 26.2499 24.3388 26.6032 24.3872 26.6965C24.401 26.7233 24.3958 26.7546 24.3716 26.7905ZM20.2443 27.6095L19.8734 27.5708L19.8444 26.3873C19.8437 26.3632 19.8483 26.3392 19.8577 26.3169C19.8671 26.2946 19.8812 26.2746 19.899 26.258C19.9168 26.2415 19.938 26.2289 19.9611 26.2209C19.9842 26.213 20.0088 26.21 20.0332 26.2121L20.0411 26.2125C20.0933 26.2168 20.142 26.2405 20.1776 26.2788C20.2132 26.3171 20.2331 26.3673 20.2335 26.4196L20.2443 27.6095Z" fill="var(--fill-0, #1C191A)"/>
<path id="Vector_43" d="M7.55047 26.9881C7.68599 26.9881 7.79585 26.8782 7.79585 26.7427C7.79585 26.6072 7.68599 26.4973 7.55047 26.4973C7.41495 26.4973 7.30508 26.6072 7.30508 26.7427C7.30508 26.8782 7.41495 26.9881 7.55047 26.9881Z" fill="var(--fill-0, #FF6CC8)"/>
<path id="Vector_44" d="M8.79222 26.7401C8.6881 26.6493 8.53348 26.6562 8.44684 26.7555C8.36021 26.8548 8.37439 27.0089 8.4785 27.0998C8.58262 27.1906 8.73724 27.1837 8.82387 27.0844C8.91051 26.9851 8.89633 26.831 8.79222 26.7401Z" fill="var(--fill-0, #FF6CC8)"/>
<path id="Vector_45" d="M11.2429 27.8141L11.0577 28.0973C10.7963 28.028 10.5406 27.9335 10.2904 27.8137C10.1507 27.747 10.1144 27.6435 10.1813 27.503C10.2231 27.4161 10.386 27.4532 10.4502 27.4795C10.7131 27.587 10.9773 27.6986 11.2429 27.8141Z" fill="var(--fill-0, #1C191A)"/>
</g>
<defs>
<clipPath id="clip0_270_3555">
<rect width="29" height="30.0357" fill="white"/>
</clipPath>
</defs>
</svg>
