<svg preserveAspectRatio="none" width="100%" height="100%" overflow="visible" style="display: block;" viewBox="0 0 27.2097 21.7241" fill="none" xmlns="http://www.w3.org/2000/svg">
<g id="made-with-blunge 3" clip-path="url(#clip0_258_1297)">
<g id="Group">
<path id="Vector" d="M5.75022 2.19764C5.24333 2.29984 4.79662 2.5057 4.41009 2.81521C4.28221 2.91766 4.1547 3.05752 4.02828 3.18031" stroke="var(--stroke-0, #95DBE8)" stroke-width="0.072656"/>
<path id="Vector_2" d="M4.02592 3.17982C4.01429 3.16795 4.00182 3.16492 3.9885 3.17073" stroke="var(--stroke-0, #22697D)" stroke-width="0.072656"/>
<path id="Vector_3" d="M10.5699 3.31072C10.8297 3.75803 11.0224 4.23599 11.1478 4.74458C11.1975 4.94608 11.2458 5.14383 11.2928 5.33782M15.4004 5.70001C15.304 6.21611 15.2616 6.73172 15.2732 7.24685C15.2961 8.2357 15.5842 9.15698 16.5952 9.54423C16.7531 9.60478 16.9256 9.67417 17.1125 9.75239C17.523 9.92435 17.8299 10.1984 18.0331 10.5745C18.0931 10.6854 18.1738 10.8292 18.275 11.0057C18.4723 11.3505 18.7284 11.6142 19.0833 11.7998C19.4897 12.0127 19.9252 12.1154 20.3897 12.1079C21.03 12.0975 21.5688 11.864 22.0059 11.4075C22.4008 10.9948 22.67 10.4295 22.8022 9.87882C23.0609 8.8046 23.0089 7.63229 22.5378 6.61802M23.9298 7.80085C24.182 8.18278 24.3865 8.57609 24.5434 8.98079M23.9542 20.4964L21.3963 20.4986M20.7835 16.4451C20.59 16.4691 20.2608 16.5201 19.7961 16.598C19.1741 16.7024 18.4949 16.7731 17.7584 16.8102M13.4183 20.5011L10.8216 20.4997M9.04082 20.5026L6.43247 20.4993" stroke="var(--stroke-0, #8A8983)" stroke-width="0.072656"/>
<path id="Vector_4" d="M5.84018 13.4532C5.84962 13.4447 5.86718 13.4418 5.89285 13.4445C6.04083 13.46 6.26219 13.4807 6.55693 13.5066C6.68359 13.5175 6.79827 13.522 6.90095 13.52C7.13018 13.516 7.3496 13.5335 7.55558 13.504C7.62388 13.4941 7.72705 13.4854 7.8651 13.4779C8.08379 13.4659 8.31375 13.4274 8.58185 13.3794C9.41558 13.2298 10.2057 12.8661 10.7764 12.2173C11.1954 11.7404 11.4796 11.192 11.629 10.572C11.6956 10.2962 11.7047 10.0312 11.6563 9.77716C11.5128 9.02263 10.8207 8.61866 10.1447 8.40941C9.83371 8.3135 9.56803 8.24703 9.34764 8.20997C8.58669 8.08185 7.80443 8.02337 7.00085 8.03451C6.62123 8.03959 6.22889 8.05122 5.87033 8.08573C5.60416 8.11164 5.43342 8.12993 5.3581 8.14058C5.02389 8.18805 4.6933 8.25332 4.36635 8.33639C4.22128 8.3732 4.02462 8.44356 3.77638 8.54746C3.34965 8.72595 3.00926 9.00543 2.7552 9.38591" stroke="var(--stroke-0, #FEADDA)" stroke-width="0.072656"/>
<path id="Vector_5" d="M3.08333 5.37372C3.13491 5.12233 3.20587 4.8512 3.29621 4.56033C3.44612 4.07669 3.6624 3.63482 3.94503 3.23473M3.95556 3.22455L4.02604 3.1806" stroke="var(--stroke-0, #8A8983)" stroke-width="0.072656"/>
<path id="Vector_6" d="M10.6686 3.21596C10.6492 3.2501 10.6157 3.28171 10.568 3.31077" stroke="var(--stroke-0, #22697D)" stroke-width="0.072656"/>
<path id="Vector_7" d="M10.568 3.31119C10.2417 2.88131 9.8345 2.56247 9.34625 2.35468C9.29782 2.33409 9.21668 2.30503 9.10286 2.26749C9.021 2.24061 8.93986 2.21166 8.85946 2.18066" stroke="var(--stroke-0, #95DBE8)" stroke-width="0.072656"/>
<path id="Vector_8" d="M4.76163 5.81408C4.65208 5.81447 4.54723 5.8747 4.47014 5.98153C4.39306 6.08835 4.35005 6.23302 4.35057 6.38371C4.35084 6.45832 4.36178 6.53217 4.38278 6.60103C4.40378 6.66989 4.43442 6.73242 4.47296 6.78504C4.5115 6.83767 4.55719 6.87936 4.6074 6.90773C4.65761 6.93611 4.71138 6.95062 4.76562 6.95042C4.87517 6.95004 4.98002 6.88981 5.0571 6.78298C5.13419 6.67616 5.1772 6.53149 5.17667 6.3808C5.17641 6.30619 5.16547 6.23234 5.14447 6.16348C5.12347 6.09462 5.09282 6.03209 5.05428 5.97947C5.01574 5.92684 4.97006 5.88515 4.91985 5.85678C4.86963 5.8284 4.81587 5.81389 4.76163 5.81408ZM15.6595 14.2396C16.4006 14.026 16.9186 13.3736 16.9357 12.6052C16.941 12.3638 16.901 12.1559 16.8158 11.9815C16.653 11.6476 16.3697 11.4649 16.0453 11.2894C15.8782 11.1993 15.7238 11.0831 15.6261 10.9614C15.4401 10.7294 15.3371 10.6021 15.3173 10.5796C15.0807 10.3117 14.7796 10.1627 14.4142 10.1324C13.8806 10.0886 13.4295 10.256 13.0609 10.6348C12.6268 11.0806 12.4699 11.6999 12.5058 12.3157C12.5865 13.6954 13.8089 14.4136 15.0884 14.3435C15.2625 14.3338 15.4529 14.2992 15.6595 14.2396Z" stroke="var(--stroke-0, #8A8983)" stroke-width="0.072656"/>
<path id="Vector_9" d="M5.7248 10.0611C5.7248 9.94411 5.67834 9.83193 5.59563 9.74922C5.51292 9.66652 5.40074 9.62005 5.28378 9.62005C5.16681 9.62005 5.05464 9.66652 4.97193 9.74922C4.88922 9.83193 4.84276 9.94411 4.84276 10.0611C4.84276 10.178 4.88922 10.2902 4.97193 10.3729C5.05464 10.4556 5.16681 10.5021 5.28378 10.5021C5.40074 10.5021 5.51292 10.4556 5.59563 10.3729C5.67834 10.2902 5.7248 10.178 5.7248 10.0611ZM9.3576 10.0622C9.3576 9.94626 9.31044 9.8351 9.22651 9.75314C9.14258 9.67118 9.02874 9.62514 8.91004 9.62514C8.79134 9.62514 8.6775 9.67118 8.59356 9.75314C8.50963 9.8351 8.46248 9.94626 8.46248 10.0622C8.46248 10.1781 8.50963 10.2892 8.59356 10.3712C8.6775 10.4531 8.79134 10.4992 8.91004 10.4992C9.02874 10.4992 9.14258 10.4531 9.22651 10.3712C9.31044 10.2892 9.3576 10.1781 9.3576 10.0622Z" stroke="var(--stroke-0, #8B3C6F)" stroke-width="0.072656"/>
</g>
<path id="Vector_10" d="M5.74826 2.19745C5.24137 2.29966 4.79465 2.50552 4.40812 2.81503C4.28025 2.91748 4.15274 3.05734 4.02632 3.18013C4.01469 3.16826 4.00222 3.16523 3.9889 3.17104C3.78909 2.69442 3.64088 2.20278 3.54424 1.69613C3.52172 1.57843 3.51336 1.45527 3.4992 1.32667C3.47401 1.09514 3.48224 0.861553 3.5239 0.625906C3.54158 0.525156 3.57403 0.425012 3.62126 0.325473C3.76657 0.019228 4.1353 -0.0665057 4.37979 0.185611C4.38899 0.195056 4.41757 0.239981 4.46552 0.320387C4.49144 0.364223 4.51505 0.411086 4.53636 0.460977C4.65818 0.747241 4.73398 0.917983 4.76377 0.973201C5.00911 1.42924 5.33727 1.83732 5.74826 2.19745ZM10.6682 3.21573C10.6488 3.24988 10.6152 3.28148 10.5675 3.31054C10.2413 2.88066 9.83407 2.56182 9.34582 2.35403C9.29739 2.33344 9.21625 2.30438 9.10243 2.26684C9.02057 2.23996 8.93943 2.21102 8.85903 2.18002C9.30114 1.83708 9.63645 1.37644 9.86677 0.877658C9.91738 0.767948 9.98471 0.614039 10.0688 0.41593C10.1498 0.225208 10.3096 0.042115 10.5327 0.0341229C10.816 0.023951 10.9835 0.201958 11.0663 0.455891C11.138 0.676523 11.164 0.920889 11.1444 1.18899C11.1037 1.74578 11.0015 2.25594 10.8378 2.71949C10.7552 2.95368 10.6987 3.1191 10.6682 3.21573Z" fill="var(--fill-0, #2DBBE2)"/>
<path id="Vector_11" d="M8.86038 2.18037C8.94078 2.21137 9.02192 2.24031 9.10378 2.2672C9.2176 2.30473 9.29874 2.3338 9.34717 2.35438C9.83542 2.56218 10.2427 2.88102 10.5689 3.3109C10.8288 3.75822 11.0214 4.23617 11.1469 4.74476C11.1965 4.94626 11.2448 5.14401 11.2918 5.338C11.332 5.55113 11.4433 5.68191 11.6257 5.73034C11.7443 5.76159 11.9044 5.77757 12.1059 5.7783C12.6381 5.78048 13.3418 5.78919 13.9616 5.7565C14.3128 5.73797 14.6649 5.74487 15.0202 5.72344C15.1449 5.71593 15.2713 5.70818 15.3994 5.70019C15.303 6.21629 15.2606 6.73191 15.2723 7.24704C15.2952 8.23588 15.5832 9.15716 16.5942 9.54442C16.7522 9.60496 16.9246 9.67435 17.1116 9.75258C17.5221 9.92453 17.8289 10.1986 18.0321 10.5747C18.0922 10.6856 18.1728 10.8293 18.2741 11.0059C18.4713 11.3506 18.7274 11.6144 19.0823 11.8C19.4887 12.0129 19.9242 12.1156 20.3887 12.1081C21.029 12.0977 21.5678 11.8642 22.0049 11.4077C22.3998 10.995 22.669 10.4297 22.8012 9.879C23.0599 8.80478 23.008 7.63248 22.5368 6.6182C23.077 6.92735 23.5293 7.3295 23.9289 7.80104C24.181 8.18297 24.3855 8.57628 24.5424 8.98097C24.7292 9.59613 24.8592 10.2411 24.9326 10.9158C24.9469 11.0475 24.9556 11.1547 24.9588 11.2373C24.9708 11.557 25.0024 11.8898 24.9856 12.188C24.9631 12.5862 24.9527 12.8158 24.9544 12.8768C24.9588 13.0403 24.9217 13.1896 24.9203 13.3432C24.9192 13.4689 24.8843 13.595 24.8836 13.7316C24.8836 13.743 24.8788 13.7947 24.8694 13.8867C24.8386 14.1865 24.8074 14.4874 24.7757 14.7895C24.767 14.8728 24.7585 14.9365 24.7502 14.9805C24.7346 15.0648 24.7383 15.1335 24.7248 15.2367C24.6611 15.7336 24.6202 16.0527 24.602 16.1939C24.5686 16.453 24.5348 16.7101 24.5007 16.9651C24.4554 17.3044 24.4083 17.6425 24.3594 17.9794C24.247 18.7563 24.1244 19.5309 23.9917 20.303C23.9803 20.3696 23.9675 20.4341 23.9532 20.4966L21.3954 20.4988L21.3656 20.2652V20.2623C21.3648 20.1035 21.3358 19.9549 21.3241 19.7915C21.3106 19.6025 21.2927 19.3745 21.2704 19.1074C21.2585 18.9633 21.2519 18.8546 21.2504 18.7812C21.2487 18.6729 21.2439 18.6001 21.2359 18.5628C21.2043 18.4154 21.2188 18.2577 21.1995 18.0859C21.1833 17.9403 21.1762 17.8222 21.1781 17.7317C21.1817 17.5725 21.1505 17.4265 21.1432 17.2594C21.1331 17.024 21.1167 16.8415 21.0942 16.7119C21.0862 16.6664 21.0654 16.6181 21.0317 16.567C20.9804 16.489 20.8973 16.4484 20.7825 16.4453C20.589 16.4693 20.2599 16.5202 19.7951 16.5982C19.1732 16.7026 18.494 16.7733 17.7575 16.8104C16.5521 16.8157 15.4069 16.7956 14.3219 16.7501C14.2149 16.7457 14.1267 16.7573 14.0575 16.785C14.0468 16.7893 14.0367 16.7947 14.0273 16.8009C13.8377 16.9314 13.8518 17.1689 13.8239 17.3647C13.7963 17.5566 13.7757 17.7388 13.7621 17.9115C13.7611 17.9228 13.7592 17.934 13.7563 17.9449C13.7401 18.0064 13.7317 18.0608 13.7312 18.108C13.7298 18.2257 13.6942 18.3256 13.6931 18.4433C13.6924 18.5385 13.66 18.6119 13.6582 18.7071C13.6568 18.77 13.6487 18.8254 13.6339 18.8731C13.6143 18.9374 13.6226 19.0148 13.6095 19.0983C13.5778 19.2967 13.5452 19.5452 13.5118 19.8438C13.4866 20.069 13.4551 20.2882 13.4174 20.5013L10.8206 20.4999C10.8037 20.4083 10.793 20.3128 10.7887 20.2132C10.7855 20.1473 10.7796 20.0921 10.7709 20.0476C10.7465 19.9226 10.7578 19.778 10.7342 19.6676C10.7138 19.5728 10.7215 19.4776 10.7106 19.382C10.6767 19.0849 10.656 18.8875 10.6484 18.7899C10.6434 18.7278 10.6448 18.6119 10.6277 18.5229C10.6034 18.3961 10.6168 18.266 10.5892 18.1567C10.5602 18.0423 10.5787 17.9271 10.5547 17.8054C10.5416 17.7393 10.5349 17.6613 10.5344 17.5715C10.534 17.4814 10.5006 17.4054 10.4999 17.3168C10.4991 17.2005 10.4664 17.1319 10.4617 17.0247C10.4607 17.0015 10.4518 16.9631 10.4348 16.9096C10.3663 16.6945 10.2291 16.5423 10.0232 16.4529C9.90517 16.4017 9.68866 16.3948 9.59856 16.5027C9.48849 16.6346 9.45616 16.8082 9.44272 16.9949C9.43291 17.1283 9.40457 17.2278 9.40566 17.3615C9.4059 17.374 9.40431 17.3864 9.40094 17.3982C9.36461 17.5275 9.38205 17.6939 9.34863 17.8141C9.32465 17.8999 9.33664 18.0045 9.32247 18.1211C9.28178 18.451 9.25769 18.6648 9.25018 18.7626C9.24751 18.7966 9.24388 18.8355 9.23928 18.8796C9.21603 19.0998 9.16469 19.5424 9.08525 20.2074C9.06709 20.3588 9.05195 20.4572 9.03984 20.5028L6.43149 20.4995C6.38668 20.1299 6.3437 19.7623 6.30253 19.3966C6.29138 19.2965 6.28497 19.2282 6.28327 19.1917C6.27988 19.1132 6.27407 19.0599 6.26583 19.0318C6.23641 18.9323 6.2553 18.8157 6.23386 18.7038C6.20662 18.5636 6.22151 18.4117 6.18845 18.274C6.18218 18.2477 6.17901 18.2208 6.17901 18.1938C6.17853 18.0729 6.16896 17.9695 6.15031 17.8835C6.1462 17.8639 6.14401 17.844 6.14377 17.8239C6.14232 17.623 6.10272 17.4327 6.10199 17.2565C6.10163 17.1163 6.06603 17.0095 6.06785 16.874C6.06966 16.7188 6.02716 16.5408 6.03007 16.4042C6.03333 16.2389 5.99374 16.1093 5.99519 15.9461C5.99664 15.7794 5.95487 15.5756 5.95777 15.4183C5.96104 15.2316 5.91854 15.083 5.92253 14.9082C5.92726 14.7063 5.88403 14.4683 5.88512 14.2718C5.88621 14.0956 5.85242 13.8958 5.84843 13.6927C5.84697 13.6147 5.84455 13.5346 5.84116 13.4522C5.8506 13.4437 5.86816 13.4408 5.89384 13.4435C6.04181 13.459 6.26317 13.4797 6.55791 13.5056C6.68457 13.5165 6.79925 13.521 6.90194 13.5191C7.13117 13.5151 7.35059 13.5325 7.55657 13.5031C7.62486 13.4932 7.72804 13.4844 7.86608 13.4769C8.08478 13.4649 8.31473 13.4264 8.58283 13.3785C9.41656 13.2288 10.2067 12.8652 10.7774 12.2163C11.1964 11.7395 11.4806 11.191 11.63 10.571C11.6966 10.2952 11.7057 10.0302 11.6573 9.77619C11.5138 9.02166 10.8217 8.61769 10.1457 8.40844C9.8347 8.31254 9.56902 8.24606 9.34863 8.209C8.58768 8.08089 7.80541 8.0224 7.00184 8.03354C6.62221 8.03862 6.22987 8.05025 5.87131 8.08476C5.60515 8.11067 5.43441 8.12896 5.35909 8.13962C5.02487 8.18708 4.69428 8.25235 4.36733 8.33542C4.22226 8.37224 4.02561 8.44259 3.77737 8.54649C3.35063 8.72498 3.01024 9.00446 2.75619 9.38494C2.75546 9.02529 2.7511 8.66528 2.77944 8.31508C2.79373 8.13828 2.80039 8.00847 2.79942 7.92564C2.79687 7.74364 2.83393 7.54965 2.83465 7.35566C2.83538 7.24813 2.86699 7.13878 2.86808 7.03088C2.86856 6.98051 2.87619 6.90422 2.89096 6.80202C2.91058 6.66434 2.91458 6.57497 2.92656 6.46453C2.96653 6.10222 3.01932 5.73858 3.08495 5.3736C3.13654 5.12221 3.2075 4.85108 3.29784 4.56022C3.44775 4.07657 3.66402 3.6347 3.94665 3.23461L3.95719 3.22444L4.02767 3.18048C4.15409 3.05769 4.2816 2.91783 4.40947 2.81539C4.796 2.50587 5.24272 2.30001 5.74961 2.19781C5.88548 2.16487 6.00536 2.13944 6.10926 2.12152C6.34285 2.08156 6.65309 2.0376 6.92664 2.02852C7.31801 2.01544 7.63068 2.01908 7.86463 2.03942C8.12207 2.0617 8.38557 2.09658 8.65513 2.14404C8.7118 2.15422 8.76811 2.17928 8.81388 2.17819C8.83229 2.17771 8.84779 2.17843 8.86038 2.18037ZM4.75913 5.8139C4.64958 5.81428 4.54473 5.87451 4.46765 5.98134C4.39056 6.08816 4.34755 6.23283 4.34808 6.38352C4.34834 6.45813 4.35928 6.53198 4.38028 6.60084C4.40128 6.6697 4.43193 6.73223 4.47047 6.78486C4.50901 6.83748 4.55469 6.87917 4.60491 6.90755C4.65512 6.93592 4.70888 6.95043 4.76313 6.95024C4.87267 6.94985 4.97752 6.88962 5.05461 6.78279C5.1317 6.67597 5.17471 6.5313 5.17418 6.38061C5.17392 6.306 5.16297 6.23215 5.14197 6.16329C5.12097 6.09443 5.09033 6.0319 5.05179 5.97928C5.01325 5.92665 4.96757 5.88496 4.91735 5.85659C4.86714 5.82821 4.81337 5.8137 4.75913 5.8139ZM15.657 14.2394C16.3981 14.0258 16.9161 13.3734 16.9332 12.6051C16.9385 12.3636 16.8986 12.1557 16.8133 11.9813C16.6506 11.6474 16.3672 11.4647 16.0428 11.2893C15.8757 11.1992 15.7213 11.0829 15.6236 10.9612C15.4376 10.7292 15.3346 10.6019 15.3148 10.5794C15.0782 10.3115 14.7771 10.1625 14.4117 10.1322C13.8781 10.0884 13.427 10.2558 13.0584 10.6346C12.6243 11.0804 12.4674 11.6998 12.5034 12.3155C12.584 13.6953 13.8064 14.4135 15.0859 14.3433C15.26 14.3337 15.4504 14.299 15.657 14.2394Z" fill="var(--fill-0, #F1EBCB)"/>
<path id="Vector_12" d="M3.94825 3.23513C3.66562 3.63522 3.44935 4.07709 3.29944 4.56073C3.2091 4.8516 3.13814 5.12273 3.08655 5.37412C2.78721 5.40924 2.4915 5.40851 2.19943 5.37194C2.11757 5.36177 2.00289 5.33755 1.8554 5.29928C1.22378 5.13484 0.721118 4.79396 0.347424 4.27665C0.258542 4.15362 0.181163 4.00697 0.115289 3.83672C0.0445702 3.65362 0.0199883 3.49112 0.0415429 3.3492C0.0766599 3.11694 0.194605 2.93675 0.395378 2.80864C0.576291 2.69287 0.804188 2.60968 1.07907 2.55906C1.37115 2.50505 1.67848 2.49016 2.00107 2.51438C2.08608 2.52055 2.15547 2.53545 2.27535 2.55252C2.80356 2.62857 3.29556 2.81953 3.75136 3.12542C3.78139 3.14552 3.81699 3.17773 3.85816 3.22205C3.86616 3.23051 3.87679 3.23601 3.88831 3.23767C3.90817 3.24082 3.92815 3.23997 3.94825 3.23513ZM11.2934 5.33852C11.2464 5.14453 11.1981 4.94678 11.1485 4.74528C11.023 4.23669 10.8304 3.75873 10.5705 3.31141C10.6182 3.28235 10.6517 3.25075 10.6711 3.2166C10.7135 3.19965 10.7762 3.16453 10.8593 3.11125C11.3986 2.76662 12.0056 2.56633 12.6801 2.51038C12.7261 2.50651 12.859 2.50506 13.0789 2.50602C13.2351 2.50651 13.3679 2.51583 13.4771 2.534C13.6992 2.57057 13.898 2.62373 14.0736 2.69348C14.2007 2.74434 14.3697 2.83007 14.4685 2.93433C14.6419 3.11742 14.7081 3.33515 14.6672 3.58751C14.5833 4.10518 14.1858 4.58144 13.755 4.87243C13.5157 5.03421 13.2753 5.153 13.0339 5.22881C12.7236 5.32617 12.4232 5.38017 12.1326 5.39083C11.8776 5.40028 11.5978 5.38284 11.2934 5.33852ZM4.02927 3.181L3.95879 3.22495C3.97938 3.20025 3.9904 3.18257 3.99185 3.17192C4.00517 3.1661 4.01764 3.16913 4.02927 3.181ZM22.5384 6.61872C23.0096 7.63299 23.0615 8.8053 22.8028 9.87952C22.6706 10.4302 22.4014 10.9955 22.0065 11.4082C21.5694 11.8647 21.0306 12.0982 20.3903 12.1086C19.9258 12.1161 19.4903 12.0134 19.0839 11.8005C18.729 11.6149 18.4729 11.3512 18.2757 11.0064C18.1744 10.8299 18.0938 10.6861 18.0337 10.5752C17.8305 10.1991 17.5237 9.92505 17.1132 9.75309C16.9262 9.67487 16.7538 9.60548 16.5958 9.54493C15.5848 9.15768 15.2968 8.2364 15.2739 7.24755C15.2622 6.73242 15.3046 6.21681 15.401 5.70071C16.2581 5.66486 17.1165 5.65445 17.9763 5.66946C18.1311 5.67237 18.2631 5.67806 18.3723 5.68654C18.636 5.70688 18.8042 5.69489 19.0327 5.72977C19.0906 5.73849 19.1786 5.74345 19.2968 5.74466C19.3171 5.74491 19.3373 5.74746 19.3571 5.75229C19.4767 5.78244 19.6154 5.77554 19.7629 5.79552C20.1897 5.85389 20.4743 5.89688 20.617 5.92449C20.7659 5.95355 20.9628 6.00114 21.2077 6.06726C21.6783 6.19465 22.1218 6.37847 22.5384 6.61872Z" fill="var(--fill-0, #171717)"/>
<path id="Vector_13" d="M5.17464 6.38157C5.17355 6.06778 4.98773 5.81405 4.75961 5.81485C4.53149 5.81564 4.34745 6.07066 4.34855 6.38445C4.34964 6.69824 4.53546 6.95197 4.76358 6.95118C4.9917 6.95038 5.17574 6.69536 5.17464 6.38157Z" fill="var(--fill-0, #171717)"/>
<path id="Vector_14" d="M9.20832 6.38157C9.20722 6.06778 9.02141 5.81405 8.79329 5.81485C8.56517 5.81564 8.38113 6.07066 8.38222 6.38445C8.38332 6.69824 8.56913 6.95197 8.79725 6.95118C9.02537 6.95038 9.20941 6.69536 9.20832 6.38157Z" fill="var(--fill-0, #171717)"/>
<path id="Vector_15" d="M24.5441 8.98115C24.3872 8.57646 24.1827 8.18315 23.9305 7.80122C24.5813 7.98141 25.1259 8.32773 25.5642 8.8402C25.7294 9.03322 25.8559 9.20021 25.9438 9.34116C26.2986 9.91006 26.5212 10.5198 26.6115 11.1703C26.6542 11.4771 26.6834 11.7497 26.6991 11.988C26.7071 12.1091 26.7078 12.4998 26.7013 13.16C26.6995 13.367 26.661 13.581 26.6613 13.7935C26.6613 13.795 26.6612 13.7964 26.661 13.7979L26.6243 14.0511C26.6215 14.0704 26.6262 14.0901 26.6373 14.1059C26.6381 14.1067 26.6715 14.1515 26.7376 14.2404C26.8664 14.414 26.968 14.6032 27.0424 14.8078C27.2301 15.3246 27.2302 15.8336 27.0428 16.3347C26.9485 16.5863 26.8064 16.8102 26.6163 17.0064C26.5143 17.1117 26.401 17.1692 26.2762 17.1789C26.2547 17.1806 26.2041 17.1649 26.1244 17.1317C26.0806 17.1133 26.0359 17.0851 25.9903 17.0471C25.6957 16.8008 25.4327 16.3942 25.3419 16.0128C25.26 15.6679 25.2622 15.3126 25.3484 14.9469C25.4102 14.6844 25.5189 14.4452 25.6746 14.2295C25.6792 14.2229 25.6843 14.2167 25.6899 14.2109C25.7691 14.1276 25.8126 14.0599 25.8203 14.0079C25.8528 13.7923 25.8789 13.4398 25.8988 12.9503C25.9208 12.411 25.8913 11.867 25.8102 11.3185C25.7121 10.6559 25.4581 10.044 25.0484 9.48284C24.9001 9.28013 24.7321 9.1129 24.5441 8.98115Z" fill="var(--fill-0, #171717)"/>
<path id="Vector_16" d="M5.84097 13.4518C5.60048 13.4082 5.36508 13.3534 5.13476 13.2876C3.97226 12.9548 3.03645 12.1636 2.72512 10.9793C2.62098 10.5838 2.59798 10.1735 2.6561 9.7485C2.66797 9.66204 2.70127 9.5407 2.756 9.38449C3.01006 9.00402 3.35045 8.72453 3.77718 8.54604C4.02542 8.44215 4.22208 8.37179 4.36715 8.33498C4.6941 8.25191 5.02469 8.18664 5.3589 8.13917C5.43422 8.12851 5.60496 8.11023 5.87113 8.08431C6.22969 8.0498 6.62203 8.03818 7.00165 8.03309C7.80523 8.02195 8.58749 8.08044 9.34844 8.20856C9.56883 8.24561 9.83451 8.31209 10.1455 8.408C10.8215 8.61725 11.5136 9.02121 11.6571 9.77575C11.7055 10.0298 11.6964 10.2948 11.6298 10.5706C11.4804 11.1906 11.1962 11.739 10.7772 12.2159C10.2065 12.8647 9.41638 13.2284 8.58265 13.378C8.31455 13.426 8.08459 13.4645 7.8659 13.4765C7.72785 13.484 7.62468 13.4927 7.55638 13.5026C7.3504 13.5321 7.13098 13.5146 6.90175 13.5186C6.79907 13.5206 6.68439 13.5161 6.55773 13.5052C6.26299 13.4793 6.04163 13.4586 5.89365 13.4431C5.86798 13.4404 5.85042 13.4433 5.84097 13.4518ZM5.72364 10.0609C5.72364 9.94395 5.67717 9.83178 5.59446 9.74907C5.51176 9.66636 5.39958 9.6199 5.28261 9.6199C5.16565 9.6199 5.05347 9.66636 4.97077 9.74907C4.88806 9.83178 4.84159 9.94395 4.84159 10.0609C4.84159 10.1779 4.88806 10.2901 4.97077 10.3728C5.05347 10.4555 5.16565 10.5019 5.28261 10.5019C5.39958 10.5019 5.51176 10.4555 5.59446 10.3728C5.67717 10.2901 5.72364 10.1779 5.72364 10.0609ZM9.35644 10.062C9.35644 9.9461 9.30928 9.83495 9.22535 9.75299C9.14141 9.67103 9.02757 9.62499 8.90887 9.62499C8.8501 9.62499 8.7919 9.63629 8.7376 9.65825C8.6833 9.68021 8.63396 9.71241 8.5924 9.75299C8.55084 9.79357 8.51787 9.84175 8.49538 9.89477C8.47289 9.94779 8.46131 10.0046 8.46131 10.062C8.46131 10.1779 8.50847 10.2891 8.5924 10.371C8.67634 10.453 8.79017 10.499 8.90887 10.499C9.02757 10.499 9.14141 10.453 9.22535 10.371C9.30928 10.2891 9.35644 10.1779 9.35644 10.062Z" fill="var(--fill-0, #FF60C6)"/>
<path id="Vector_17" d="M5.28374 10.5021C5.52731 10.5021 5.72476 10.3046 5.72476 10.0611C5.72476 9.8175 5.52731 9.62005 5.28374 9.62005C5.04017 9.62005 4.84272 9.8175 4.84272 10.0611C4.84272 10.3046 5.04017 10.5021 5.28374 10.5021Z" fill="var(--fill-0, #171717)"/>
<path id="Vector_18" d="M8.91097 10.4998C9.15815 10.4998 9.35853 10.3041 9.35853 10.0627C9.35853 9.82137 9.15815 9.62571 8.91097 9.62571C8.66379 9.62571 8.46341 9.82137 8.46341 10.0627C8.46341 10.3041 8.66379 10.4998 8.91097 10.4998Z" fill="var(--fill-0, #171717)"/>
<path id="Vector_19" d="M16.9341 12.6046C16.9171 13.373 16.399 14.0254 15.6579 14.239C15.4513 14.2986 15.261 14.3332 15.0868 14.3429C13.8074 14.413 12.5849 13.6948 12.5043 12.3151C12.4683 11.6993 12.6253 11.0799 13.0594 10.6342C13.428 10.2554 13.8791 10.088 14.4126 10.1318C14.7781 10.1621 15.0791 10.3111 15.3157 10.579C15.3356 10.6015 15.4385 10.7288 15.6245 10.9608C15.7222 11.0825 15.8766 11.1987 16.0437 11.2888C16.3681 11.4643 16.6515 11.647 16.8142 11.9809C16.8995 12.1553 16.9395 12.3632 16.9341 12.6046ZM20.7834 16.4449C20.7319 16.7587 20.6772 17.0702 20.6196 17.3792C20.4162 18.47 20.2148 19.4113 20.0155 20.203C20.0034 20.2512 19.9642 20.3379 19.8981 20.4631C19.8216 20.6077 19.7064 20.7126 19.5526 20.7777C19.4047 20.8404 19.2659 20.8766 19.1363 20.8863C18.8791 20.9055 18.6731 20.905 18.5184 20.8849C18.3811 20.8672 18.2605 20.8424 18.1566 20.8104C18.1435 20.8063 18.098 20.7868 18.02 20.7519C17.8182 20.6618 17.6896 20.5146 17.6342 20.3102C17.6109 20.2252 17.5859 20.11 17.5844 20.0101C17.581 19.7541 17.5852 19.5716 17.5971 19.4626C17.6244 19.2131 17.6098 19.0045 17.6422 18.7615C17.665 18.5911 17.6451 18.3699 17.6734 18.1824C17.6853 18.1042 17.691 18.0135 17.6905 17.9103C17.6897 17.8246 17.6983 17.703 17.7163 17.5456C17.7286 17.4381 17.7347 17.3152 17.7344 17.1769C17.7342 17.1576 17.7361 17.1382 17.7402 17.1191C17.7611 17.0174 17.7671 16.9143 17.7584 16.81C18.4949 16.7729 19.1741 16.7022 19.796 16.5978C20.2608 16.5198 20.5899 16.4688 20.7834 16.4449ZM9.04078 20.5023C9.03012 20.5408 9.01971 20.6058 9.00954 20.6971C9.00421 20.7474 8.97381 20.8471 8.91835 20.996C8.8239 21.2496 8.63717 21.4505 8.37925 21.5519C8.25307 21.6013 8.12398 21.6327 7.99199 21.6463C7.86678 21.6591 7.69797 21.659 7.48558 21.6459C7.2957 21.6343 7.1028 21.5677 6.90687 21.4461C6.72426 21.3328 6.59784 21.1595 6.52761 20.9263C6.48183 20.7744 6.45011 20.632 6.43243 20.4991L9.04078 20.5023ZM13.4183 20.5009C13.4026 20.6566 13.3723 20.8066 13.3275 20.951C13.274 21.1229 13.2019 21.2566 13.1113 21.3521C12.9442 21.5284 12.726 21.6378 12.4567 21.6805C12.3346 21.6996 12.2717 21.7095 12.2678 21.7102C12.0974 21.7404 11.8947 21.7059 11.7236 21.6754C11.5839 21.6504 11.4709 21.6143 11.3847 21.5671C11.1362 21.4315 10.9735 21.2202 10.8968 20.9332C10.86 20.7956 10.8349 20.651 10.8216 20.4994L13.4183 20.5009ZM23.9541 20.4962C23.9115 20.6768 23.8708 20.8197 23.8321 20.9248C23.7364 21.1842 23.5514 21.3714 23.277 21.4865C23.2596 21.4937 23.1908 21.514 23.0706 21.5471C22.9978 21.5672 22.927 21.5779 22.8585 21.5791C22.6589 21.583 22.4871 21.5813 22.343 21.574C22.3098 21.5726 22.2374 21.5552 22.1258 21.5221C21.8351 21.4356 21.6329 21.2686 21.5191 21.0211C21.451 20.8731 21.4101 20.6989 21.3963 20.4983L23.9541 20.4962Z" fill="var(--fill-0, #171717)"/>
</g>
<defs>
<clipPath id="clip0_258_1297">
<rect width="27.2097" height="21.7241" fill="white"/>
</clipPath>
</defs>
</svg>
