<svg preserveAspectRatio="none" width="100%" height="100%" overflow="visible" style="display: block;" viewBox="0 0 27 25.5138" fill="none" xmlns="http://www.w3.org/2000/svg">
<g id="made-with-blunge 12" clip-path="url(#clip0_258_1418)">
<g id="Group">
<path id="Vector" d="M14.5861 8.20589C14.4317 8.46406 14.3201 8.73929 14.2513 9.03158C14.2435 9.06406 14.231 9.08663 14.2137 9.09929" stroke="var(--stroke-0, #FFB3DC)" stroke-width="0.0825688"/>
<path id="Vector_2" d="M14.2134 9.09839C14.0987 9.18481 13.993 9.24632 13.8964 9.28293C13.778 9.32752 13.6148 9.36756 13.4067 9.40307C13.3112 9.41931 13.0392 9.44518 12.5905 9.48068C12.2289 9.50917 11.8639 9.51041 11.4251 9.53311C10.8598 9.56256 10.182 9.58307 9.39183 9.59463C9.14907 9.5982 8.43678 9.62284 7.25495 9.66853C6.86852 9.68339 6.40077 9.72261 6.02219 9.7705C5.35394 9.85499 4.71912 10.0332 4.11774 10.3051C3.91834 10.3951 3.70614 10.5194 3.50467 10.6333" stroke="var(--stroke-0, #87D6DE)" stroke-width="0.0825688"/>
<path id="Vector_3" d="M3.50525 10.6341C3.51625 10.6082 3.51103 10.583 3.48956 10.5586C2.8758 9.85919 2.51607 9.05043 2.41038 8.13227C2.37405 7.81644 2.40956 7.57369 2.45043 7.21575C2.52103 6.59772 2.72704 5.96277 2.98093 5.43598C3.19121 4.99974 3.30804 4.75506 3.33144 4.70194C3.38635 4.57809 3.46726 4.35226 3.41112 4.22511C3.28066 3.92993 2.56355 4.36713 2.39965 4.47488C1.62969 4.98061 1.03891 5.68245 0.605841 6.48956C0.245841 7.16084 0.0676305 7.88084 0.0712085 8.64956C0.0728598 9.04479 0.0791898 9.28231 0.0901989 9.36213C0.198639 10.1562 0.473731 10.8762 0.915475 11.5221C1.16676 11.8898 1.4369 12.2011 1.72589 12.456C1.77405 12.4984 1.82442 12.5315 1.87699 12.5555" stroke="var(--stroke-0, #FFB3DC)" stroke-width="0.0825688"/>
<path id="Vector_4" d="M1.87655 12.5554C1.88481 12.5513 1.88632 12.5557 1.88109 12.5686C1.5888 13.2957 1.41692 14.0537 1.36545 14.8425C1.3371 15.278 1.33972 15.7874 1.37329 16.3709C1.39421 16.7361 1.39641 17.0035 1.3799 17.173C1.35183 17.462 1.31192 17.7286 1.26017 17.9727C1.17926 18.355 1.00256 18.8104 0.844853 19.1452C0.643385 19.5737 0.449762 19.9738 0.417973 20.3775C0.395129 20.6682 0.399532 20.9975 0.431183 21.3655C0.45678 21.6652 0.519394 22.2773 0.619028 23.2018C0.677239 23.7418 0.747835 24.3466 1.03848 24.7859C1.32582 25.2198 1.82288 25.3734 2.33233 25.4019C2.93261 25.4353 3.59068 25.4551 4.19054 25.361C4.53527 25.3069 4.81972 25.1215 4.84242 24.743C4.87917 24.1299 4.59761 23.6014 4.09146 23.2641C3.97504 23.1868 3.78623 23.0835 3.52504 22.9541C3.47687 22.9304 3.45306 22.8865 3.45362 22.8224C3.45857 22.2981 3.54348 21.7827 3.70834 21.2763C3.84128 20.8692 4.081 20.5445 4.42751 20.302C4.86981 19.9924 5.18976 19.7649 5.38738 19.6196" stroke="var(--stroke-0, #87D6DE)" stroke-width="0.0825688"/>
<path id="Vector_5" d="M5.38765 19.6195C5.40141 19.6311 5.40691 19.6454 5.40416 19.6625C5.31416 20.2124 5.34581 20.7345 5.49912 21.2288C5.60604 21.5727 5.79595 22.0726 5.95696 22.4265C6.25614 23.0829 6.52724 23.682 6.77026 24.224C6.87568 24.4593 6.98591 24.6723 7.10095 24.8631C7.25811 25.1234 7.49618 25.2771 7.81517 25.3242C8.04829 25.3586 8.26517 25.3757 8.46581 25.3754C9.00581 25.3746 9.45747 25.3882 9.97765 25.3242C10.206 25.2961 10.4702 25.233 10.6299 25.0509C10.7926 24.8651 10.7967 24.5138 10.7567 24.2752C10.639 23.5717 10.0759 23.0569 9.4071 22.8525C9.31325 22.8239 9.19283 22.7947 9.04586 22.765C9.03365 22.7625 9.02232 22.7573 9.01283 22.7497C8.98091 22.7236 8.95903 22.6887 8.94719 22.6453C8.88114 22.4075 8.78384 22.0959 8.65531 21.7106C8.52279 21.3122 8.48192 20.9732 8.70444 20.5852C8.7837 20.4477 8.8415 20.3461 8.90797 20.2503C9.44192 19.4772 9.79462 18.6277 9.96609 17.7019" stroke="var(--stroke-0, #80C6C1)" stroke-width="0.0825688"/>
<path id="Vector_6" d="M9.96598 17.7012C9.96653 17.6987 9.96969 17.6967 9.97547 17.695C9.97933 17.6939 9.98304 17.6938 9.98662 17.6946C10.9246 17.8774 11.8585 18.015 12.7882 18.1075C13.242 18.1526 13.6528 18.1819 14.0205 18.1954C14.0406 18.1961 14.06 18.2026 14.0766 18.214C14.0932 18.2254 14.1062 18.2413 14.1142 18.2598C14.1539 18.3523 14.1804 18.4435 14.1939 18.5335C14.4166 20.0162 14.6606 21.5755 14.9259 23.2114C15.0049 23.6989 15.084 24.0876 15.1633 24.3777C15.2636 24.7452 15.4622 25.061 15.8201 25.2175C15.9957 25.2945 16.1546 25.3452 16.2969 25.3694C16.9074 25.4734 17.5539 25.4859 18.2365 25.4069C18.3876 25.3896 18.4722 25.3793 18.4904 25.376C18.7546 25.3306 19.0329 25.1687 19.1542 24.9384C19.2263 24.801 19.2546 24.6181 19.2389 24.3897C19.1856 23.609 18.5668 23.1673 17.8819 22.9497C17.8603 22.9429 17.8417 22.929 17.8291 22.9103C17.8165 22.8915 17.8106 22.869 17.8125 22.8465L18.1097 19.3864" stroke="var(--stroke-0, #87D6DE)" stroke-width="0.0825688"/>
<path id="Vector_7" d="M18.1097 19.387C18.1491 19.4993 18.1876 19.607 18.2253 19.7103C18.8693 21.4726 19.4082 22.9032 19.842 24.0022C20.0373 24.4976 20.2817 24.9497 20.787 25.1697C21.0867 25.3002 21.4101 25.3695 21.7572 25.3778C22.4144 25.3935 22.9647 25.3898 23.4081 25.3666C23.7822 25.3472 24.2243 25.2147 24.3986 24.8584C24.4803 24.6916 24.5108 24.4884 24.4902 24.2487C24.4599 23.8947 24.3178 23.5882 24.0637 23.3293C23.61 22.8665 22.9718 22.8309 22.3793 22.703C22.2819 22.6818 22.2231 22.6204 22.203 22.5188C21.6449 19.6884 21.2122 17.5829 20.775 15.1009" stroke="var(--stroke-0, #80C6C1)" stroke-width="0.0825688"/>
<path id="Vector_8" d="M20.7753 15.101C20.7819 15.0443 20.7928 14.9892 20.8079 14.9359C20.9034 14.6031 20.9792 14.2659 21.0354 13.9244C21.1691 13.1097 21.2488 12.2903 21.2744 11.4663" stroke="var(--stroke-0, #87D6DE)" stroke-width="0.0825688"/>
<path id="Vector_9" d="M21.2735 11.4656C21.3555 11.3547 21.4085 11.2259 21.4324 11.0792C21.4608 10.9064 21.4843 10.7328 21.503 10.5586C21.5208 10.3931 21.5237 10.0355 21.3107 10" stroke="var(--stroke-0, #FFB3DC)" stroke-width="0.0825688"/>
<path id="Vector_10" d="M21.311 10.0012C21.3316 9.81483 21.3528 9.62932 21.3746 9.44464C21.3905 9.31088 21.449 9.1401 21.55 8.9323C21.5572 8.91758 21.569 8.90568 21.5835 8.89845C21.7142 8.8335 21.8295 8.79731 21.9294 8.78987C22.3384 8.75932 22.7016 8.7351 23.0189 8.71721C24.0779 8.65694 25.2082 8.39107 25.9753 7.64341C26.4143 7.2157 26.7081 6.71588 26.8567 6.14396C26.9654 5.72588 26.9786 5.28084 26.8964 4.80882C26.8666 4.63707 26.7923 4.45006 26.7089 4.30597C26.5405 4.01492 26.2771 3.8535 25.9431 3.79487C25.7532 3.76157 25.6234 3.74354 25.5538 3.74079C24.9769 3.71685 24.4037 3.65547 23.8343 3.55666C23.6752 3.52886 23.4791 3.47767 23.246 3.40308C22.7423 3.24166 22.3877 2.90726 22.1441 2.44074C21.9063 1.98469 21.6088 1.57405 21.2515 1.20882C20.4853 0.425652 19.5473 0.201478 18.4797 0.172992" stroke="var(--stroke-0, #87D6DE)" stroke-width="0.0825688"/>
<path id="Vector_11" d="M18.4802 0.172417C18.3608 0.109115 18.2291 0.0741607 18.0851 0.0675552C17.9414 0.0609497 17.7696 0.0586103 17.5695 0.0605369C16.3347 0.0720965 15.2662 0.623656 14.5569 1.60581C14.0585 2.29636 13.6669 3.05366 13.382 3.87769C13.1591 4.52311 13.0564 5.15489 13.074 5.77306C13.0802 5.99393 13.1174 6.26269 13.1607 6.45013C13.3503 7.26783 13.8255 7.85297 14.5863 8.20554" stroke="var(--stroke-0, #FFDB80)" stroke-width="0.0825688"/>
<path id="Vector_12" d="M18.4796 0.172992C18.6166 0.283634 18.7087 0.415193 18.7558 0.56767C18.8858 0.991661 18.9027 1.44373 18.9139 1.89992C18.9392 2.94717 18.9011 3.93744 18.7995 4.87074C18.7373 5.44047 18.6319 5.97373 18.4833 6.47052C18.4139 6.70143 18.3051 6.9446 18.1567 7.20001C18.0081 7.45556 17.7951 7.66529 17.5655 7.89607C17.2661 8.19634 16.9119 8.39616 16.5029 8.49552C16.3565 8.5313 16.1203 8.55909 15.7944 8.57891" stroke="var(--stroke-0, #87B25E)" stroke-width="0.0825688"/>
<path id="Vector_13" d="M15.7948 8.57869C15.5707 8.54677 15.3638 8.50122 15.1739 8.44204C15.0021 8.38837 14.8062 8.30966 14.586 8.20589" stroke="var(--stroke-0, #FF8E5D)" stroke-width="0.0825688"/>
<path id="Vector_14" d="M21.3113 10.0004C19.6038 9.82126 17.9474 9.42823 16.3423 8.82135C16.1653 8.75447 15.9829 8.67342 15.7949 8.57819M21.2741 11.466C21.1734 11.4878 21.0729 11.4958 20.9728 11.49C20.7991 11.4803 20.592 11.4663 20.3514 11.4479C20.069 11.4261 19.5856 11.344 18.9011 11.2014C18.5227 11.1224 18.1025 11.0138 17.6407 10.8757C16.8863 10.6492 16.188 10.391 15.5459 10.1012C15.255 9.96961 14.9267 9.79319 14.5609 9.5719C14.4659 9.51493 14.3891 9.42988 14.3239 9.3758C14.3146 9.36814 14.3065 9.35909 14.3 9.34897C14.2444 9.26392 14.2156 9.18053 14.2137 9.09878" stroke="var(--stroke-0, #868ABB)" stroke-width="0.0825688"/>
<path id="Vector_15" d="M20.7747 15.1009C20.7502 15.0869 20.7358 15.1082 20.7314 15.1649C20.7306 15.1761 20.728 15.187 20.7239 15.1971C20.2324 16.4296 19.4055 17.3663 18.2432 18.0073C18.2371 18.0108 18.2319 18.0157 18.2282 18.0216C18.2244 18.0275 18.2222 18.0342 18.2217 18.0412L18.1094 19.3871M9.96564 17.7018C9.95931 17.685 9.95394 17.6764 9.94954 17.6758C9.31458 17.5809 8.67619 17.4622 8.03435 17.32C8.02895 17.3187 8.02388 17.3163 8.01949 17.313C8.01509 17.3096 8.01147 17.3054 8.00889 17.3005C8.0063 17.2956 8.0048 17.2903 8.00449 17.2848C8.00418 17.2793 8.00507 17.2738 8.0071 17.2688C8.21187 16.7469 8.32059 16.2038 8.33325 15.6393C8.33353 15.6252 8.32954 15.6144 8.32128 15.6066C8.31834 15.6039 8.31476 15.6019 8.31086 15.6008C8.30696 15.5998 8.30288 15.5997 8.29902 15.6007C8.29516 15.6016 8.29165 15.6036 8.28882 15.6063C8.286 15.609 8.28395 15.6124 8.28288 15.6161C8.01701 16.5289 7.59467 17.3988 7.00142 18.1485C6.64224 18.6024 6.25513 18.9722 5.84009 19.2578C5.64963 19.3888 5.49866 19.5094 5.3872 19.6195" stroke="var(--stroke-0, #089D9F)" stroke-width="0.0825688"/>
<path id="Vector_16" d="M3.50501 10.6333C3.41996 10.6991 3.33409 10.7663 3.24739 10.8348C2.67436 11.2873 2.23358 11.8441 1.92505 12.5052C1.91964 12.5174 1.91126 12.528 1.90069 12.5361L1.87675 12.5547" stroke="var(--stroke-0, #868ABB)" stroke-width="0.0825688"/>
<path id="Vector_17" d="M21.0017 3.31226C20.9323 3.31444 20.8641 3.33423 20.8011 3.37051C20.738 3.40678 20.6813 3.45882 20.6342 3.52366C20.5871 3.5885 20.5505 3.66488 20.5266 3.74842C20.5026 3.83196 20.4917 3.92103 20.4945 4.01055C20.4974 4.10007 20.5138 4.18829 20.543 4.27016C20.5721 4.35204 20.6134 4.42597 20.6645 4.48773C20.7156 4.54949 20.7754 4.59787 20.8406 4.63011C20.9059 4.66235 20.9752 4.67783 21.0446 4.67564C21.114 4.67346 21.1822 4.65367 21.2452 4.6174C21.3083 4.58112 21.365 4.52908 21.4121 4.46424C21.4592 4.3994 21.4957 4.32303 21.5197 4.23949C21.5437 4.15595 21.5546 4.06688 21.5518 3.97736C21.5489 3.88783 21.5325 3.79961 21.5033 3.71774C21.4742 3.63587 21.4329 3.56194 21.3818 3.50018C21.3307 3.43842 21.2709 3.39003 21.2056 3.35779C21.1404 3.32555 21.0711 3.31008 21.0017 3.31226Z" stroke="var(--stroke-0, #07575E)" stroke-width="0.0825688"/>
</g>
<path id="Vector_18" d="M18.48 0.172504C18.6171 0.283147 18.7092 0.414706 18.7562 0.567183C18.8863 0.991174 18.9032 1.44324 18.9143 1.89943C18.9397 2.94668 18.9015 3.93695 18.8 4.87026C18.7378 5.43998 18.6324 5.97324 18.4837 6.47003C18.4144 6.70095 18.3055 6.94411 18.1572 7.19952C18.0086 7.45507 17.7955 7.6648 17.566 7.89558C17.2665 8.19585 16.9123 8.39567 16.5033 8.49503C16.3569 8.53081 16.1208 8.55861 15.7949 8.57842C15.5709 8.5465 15.3639 8.50095 15.174 8.44177C15.0022 8.3881 14.8063 8.30939 14.5861 8.20562C13.8253 7.85306 13.3502 7.26792 13.1605 6.45021C13.1172 6.26278 13.08 5.99402 13.0738 5.77315C13.0562 5.15498 13.1589 4.52319 13.3818 3.87778C13.6667 3.05374 14.0583 2.29645 14.5568 1.6059C15.266 0.623743 16.3345 0.0721837 17.5693 0.060624C17.7694 0.0586974 17.9413 0.0610368 18.0849 0.0676423C18.2289 0.0742478 18.3606 0.109202 18.48 0.172504Z" fill="var(--fill-0, #FFB600)"/>
<path id="Vector_19" d="M21.3111 10.0012C19.6036 9.82207 17.9473 9.42904 16.3421 8.82216C16.1652 8.75528 15.9827 8.67423 15.7947 8.579C16.1206 8.55918 16.3567 8.53138 16.5032 8.4956C16.9121 8.39625 17.2664 8.19643 17.5658 7.89615C17.7954 7.66537 18.0084 7.45565 18.157 7.2001C18.3054 6.94469 18.4142 6.70152 18.4836 6.4706C18.6322 5.97381 18.7376 5.44056 18.7998 4.87083C18.9014 3.93753 18.9395 2.94725 18.9142 1.90001C18.903 1.44381 18.8861 0.991748 18.756 0.567758C18.709 0.41528 18.6169 0.283721 18.4799 0.173079C19.5475 0.201565 20.4854 0.425739 21.2517 1.2089C21.6089 1.57413 21.9065 1.98478 22.1443 2.44083C22.3878 2.90735 22.7425 3.24175 23.2461 3.40317C23.4793 3.47776 23.6754 3.52895 23.8344 3.55675C24.4039 3.65556 24.9771 3.71693 25.5539 3.74088C25.6236 3.74363 25.7533 3.76166 25.9432 3.79496C26.2772 3.85358 26.5406 4.01501 26.7091 4.30606C26.7925 4.45014 26.8668 4.63716 26.8965 4.8089C26.9788 5.28092 26.9656 5.72597 26.8569 6.14404C26.7082 6.71597 26.4144 7.21579 25.9754 7.64349C25.2084 8.39115 24.078 8.65702 23.0191 8.7173C22.7017 8.73519 22.3386 8.75941 21.9296 8.78996C21.8297 8.79739 21.7143 8.83358 21.5836 8.89854C21.5691 8.90577 21.5574 8.91767 21.5502 8.93239C21.4492 9.14019 21.3907 9.31097 21.3747 9.44473C21.353 9.62941 21.3318 9.81492 21.3111 10.0012ZM21.0015 3.31309C20.9321 3.31527 20.8639 3.33506 20.8009 3.37133C20.7378 3.4076 20.6811 3.45965 20.634 3.52449C20.5869 3.58933 20.5504 3.6657 20.5264 3.74924C20.5024 3.83278 20.4916 3.92185 20.4944 4.01137C20.4972 4.1009 20.5136 4.18911 20.5428 4.27099C20.572 4.35286 20.6133 4.42679 20.6643 4.48855C20.7154 4.55031 20.7753 4.59869 20.8405 4.63094C20.9057 4.66318 20.975 4.67865 21.0444 4.67647C21.1138 4.67429 21.182 4.65449 21.2451 4.61822C21.3081 4.58195 21.3648 4.52991 21.4119 4.46507C21.459 4.40022 21.4956 4.32385 21.5195 4.24031C21.5435 4.15677 21.5544 4.0677 21.5516 3.97818C21.5488 3.88866 21.5323 3.80044 21.5031 3.71856C21.474 3.63669 21.4327 3.56276 21.3816 3.501C21.3305 3.43924 21.2707 3.39086 21.2055 3.35862C21.1403 3.32637 21.071 3.3109 21.0015 3.31309Z" fill="var(--fill-0, #0DAD70)"/>
<path id="Vector_20" d="M21.5512 3.97788C21.5394 3.6014 21.2931 3.30364 21.0012 3.31281C20.7093 3.32199 20.4822 3.63462 20.494 4.01111C20.5059 4.38759 20.7521 4.68535 21.044 4.67618C21.336 4.667 21.563 4.35437 21.5512 3.97788Z" fill="var(--fill-0, black)"/>
<path id="Vector_21" d="M3.50507 10.6342C3.42002 10.7 3.33415 10.7671 3.24745 10.8357C2.67443 11.2881 2.23365 11.8449 1.92511 12.506C1.9197 12.5182 1.91133 12.5289 1.90076 12.537L1.87681 12.5556C1.82424 12.5316 1.77388 12.4985 1.72571 12.4561C1.43672 12.2012 1.16658 11.8899 0.915297 11.5222C0.473554 10.8763 0.198462 10.1563 0.0900215 9.36222C0.0790123 9.2824 0.0726824 9.04488 0.071031 8.64965C0.0674531 7.88093 0.245664 7.16093 0.605664 6.48965C1.03874 5.68254 1.62952 4.9807 2.39947 4.47497C2.56337 4.36722 3.28048 3.93001 3.41094 4.2252C3.46709 4.35235 3.38617 4.57818 3.33126 4.70203C3.30787 4.75515 3.19103 4.99983 2.98076 5.43607C2.72686 5.96286 2.52085 6.59781 2.45025 7.21584C2.40938 7.57377 2.37388 7.81653 2.41021 8.13235C2.51589 9.05052 2.87562 9.85928 3.48938 10.5586C3.51085 10.5831 3.51608 10.6083 3.50507 10.6342ZM15.795 8.57864C15.983 8.67387 16.1655 8.75492 16.3425 8.8218C17.9476 9.42868 19.6039 9.82171 21.3114 10.0009C21.5245 10.0364 21.5216 10.3939 21.5038 10.5595C21.4851 10.7337 21.4616 10.9072 21.4332 11.0801C21.4093 11.2268 21.3563 11.3556 21.2743 11.4665C21.1736 11.4882 21.0731 11.4962 20.9729 11.4904C20.7992 11.4808 20.5921 11.4668 20.3516 11.4483C20.0692 11.4266 19.5858 11.3444 18.9013 11.2018C18.5228 11.1229 18.1027 11.0143 17.6408 10.8761C16.8864 10.6496 16.1882 10.3914 15.5461 10.1016C15.2552 9.97006 14.9268 9.79364 14.561 9.57235C14.4661 9.51538 14.3893 9.43033 14.3241 9.37625C14.3148 9.36859 14.3067 9.35954 14.3001 9.34942C14.2445 9.26437 14.2158 9.18098 14.2138 9.09923C14.2312 9.08657 14.2437 9.064 14.2514 9.03153C14.3202 8.73923 14.4318 8.464 14.5862 8.20584C14.8064 8.3096 15.0024 8.38832 15.1741 8.44199C15.364 8.50116 15.571 8.54671 15.795 8.57864Z" fill="var(--fill-0, #FE66B9)"/>
<path id="Vector_22" d="M14.2134 9.09848C14.2153 9.18022 14.2441 9.26361 14.2997 9.34866C14.3062 9.35878 14.3143 9.36783 14.3236 9.37549C14.3889 9.42958 14.4656 9.51462 14.5606 9.57159C14.9264 9.79288 15.2547 9.9693 15.5456 10.1009C16.1878 10.3907 16.886 10.6488 17.6404 10.8754C18.1022 11.0135 18.5224 11.1221 18.9008 11.2011C19.5853 11.3437 20.0688 11.4258 20.3511 11.4476C20.5917 11.466 20.7988 11.48 20.9725 11.4897C21.0727 11.4954 21.1731 11.4875 21.2739 11.4657C21.2483 12.2898 21.1686 13.1091 21.0348 13.9238C20.9787 14.2654 20.9028 14.6025 20.8073 14.9353C20.7922 14.9887 20.7813 15.0437 20.7747 15.1004C20.7502 15.0864 20.7358 15.1077 20.7314 15.1644C20.7306 15.1756 20.728 15.1865 20.7239 15.1966C20.2324 16.4291 19.4055 17.3658 18.2432 18.0068C18.2371 18.0103 18.2319 18.0152 18.2282 18.0211C18.2244 18.027 18.2222 18.0337 18.2217 18.0407L18.1094 19.3866L17.8122 22.8466C17.8103 22.8691 17.8161 22.8916 17.8287 22.9104C17.8413 22.9291 17.8599 22.943 17.8815 22.9498C18.5664 23.1674 19.1853 23.6091 19.2385 24.3898C19.2542 24.6182 19.226 24.8011 19.1539 24.9385C19.0325 25.1688 18.7543 25.3307 18.49 25.3761C18.4719 25.3794 18.3872 25.3897 18.2361 25.4071C17.5536 25.486 16.9071 25.4735 16.2966 25.3695C16.1543 25.3453 15.9954 25.2946 15.8198 25.2176C15.4618 25.0611 15.2633 24.7453 15.1629 24.3778C15.0837 24.0877 15.0045 23.699 14.9255 23.2116C14.6602 21.5756 14.4162 20.0163 14.1936 18.5336C14.1801 18.4436 14.1535 18.3524 14.1139 18.2599C14.1059 18.2414 14.0928 18.2255 14.0762 18.2141C14.0597 18.2027 14.0402 18.1962 14.0202 18.1955C13.6525 18.182 13.2417 18.1527 12.7878 18.1076C11.8581 18.0151 10.9243 17.8775 9.98628 17.6947C9.9827 17.6939 9.97899 17.694 9.97514 17.6951C9.96936 17.6968 9.96619 17.6988 9.96564 17.7013C9.95931 17.6845 9.95394 17.6759 9.94954 17.6753C9.31459 17.5804 8.67619 17.4617 8.03436 17.3194C8.02896 17.3182 8.02389 17.3158 8.01949 17.3125C8.0151 17.3091 8.01148 17.3048 8.00889 17.3C8.0063 17.2951 8.0048 17.2898 8.00449 17.2843C8.00419 17.2788 8.00508 17.2733 8.00711 17.2682C8.21188 16.7464 8.32059 16.2032 8.33325 15.6388C8.33353 15.6247 8.32954 15.6138 8.32128 15.6061C8.31835 15.6034 8.31476 15.6014 8.31086 15.6003C8.30696 15.5993 8.30289 15.5992 8.29903 15.6002C8.29517 15.6011 8.29165 15.6031 8.28883 15.6058C8.286 15.6085 8.28395 15.6119 8.28289 15.6156C8.01702 16.5284 7.59468 17.3983 7.00142 18.148C6.64225 18.6019 6.25514 18.9716 5.84009 19.2573C5.64963 19.3883 5.49867 19.5089 5.3872 19.619C5.18958 19.7643 4.86963 19.9918 4.42734 20.3014C4.08082 20.5439 3.8411 20.8687 3.70816 21.2757C3.5433 21.7821 3.45839 22.2975 3.45344 22.8218C3.45289 22.886 3.47669 22.9299 3.52486 22.9535C3.78605 23.0829 3.97486 23.1862 4.09128 23.2636C4.59743 23.6009 4.87899 24.1293 4.84224 24.7424C4.81954 25.121 4.53509 25.3063 4.19036 25.3604C3.5905 25.4545 2.93243 25.4347 2.33215 25.4013C1.8227 25.3728 1.32564 25.2192 1.0383 24.7853C0.747658 24.346 0.677061 23.7412 0.61885 23.2012C0.519217 22.2767 0.456602 21.6646 0.431006 21.3649C0.399355 20.9969 0.394951 20.6676 0.417795 20.377C0.449584 19.9732 0.643208 19.5732 0.844676 19.1446C1.00238 18.8098 1.17908 18.3544 1.26 17.9721C1.31174 17.728 1.35165 17.4615 1.37972 17.1725C1.39624 17.0029 1.39403 16.7355 1.37312 16.3703C1.33954 15.7868 1.33692 15.2774 1.36527 14.842C1.41674 14.0532 1.58862 13.2952 1.88091 12.568C1.88614 12.5551 1.88463 12.5507 1.87637 12.5548L1.90032 12.5362C1.91089 12.5281 1.91926 12.5175 1.92468 12.5053C2.23321 11.8442 2.67399 11.2874 3.24702 10.8349C3.33371 10.7664 3.41958 10.6992 3.50463 10.6334C3.7061 10.5195 3.9183 10.3952 4.1177 10.3052C4.71908 10.0333 5.3539 9.85508 6.02215 9.77059C6.40073 9.7227 6.86848 9.68348 7.25491 9.66861C8.43674 9.62293 9.14903 9.59829 9.39179 9.59471C10.182 9.58315 10.8597 9.56265 11.425 9.5332C11.8639 9.51049 12.2289 9.50925 12.5905 9.48077C13.0391 9.44526 13.3112 9.41939 13.4067 9.40315C13.6148 9.36765 13.778 9.3276 13.8963 9.28302C13.9929 9.24641 14.0986 9.1849 14.2134 9.09848Z" fill="var(--fill-0, #0DAD70)"/>
<path id="Vector_23" d="M20.775 15.101C21.2122 17.583 21.6449 19.6885 22.203 22.519C22.2231 22.6205 22.2819 22.6819 22.3793 22.7031C22.9717 22.8311 23.61 22.8666 24.0637 23.3294C24.3177 23.5884 24.4599 23.8949 24.4902 24.2488C24.5108 24.4885 24.4803 24.6918 24.3985 24.8586C24.2243 25.2149 23.7822 25.3474 23.4081 25.3668C22.9647 25.3899 22.4144 25.3936 21.7572 25.3779C21.4101 25.3697 21.0867 25.3003 20.787 25.1699C20.2816 24.9498 20.0372 24.4977 19.842 24.0023C19.4082 22.9033 18.8693 21.4727 18.2253 19.7104C18.1876 19.6072 18.149 19.4994 18.1097 19.3871L18.222 18.0413C18.2225 18.0343 18.2247 18.0276 18.2285 18.0217C18.2322 18.0158 18.2374 18.0109 18.2434 18.0074C19.4057 17.3664 20.2327 16.4297 20.7242 15.1972C20.7283 15.1871 20.7308 15.1762 20.7316 15.165C20.7361 15.1083 20.7505 15.087 20.775 15.101ZM9.96591 17.7019C9.79444 18.6278 9.44174 19.4773 8.90779 20.2504C8.84132 20.3462 8.78353 20.4477 8.70426 20.5852C8.48174 20.9733 8.52261 21.3122 8.65513 21.7106C8.78366 22.096 8.88096 22.4075 8.94701 22.6453C8.95885 22.6888 8.98073 22.7236 9.01265 22.7498C9.02214 22.7574 9.03347 22.7626 9.04568 22.765C9.19265 22.7948 9.31307 22.8239 9.40692 22.8526C10.0757 23.0569 10.6388 23.5717 10.7565 24.2752C10.7966 24.5138 10.7924 24.8652 10.6298 25.051C10.47 25.233 10.2058 25.2962 9.97747 25.3243C9.45729 25.3883 9.00564 25.3746 8.46564 25.3755C8.26499 25.3757 8.04811 25.3587 7.81499 25.3243C7.496 25.2772 7.25793 25.1235 7.10077 24.8631C6.98573 24.6724 6.8755 24.4593 6.77009 24.224C6.52706 23.6821 6.25596 23.0829 5.95678 22.4265C5.79577 22.0727 5.60587 21.5727 5.49894 21.2288C5.34564 20.7345 5.31398 20.2124 5.40398 19.6625C5.40674 19.6455 5.40123 19.6311 5.38747 19.6196C5.49894 19.5095 5.6499 19.3889 5.84036 19.2579C6.25541 18.9722 6.64252 18.6025 7.00169 18.1486C7.59495 17.3989 8.01729 16.529 8.28316 15.6162C8.28423 15.6125 8.28627 15.6091 8.2891 15.6064C8.29193 15.6036 8.29544 15.6017 8.2993 15.6008C8.30316 15.5998 8.30723 15.5999 8.31113 15.6009C8.31503 15.602 8.31862 15.604 8.32155 15.6067C8.32981 15.6144 8.3338 15.6253 8.33353 15.6393C8.32087 16.2038 8.21215 16.747 8.00738 17.2688C8.00535 17.2739 8.00446 17.2794 8.00477 17.2849C8.00507 17.2904 8.00657 17.2957 8.00916 17.3006C8.01175 17.3054 8.01537 17.3097 8.01976 17.3131C8.02416 17.3164 8.02923 17.3188 8.03463 17.32C8.67646 17.4623 9.31486 17.581 9.94981 17.6759C9.95422 17.6765 9.95958 17.6851 9.96591 17.7019Z" fill="var(--fill-0, #018D82)"/>
</g>
<defs>
<clipPath id="clip0_258_1418">
<rect width="27" height="25.5138" fill="white"/>
</clipPath>
</defs>
</svg>
