<svg preserveAspectRatio="none" width="100%" height="100%" overflow="visible" style="display: block;" viewBox="0 0 25.0377 27.8396" fill="none" xmlns="http://www.w3.org/2000/svg">
<g id="made-with-blunge 11" clip-path="url(#clip0_258_1167)">
<g id="Group">
<path id="Vector" d="M22.3158 4.78557C22.3013 4.78332 22.2909 4.78833 22.2847 4.80059" stroke="var(--stroke-0, #FF9472)" stroke-width="0.0718442"/>
<path id="Vector_2" d="M22.2848 4.79992C22.2537 4.76017 22.2068 4.69024 22.1443 4.59014C22.0533 4.44429 21.9393 4.30156 21.8024 4.16195C21.674 4.03119 21.532 3.91672 21.3763 3.81853C20.958 3.55438 20.496 3.40614 19.9905 3.37381C19.1348 3.31885 18.3132 3.58683 17.6462 4.11345C17.5489 4.19009 17.4196 4.30611 17.2582 4.46154" stroke="var(--stroke-0, #8F8EC7)" stroke-width="0.0718442"/>
<path id="Vector_3" d="M17.261 4.46179C17.2514 4.45805 17.2426 4.45965 17.2346 4.46659" stroke="var(--stroke-0, #883D6B)" stroke-width="0.0718442"/>
<path id="Vector_4" d="M22.6037 6.75164C22.5098 6.72578 22.4054 6.72015 22.2905 6.73476" stroke="var(--stroke-0, #FF9472)" stroke-width="0.0718442"/>
<path id="Vector_5" d="M22.2847 4.79957C22.534 5.43347 22.5358 6.07852 22.2901 6.73469" stroke="var(--stroke-0, #8FBB79)" stroke-width="0.0718442"/>
<path id="Vector_6" d="M22.2902 6.73473C22.2548 6.80275 22.2208 6.87339 22.1882 6.94667C22.0901 7.16795 22.0054 7.33104 21.8581 7.63386C21.4816 8.40655 21.3092 9.18785 21.4525 10.0439C21.5076 10.3734 21.6379 10.6675 21.8434 10.9261C22.1214 11.2765 22.4913 11.4871 22.953 11.558" stroke="var(--stroke-0, #8F8EC7)" stroke-width="0.0718442"/>
<path id="Vector_7" d="M19.5754 20.9443C19.4425 21.0183 19.3073 21.0852 19.1698 21.1451C18.3223 21.5134 17.437 21.7324 16.5141 21.8021C16.2576 21.8215 15.9751 21.8252 15.6667 21.8132M14.8038 21.6904C14.8347 21.6638 14.863 21.6392 14.8886 21.6167C15.2256 21.321 15.5628 21.0235 15.9002 20.7244C16.5166 20.1779 17.0638 19.5875 17.5418 18.9531C18.072 18.2494 18.4718 17.4149 18.6303 16.5675C18.717 16.1041 18.754 15.6853 18.7413 15.311C18.7154 14.5494 18.5279 13.767 18.1299 13.1226C18.0372 12.9724 17.8658 12.7486 17.7415 12.6754C17.7138 12.6588 17.6965 12.6503 17.6898 12.6499C17.6796 12.6493 17.6693 12.6509 17.6597 12.6546C17.6501 12.6582 17.6414 12.6639 17.6342 12.6712C17.6269 12.6785 17.6213 12.6873 17.6177 12.6969C17.6141 12.7065 17.6126 12.7168 17.6133 12.7271C17.6523 13.3509 17.5798 13.9596 17.3956 14.553C17.0989 15.5093 16.4703 16.3531 15.7234 16.9993C14.6145 17.9591 13.2344 18.4779 11.781 18.7146C10.8144 18.8719 9.83653 18.9173 8.84723 18.8507C8.6572 18.8378 8.50956 18.8094 8.3375 18.7922C8.23979 18.7824 8.12304 18.7649 7.98726 18.7397C7.87279 18.7184 7.75664 18.6963 7.63881 18.6733" stroke="var(--stroke-0, #8FBB79)" stroke-width="0.0718442"/>
<path id="Vector_8" d="M17.2451 4.48555C17.244 4.48055 17.2488 4.47253 17.2593 4.46149" stroke="var(--stroke-0, #186472)" stroke-width="0.0718442"/>
<path id="Vector_9" d="M9.4736 12.9422C9.01979 13.0653 8.61961 13.2601 8.27309 13.5266C7.72994 13.9444 7.25685 14.5587 7.04096 15.2232C7.00264 15.3418 6.96492 15.4637 6.9278 15.5889" stroke="var(--stroke-0, #16B19F)" stroke-width="0.0718442"/>
<path id="Vector_10" d="M20.2381 4.97258C20.1165 4.97407 20.0007 5.03491 19.916 5.14172C19.8313 5.24853 19.7848 5.39256 19.7866 5.54212C19.7885 5.69168 19.8385 5.83453 19.9257 5.93923C20.013 6.04394 20.1303 6.10194 20.2518 6.10046C20.312 6.09973 20.3714 6.08442 20.4267 6.0554C20.482 6.02638 20.532 5.98422 20.5739 5.93134C20.6158 5.87845 20.6488 5.81587 20.671 5.74716C20.6932 5.67846 20.7042 5.60498 20.7033 5.53092C20.7015 5.38136 20.6514 5.23851 20.5642 5.13381C20.477 5.0291 20.3596 4.9711 20.2381 4.97258Z" stroke="var(--stroke-0, #186472)" stroke-width="0.0718442"/>
</g>
<path id="Vector_11" d="M22.3147 4.78509C22.3008 4.78293 22.2909 4.78772 22.2849 4.79946C22.2538 4.7597 22.2069 4.68978 22.1444 4.58967C22.0534 4.44383 21.9394 4.3011 21.8025 4.16148C21.6741 4.03073 21.5321 3.91625 21.3764 3.81807C20.958 3.55392 20.4961 3.40568 19.9905 3.37335C19.1349 3.31839 18.3133 3.58637 17.6463 4.11299C17.549 4.18962 17.4197 4.30565 17.2583 4.46107C17.2497 4.45772 17.2418 4.45916 17.2346 4.46538C16.7781 4.43018 16.368 4.30589 16.0043 4.09251C15.3414 3.70335 14.9531 3.11136 14.8393 2.31652C14.8204 2.18576 14.8209 2.01513 14.8407 1.80463C14.8716 1.47367 14.9832 1.17635 15.1755 0.912685C15.2445 0.81809 15.3417 0.729841 15.4672 0.647939C15.8178 0.418396 16.2464 0.47192 16.5844 0.703977C16.8071 0.857005 17.0536 1.04991 17.3237 1.28268C17.3895 1.33944 17.476 1.4059 17.583 1.48205C17.7835 1.6243 18.0023 1.71806 18.1265 1.43535C18.1308 1.42606 18.1339 1.41627 18.1355 1.40625C18.1803 1.16653 18.2072 1.02811 18.2164 0.990995C18.2834 0.718466 18.4228 0.478626 18.6345 0.271475C18.882 0.0297188 19.211 -0.0467952 19.5404 0.0347481C19.9546 0.137845 20.2607 0.443183 20.4529 0.82252C20.5043 0.923821 20.5615 1.06128 20.6242 1.23491C20.7133 1.48133 20.894 1.75901 21.1612 1.45762C21.4641 1.116 21.8603 0.764685 22.3585 0.845151C22.7838 0.913762 23.1258 1.31896 23.225 1.7195C23.2848 1.96089 23.3012 2.22887 23.2742 2.52343C23.245 2.84386 23.178 3.16488 23.0734 3.48651C22.9204 3.95756 22.6749 4.37318 22.337 4.73336C22.3288 4.74198 22.3214 4.75923 22.3147 4.78509Z" fill="var(--fill-0, #FE67C0)"/>
<path id="Vector_12" d="M9.474 12.942C9.02019 13.0651 8.62002 13.2599 8.27349 13.5265C7.73034 13.9443 7.25725 14.5585 7.04136 15.2231C7.00304 15.3416 6.96532 15.4635 6.9282 15.5888C6.71866 15.2703 6.47762 15.0194 6.20509 14.8362C5.89832 14.6298 5.56185 14.5266 5.19568 14.5266C4.86975 14.5263 4.54417 14.615 4.21896 14.7927C3.73257 15.0582 3.36185 15.4932 3.091 15.9778C3.03568 16.0767 2.96264 16.2191 2.87188 16.4049C2.83763 16.4749 2.78075 16.5253 2.70125 16.5562C2.44548 16.6553 2.26839 16.4505 2.16744 16.2433C2.06064 16.0237 1.99059 15.8121 1.9573 15.6085C1.8354 14.8647 1.89695 14.1594 2.14194 13.4927C2.44871 12.6586 3.07627 11.8992 3.93302 11.6029C3.96271 11.5928 4.04833 11.5696 4.18986 11.5332C4.28517 11.5087 4.37282 11.4946 4.45281 11.4908C4.72103 11.4776 4.91728 11.4816 5.04157 11.5026C5.38451 11.5606 5.7005 11.6573 5.98956 11.7929C6.08894 11.8396 6.1566 11.8678 6.19252 11.8777C6.19396 11.8782 6.19553 11.8782 6.19697 11.8777C6.19841 11.8772 6.19964 11.8762 6.20047 11.8749C6.2013 11.8736 6.20167 11.8721 6.20153 11.8706C6.20139 11.8691 6.20075 11.8676 6.1997 11.8665C6.00931 11.6366 5.84036 11.4653 5.69284 11.3525C5.13497 10.9257 4.50993 10.7174 3.81699 10.7792C3.12369 10.8413 2.448 11.239 2.00615 11.7422C1.70297 12.0873 1.45762 12.4699 1.27011 12.8899C1.1748 13.1031 1.08523 13.3189 1.00141 13.5373C0.975069 13.6055 0.920587 13.662 0.837967 13.7068C0.470483 13.9055 0.209689 13.288 0.145388 13.039C0.0261266 12.5778 0.00193893 12.1049 0.0728252 11.6205C0.101563 11.4243 0.12611 11.2837 0.146466 11.1987C0.227171 10.8625 0.340565 10.5453 0.486648 10.2472C0.842996 9.51937 1.33932 8.89074 1.97562 8.36124C2.37675 8.02741 2.82027 7.77332 3.30618 7.59898C3.38975 7.56904 3.52542 7.53288 3.71317 7.49049C3.86429 7.45649 4.00235 7.43398 4.12735 7.42296C4.67696 7.37411 5.21232 7.46164 5.73343 7.68555C6.26197 7.91234 6.72045 8.24426 7.10889 8.68131C7.13332 8.70909 7.22875 8.82727 7.39519 9.03586C7.44297 9.09585 7.46632 9.16841 7.51768 9.21799C7.5202 9.22035 7.52345 9.22182 7.52691 9.22217C7.53037 9.22251 7.53383 9.2217 7.53674 9.21987C7.53964 9.21804 7.54183 9.2153 7.54293 9.21209C7.54404 9.20888 7.544 9.20539 7.54283 9.20218C7.52152 9.14111 7.49422 9.05239 7.46093 8.936C7.22264 8.10548 6.75937 7.43445 6.0711 6.92292C5.53155 6.52167 4.8652 6.29967 4.18555 6.23178C3.86393 6.19969 3.52338 6.21562 3.16392 6.27956C2.68472 6.36481 2.24995 6.51102 1.85959 6.71817C1.50157 6.90832 1.12091 7.16516 0.717627 7.4887C0.700864 7.50211 0.658476 7.52234 0.590463 7.54941C0.424503 7.6155 0.240223 7.57491 0.160116 7.41542C0.107311 7.31088 0.104078 7.18947 0.127427 7.05835C0.203941 6.62728 0.387144 6.17287 0.614531 5.77737C1.14115 4.85992 1.87887 4.11298 2.82769 3.53655C3.51381 3.11961 4.23608 2.8557 4.99452 2.74482C5.11018 2.72794 5.21184 2.72902 5.3232 2.70243C5.33968 2.69861 5.35654 2.69657 5.37349 2.69633C5.57825 2.69154 5.82922 2.69094 6.12642 2.69453C6.24245 2.69597 6.34375 2.71644 6.47487 2.73225C7.31041 2.83427 8.06681 3.13374 8.74407 3.63066C9.05324 3.85745 9.32624 4.10807 9.56309 4.38251C10.4047 5.35887 10.8617 6.60896 10.9148 7.90252C10.9504 8.77255 10.8505 9.65552 10.5969 10.4889C10.3943 11.1544 10.1174 11.7974 9.76605 12.4179C9.66834 12.5904 9.57099 12.7651 9.474 12.942Z" fill="var(--fill-0, #0DAD70)"/>
<path id="Vector_13" d="M22.2854 4.79989C22.5347 5.4338 22.5365 6.07884 22.2908 6.73502C22.2553 6.80303 22.2213 6.87368 22.1888 6.94696C22.0907 7.16824 22.0059 7.33132 21.8586 7.63415C21.4822 8.40683 21.3097 9.18814 21.4531 10.0442C21.5082 10.3737 21.6384 10.6678 21.8439 10.9264C22.1219 11.2768 22.4918 11.4874 22.9535 11.5583C23.1674 12.1196 23.3076 12.6764 23.3742 13.2287C23.4082 13.5103 23.4335 13.8604 23.45 14.279C23.4629 14.6033 23.4343 15.0432 23.3641 15.5988C23.1755 17.0942 22.493 18.5336 21.4304 19.612C20.8959 20.1542 20.2778 20.5982 19.5761 20.944C19.4432 21.018 19.308 21.0849 19.1706 21.1448C18.3231 21.5131 17.4378 21.7321 16.5149 21.8018C16.2584 21.8212 15.9759 21.8249 15.6675 21.813C15.5338 21.8223 15.3864 21.815 15.2253 21.7911C15.0777 21.769 14.9375 21.7354 14.8046 21.6901C14.8355 21.6635 14.8638 21.639 14.8894 21.6165C15.2263 21.3207 15.5635 21.0233 15.9009 20.7242C16.5174 20.1777 17.0646 19.5872 17.5426 18.9528C18.0728 18.2491 18.4726 17.4147 18.631 16.5673C18.7177 16.1039 18.7547 15.685 18.742 15.3107C18.7162 14.5492 18.5286 13.7668 18.1306 13.1223C18.038 12.9722 17.8666 12.7484 17.7423 12.6751C17.7145 12.6586 17.6973 12.6501 17.6906 12.6496C17.6803 12.649 17.6701 12.6506 17.6605 12.6543C17.6509 12.658 17.6422 12.6637 17.6349 12.671C17.6277 12.6783 17.6221 12.687 17.6185 12.6967C17.6149 12.7063 17.6134 12.7166 17.6141 12.7268C17.6531 13.3507 17.5805 13.9593 17.3964 14.5527C17.0997 15.509 16.471 16.3528 15.7242 16.999C14.6153 17.9589 13.2352 18.4776 11.7818 18.7143C10.8152 18.8717 9.83729 18.917 8.848 18.8505C8.65797 18.8375 8.51033 18.8092 8.33826 18.7919C8.24056 18.7821 8.12381 18.7646 7.98802 18.7395C7.87355 18.7182 7.7574 18.696 7.63958 18.673C7.55959 18.5882 7.49697 18.5103 7.45171 18.4392C6.97107 17.681 6.77505 16.851 6.86366 15.9494C6.87635 15.8198 6.89791 15.6997 6.92832 15.5891C6.96544 15.4639 7.00316 15.342 7.04147 15.2234C7.25737 14.5589 7.73046 13.9446 8.2736 13.5268C8.62013 13.2603 9.0203 13.0655 9.47412 12.9424C9.83119 12.8854 10.2703 12.8318 10.7914 12.7818C11.1722 12.7449 11.6207 12.6702 12.137 12.5576C12.1624 12.5521 12.3164 12.5087 12.599 12.4272C12.8938 12.3422 13.2018 12.2043 13.5229 12.0134C14.254 11.579 14.7876 10.9664 15.1236 10.1756C15.2211 9.94622 15.2854 9.78337 15.3165 9.6871C15.4738 9.19999 15.6035 8.68248 15.7055 8.13454C15.7362 7.97074 15.8174 7.64193 15.9491 7.14812C16.1098 6.54559 16.3254 5.98017 16.596 5.45188C16.7656 5.1202 16.9822 4.79738 17.2459 4.48342C17.2449 4.47887 17.2492 4.47156 17.2588 4.46151C17.4202 4.30608 17.5495 4.19005 17.6468 4.11342C18.3138 3.5868 19.1354 3.31882 19.991 3.37378C20.4966 3.40611 20.9585 3.55435 21.3769 3.8185C21.5326 3.91669 21.6746 4.03116 21.803 4.16192C21.9399 4.30153 22.0539 4.44426 22.1449 4.59011C22.2074 4.69021 22.2543 4.76014 22.2854 4.79989ZM20.2388 4.97271C20.1173 4.9742 20.0014 5.03504 19.9168 5.14185C19.8321 5.24867 19.7856 5.3927 19.7874 5.54226C19.7892 5.69182 19.8393 5.83466 19.9265 5.93937C20.0137 6.04408 20.131 6.10207 20.2526 6.1006C20.3128 6.09987 20.3722 6.08455 20.4275 6.05554C20.4827 6.02652 20.5328 5.98436 20.5747 5.93147C20.6166 5.87858 20.6496 5.816 20.6718 5.7473C20.694 5.67859 20.705 5.60511 20.7041 5.53105C20.7022 5.38149 20.6522 5.23865 20.565 5.13394C20.4777 5.02923 20.3604 4.97124 20.2388 4.97271Z" fill="var(--fill-0, #1FB5CE)"/>
<path id="Vector_14" d="M17.2612 4.46176C17.2505 4.47297 17.2457 4.48111 17.2468 4.48618L17.2348 4.46656C17.2428 4.45962 17.2516 4.45802 17.2612 4.46176Z" fill="var(--fill-0, #111315)"/>
<path id="Vector_15" d="M22.3151 4.78552C22.3182 4.7872 22.3207 4.78947 22.3226 4.79235C22.3248 4.79522 22.3273 4.7969 22.3302 4.79738C22.8683 4.87928 23.4111 5.04093 23.9136 5.21228C24.2402 5.32399 24.6274 5.46481 24.8846 5.68465C24.984 5.76967 25.0215 5.87731 24.9971 6.00759C24.9949 6.01964 24.99 6.03118 24.9827 6.04136C24.924 6.12494 24.8322 6.18948 24.7072 6.23498C24.132 6.44548 23.5505 6.56834 22.9261 6.69873C22.8981 6.70448 22.8442 6.71167 22.7645 6.72029C22.7128 6.72603 22.6592 6.73657 22.6039 6.7519C22.51 6.72603 22.4056 6.72041 22.2907 6.73501C22.5364 6.07884 22.5346 5.4338 22.2853 4.79989C22.2913 4.78816 22.3012 4.78337 22.3151 4.78552Z" fill="var(--fill-0, #FFC124)"/>
<path id="Vector_16" d="M20.7036 5.53111C20.6998 5.21965 20.4915 4.96968 20.2384 4.97277C19.9853 4.97586 19.7832 5.23085 19.787 5.54231C19.7908 5.85376 19.999 6.10373 20.2522 6.10064C20.5053 6.09755 20.7074 5.84256 20.7036 5.53111Z" fill="var(--fill-0, #111315)"/>
<path id="Vector_17" d="M22.6037 6.75161C22.7826 6.84357 22.9128 6.91721 22.9945 6.97253C23.506 7.31858 23.9248 7.76522 24.2507 8.31243C24.4947 8.7217 24.6475 9.16295 24.7091 9.63616C24.7263 9.76955 24.7244 9.92438 24.7033 10.1006C24.6286 10.7257 24.2575 11.2203 23.6702 11.4556C23.4391 11.5483 23.2001 11.5824 22.9532 11.558C22.4915 11.4871 22.1216 11.2765 21.8436 10.9261C21.6381 10.6675 21.5078 10.3734 21.4527 10.0439C21.3094 9.18785 21.4818 8.40655 21.8583 7.63386C22.0056 7.33104 22.0903 7.16795 22.1884 6.94667C22.221 6.87339 22.255 6.80274 22.2904 6.73473C22.4054 6.72012 22.5098 6.72575 22.6037 6.75161Z" fill="var(--fill-0, #FE67C0)"/>
<path id="Vector_18" d="M14.8041 21.6903C14.4053 22.0579 13.9829 22.4056 13.5367 22.7332C13.3391 22.8781 13.1801 22.9823 13.0597 23.046C12.9816 23.087 12.908 23.1311 12.8388 23.1782C12.8106 23.1974 12.7907 23.2265 12.7831 23.2598L12.1171 26.2273C12.1146 26.238 12.1163 26.2493 12.1218 26.2589C12.1273 26.2685 12.1363 26.2757 12.1469 26.279C12.8901 26.5201 13.5576 26.746 14.2455 27.0478C14.4387 27.1325 14.5967 27.2315 14.7193 27.3445C14.8191 27.4367 14.833 27.5468 14.7609 27.675C14.7548 27.6858 14.746 27.695 14.7354 27.7016C14.6353 27.7648 14.56 27.7978 14.5095 27.8007C14.3107 27.8122 14.1596 27.811 14.0562 27.7971C13.9625 27.7844 13.8947 27.776 13.8528 27.772C13.7587 27.7629 13.6912 27.755 13.6502 27.7483C13.121 27.664 12.4507 27.5522 11.6393 27.4131C11.3201 27.3583 10.9773 27.3859 10.6109 27.4961C10.4854 27.5339 10.1724 27.6152 9.67186 27.74C9.58684 27.7613 9.50757 27.7732 9.43405 27.7756C9.27851 27.7802 9.13662 27.7842 9.02705 27.6502C9.01883 27.6401 9.01349 27.6278 9.01161 27.6146C8.99844 27.5136 9.0249 27.4275 9.091 27.3563C9.1923 27.2474 9.29587 27.1597 9.40172 27.0934C9.83901 26.8201 10.2824 26.5856 10.7319 26.3897C10.7399 26.3862 10.747 26.3809 10.7526 26.3742C10.7581 26.3676 10.762 26.3597 10.7639 26.3512L11.4938 23.0996C11.4956 23.0915 11.495 23.083 11.4921 23.0753C11.4891 23.0676 11.484 23.0609 11.4773 23.0561C11.2632 22.9026 11.0921 22.7287 10.964 22.5345C10.7398 22.1952 10.5749 21.8931 10.4693 21.6282C10.3738 21.389 10.2818 21.1872 10.1934 21.0229C10.1284 20.9015 10.0533 20.8106 9.91972 20.7222C9.61366 20.5194 9.42878 20.3958 9.36508 20.3515C8.701 19.8903 8.12565 19.3309 7.63902 18.6732C7.75685 18.6962 7.873 18.7184 7.98747 18.7397C8.12325 18.7648 8.24 18.7823 8.33771 18.7921C8.50978 18.8094 8.65742 18.8378 8.84744 18.8507C9.83674 18.9173 10.8147 18.8719 11.7812 18.7146C13.2346 18.4778 14.6147 17.9591 15.7237 16.9993C16.4705 16.353 17.0991 15.5092 17.3958 14.553C17.58 13.9595 17.6526 13.3509 17.6135 12.7271C17.6128 12.7168 17.6143 12.7065 17.6179 12.6969C17.6215 12.6873 17.6271 12.6785 17.6344 12.6712C17.6416 12.6639 17.6503 12.6582 17.6599 12.6545C17.6695 12.6508 17.6798 12.6492 17.69 12.6498C17.6967 12.6503 17.714 12.6588 17.7418 12.6753C17.8661 12.7486 18.0374 12.9724 18.1301 13.1226C18.5281 13.767 18.7156 14.5494 18.7415 15.3109C18.7542 15.6852 18.7172 16.1041 18.6305 16.5675C18.4721 17.4149 18.0722 18.2494 17.542 18.9531C17.064 19.5875 16.5168 20.1779 15.9004 20.7244C15.563 21.0235 15.2258 21.3209 14.8888 21.6167C14.8632 21.6392 14.8349 21.6638 14.8041 21.6903Z" fill="var(--fill-0, #FFC124)"/>
<path id="Vector_19" d="M19.5758 20.9437C19.5296 21.0814 19.473 21.209 19.4059 21.3263C19.108 21.8486 18.7508 22.3301 18.3344 22.7707C18.2242 22.8871 18.0818 23.0125 17.9073 23.1468C17.9029 23.1502 17.8995 23.1547 17.8975 23.1598C17.8955 23.1649 17.8949 23.1705 17.8958 23.1759L18.3477 26.0939C18.3498 26.1079 18.3561 26.1209 18.3657 26.1312C18.3753 26.1415 18.3878 26.1487 18.4015 26.1517C19.1827 26.3309 19.9456 26.5585 20.6901 26.8346C20.8944 26.9103 21.0776 27.0055 21.2398 27.1202C21.4944 27.3002 21.3353 27.5056 21.1083 27.5739C20.9639 27.617 20.8007 27.6324 20.6187 27.6202C20.2101 27.5927 19.7036 27.5383 19.0992 27.4571C18.4552 27.3704 17.9859 27.3084 17.6914 27.2711C17.6387 27.2644 17.5231 27.2737 17.3447 27.2991C17.252 27.3123 17.1459 27.3271 17.0264 27.3436C16.8689 27.3652 16.7635 27.3829 16.7103 27.3968C16.707 27.3978 16.5908 27.4121 16.3619 27.4399C16.1762 27.4622 15.8457 27.4331 15.9294 27.1561C15.943 27.1109 15.9911 27.0478 16.0734 26.9668C16.1817 26.8607 16.3399 26.7405 16.548 26.6061C16.69 26.5147 16.8794 26.4015 17.1163 26.2667C17.1265 26.2608 17.1347 26.2519 17.1397 26.2412C17.1446 26.2305 17.1461 26.2186 17.1439 26.2071L17.067 25.7914C17.0663 25.7876 17.066 25.7836 17.066 25.7796C17.0664 25.7161 17.0567 25.6562 17.0369 25.6C17.0352 25.5949 17.034 25.5898 17.0333 25.5845L16.6672 23.2349C16.6659 23.2243 16.6612 23.2145 16.6539 23.2068C16.6123 23.1627 16.5404 23.1339 16.4919 23.0994C16.0479 22.7833 15.773 22.3544 15.6672 21.8127C15.9756 21.8247 16.2581 21.821 16.5146 21.8016C17.4375 21.7319 18.3228 21.5129 19.1703 21.1445C19.3077 21.0847 19.4429 21.0177 19.5758 20.9437Z" fill="var(--fill-0, #FFC124)"/>
</g>
<defs>
<clipPath id="clip0_258_1167">
<rect width="25.0377" height="27.8396" fill="white"/>
</clipPath>
</defs>
</svg>
