<svg preserveAspectRatio="none" width="100%" height="100%" overflow="visible" style="display: block;" viewBox="0 0 28.644 19.975" fill="none" xmlns="http://www.w3.org/2000/svg">
<g id="made-with-blunge 1" clip-path="url(#clip0_270_3603)">
<g id="Group">
<path id="Vector" d="M2.13001 7.16661C2.11397 7.15474 2.11045 7.16166 2.11946 7.18737M1.99882 7.4214C1.98563 7.39437 1.97849 7.4091 1.97739 7.46557M1.42297 9.35265C1.40166 9.39088 1.39792 9.43286 1.41176 9.47856M1.35375 10.0027C1.30607 10.4556 1.32442 10.9057 1.4088 11.3531M1.43352 11.455C1.4311 11.4657 1.43352 11.4742 1.44077 11.4803M1.44077 11.4853C1.43572 11.4939 1.43758 11.5033 1.44637 11.5136M1.4767 11.6923C1.46637 11.7182 1.46857 11.7327 1.48329 11.7358" stroke="var(--stroke-0, #0A5028)" stroke-width="0.194719"/>
<path id="Vector_2" d="M4.33846 15.3699C4.54436 16.041 4.89343 16.6249 5.38566 17.1218C5.46444 17.2012 5.5986 17.3054 5.66617 17.3904C5.68485 17.4139 5.70056 17.4316 5.71331 17.4435" stroke="var(--stroke-0, #1BA68B)" stroke-width="0.194719"/>
<path id="Vector_3" d="M2.41216 16.0756C2.38711 16.0277 2.34843 15.9972 2.29613 15.9843M1.31387 14.9071C0.908654 14.2979 0.599909 13.6512 0.387634 12.9669C0.377965 12.9353 0.353683 12.8513 0.314788 12.7151C0.245128 12.4701 0.183489 12.1692 0.129871 11.8126C0.114049 11.7065 0.0887784 11.3698 0.0540584 10.8026C0.0516412 10.7607 0.0538386 10.7167 0.0606507 10.6708C0.0613089 10.6664 0.06153 10.6621 0.0613101 10.6579L0.0398847 10.0023M1.67876 5.57157C1.70183 5.56476 1.71095 5.55333 1.70611 5.53729M1.9919 5.19646C2.0754 5.15449 2.13209 5.09219 2.16198 5.00957" stroke="var(--stroke-0, #0A5028)" stroke-width="0.194719"/>
<path id="Vector_4" d="M25.6642 8.70758C25.6348 8.76977 25.6061 8.83251 25.5782 8.8958C25.5474 8.96502 25.5233 9.02907 25.5057 9.08796C25.1906 10.1385 25.5179 11.2345 26.3086 11.9682C26.3866 12.0405 26.482 12.1016 26.5947 12.1515" stroke="var(--stroke-0, #8EB179)" stroke-width="0.194719"/>
<path id="Vector_5" d="M21.9975 14.231C21.9041 14.2365 21.8206 14.2751 21.747 14.3467C21.2787 14.8016 20.7641 15.3089 20.2031 15.8686C20.155 15.9167 20.1205 15.9681 20.0996 16.0228C20.0961 16.0318 20.0944 16.0413 20.0946 16.0509L20.0983 16.1817" stroke="var(--stroke-0, #115663)" stroke-width="0.194719"/>
<path id="Vector_6" d="M19.1733 18.8101C19.1279 18.8283 19.0775 18.8422 19.0224 18.8516C18.9452 18.8648 18.894 18.8751 18.8688 18.8826C18.6666 18.9415 18.4753 19.026 18.2949 19.1361C18.1842 19.2038 18.0927 19.287 18.0207 19.3856" stroke="var(--stroke-0, #908BC9)" stroke-width="0.194719"/>
<path id="Vector_7" d="M16.7368 17.8816C16.7432 17.855 16.7641 17.8251 16.7997 17.7919C16.8112 17.7811 16.8183 17.7665 16.8195 17.751C16.825 17.6834 16.8085 17.6229 16.7701 17.5697C16.5264 17.2318 16.3921 17.0476 16.3673 17.0173C16.3198 16.9599 16.2696 16.9256 16.2167 16.9141C16.1155 16.8924 16.0166 16.9445 16.0126 17.0575C16.0106 17.1157 16.0146 17.1526 16.0245 17.1679C16.1238 17.324 16.2255 17.4783 16.3297 17.6311" stroke="var(--stroke-0, #115663)" stroke-width="0.194719"/>
<path id="Vector_8" d="M11.1487 17.844L11.1168 17.8447" stroke="var(--stroke-0, #1BA68B)" stroke-width="0.194719"/>
<path id="Vector_9" d="M11.0209 17.8667C11.4663 17.5608 11.835 17.2269 12.1271 16.865C12.3811 16.5501 12.5852 16.216 12.7395 15.8626C13.0667 15.1131 13.142 14.3411 12.9653 13.5467C12.6752 12.2444 11.6468 11.2542 10.3946 10.8827C9.72171 10.6832 9.0461 10.683 8.36774 10.8821C8.23897 10.9199 8.14173 10.9604 8.07602 11.0037C8.06665 11.0098 8.05851 11.0174 8.05196 11.0261C8.00669 11.0846 7.98538 11.1291 7.98802 11.1596C7.99637 11.2609 8.05262 11.3104 8.15678 11.308C8.25193 11.3058 8.32412 11.2992 8.37334 11.2882C8.69593 11.2159 9.03665 11.1848 9.39549 11.1949C11.7674 11.2615 13.283 13.5899 12.2747 15.771C11.924 16.5295 11.3244 17.1851 10.6332 17.6538C10.5253 17.727 10.3938 17.8129 10.2387 17.9116C10.0985 18.001 10.0699 18.1067 10.153 18.2287" stroke="var(--stroke-0, #115663)" stroke-width="0.194719"/>
<path id="Vector_10" d="M10.153 18.2287C9.70687 18.568 9.31979 18.9391 8.99171 19.3421C8.90029 19.4544 8.79405 19.6093 8.67297 19.8069" stroke="var(--stroke-0, #8EB179)" stroke-width="0.194719"/>
<path id="Vector_11" d="M28.5932 10.2884C28.5466 10.1682 28.4702 10.1054 28.3638 10.0999C28.1584 10.0891 27.8889 10.0854 27.5556 10.0887C27.3562 10.091 26.8785 10.0511 26.9214 10.3656C26.9349 10.4645 27.0203 10.5113 27.1119 10.5155C27.4119 10.5289 27.8025 10.5383 28.2837 10.5436C28.347 10.5442 28.418 10.5337 28.4967 10.5119M10.3567 18.2692C10.2668 18.2824 10.1989 18.2689 10.153 18.2287" stroke="var(--stroke-0, #7D5B16)" stroke-width="0.194719"/>
<path id="Vector_12" d="M17.72 4.01774C17.7293 4.04411 17.7321 4.0696 17.7286 4.09422" stroke="var(--stroke-0, #FC907D)" stroke-width="0.194719"/>
<path id="Vector_13" d="M17.7286 4.09421C17.6117 4.15355 17.5791 4.23178 17.6307 4.3289C18.0733 5.16262 18.3623 6.02128 18.4976 6.90489C18.5051 6.95411 18.5401 6.99476 18.6028 7.02684" stroke="var(--stroke-0, #7F3567)" stroke-width="0.194719"/>
<path id="Vector_14" d="M18.6028 7.02685C18.5415 7.23143 18.4509 7.40657 18.3312 7.55226C18.0042 7.94979 17.5523 8.13207 17.0275 8.14294C16.7423 8.14888 16.4552 8.10757 16.1662 8.01901C15.7078 7.87837 15.3014 7.66445 14.947 7.37724C14.6637 7.14782 14.4408 6.90368 14.2782 6.64482C14.2096 6.53583 14.1261 6.36772 14.0276 6.1405" stroke="var(--stroke-0, #908BC9)" stroke-width="0.194719"/>
<path id="Vector_15" d="M20.6484 6.3976C20.0573 6.22027 19.451 6.13907 18.8295 6.15401C18.8266 6.15407 18.8237 6.15482 18.8211 6.1562C18.8185 6.15758 18.8163 6.15955 18.8146 6.16196C18.8129 6.16436 18.8118 6.16713 18.8113 6.17005C18.8109 6.17296 18.8111 6.17594 18.8121 6.17874C18.8837 6.39079 18.9204 6.6079 18.9222 6.83006C18.9231 6.96499 18.8566 7.04542 18.7228 7.07135C18.67 7.08146 18.6497 7.0731 18.6618 7.0463" stroke="var(--stroke-0, #8EB179)" stroke-width="0.194719"/>
<path id="Vector_16" d="M18.6618 7.0463C18.8015 7.06575 18.9037 6.94214 18.8951 6.80535C18.8744 6.46419 18.786 6.15534 18.6977 5.83758C18.5419 5.27811 18.306 4.74698 17.99 4.2442C17.9386 4.16245 17.8394 4.05071 17.7286 4.09422" stroke="var(--stroke-0, #7D5B16)" stroke-width="0.194719"/>
<path id="Vector_17" d="M20.743 19.9305C20.8488 19.8497 20.768 19.7159 20.7064 19.623C20.5759 19.4265 20.4023 19.2786 20.1856 19.1793C20.0561 19.1203 19.9361 19.1951 19.9868 19.3428C19.9901 19.352 19.9958 19.3601 20.0033 19.3662C20.2182 19.5361 20.4196 19.7279 20.6075 19.9417" stroke="var(--stroke-0, #7F3567)" stroke-width="0.194719"/>
<path id="Vector_18" d="M21.9567 14.7136C21.5457 15.1331 21.1249 15.5527 20.6942 15.9724C20.6408 16.0243 20.5452 16.1105 20.4074 16.2312C20.4046 16.2338 20.4015 16.236 20.3982 16.2378L20.2492 16.3169" stroke="var(--stroke-0, #0A5028)" stroke-width="0.194719"/>
<path id="Vector_19" d="M18.6618 7.0463L18.6028 7.02685" stroke="var(--stroke-0, #115663)" stroke-width="0.194719"/>
<path id="Vector_20" d="M24.5804 19.1598C24.5549 19.0177 24.4974 18.9049 24.4077 18.8216C24.3099 18.7304 24.1801 18.6571 24.0181 18.6015C23.906 18.563 23.8323 18.5994 23.7969 18.7106C23.791 18.7289 23.7918 18.7487 23.799 18.7665C23.8062 18.7844 23.8195 18.7991 23.8365 18.8081C23.9832 18.8866 24.1509 18.9594 24.2818 19.0652C24.3253 19.1006 24.3685 19.1361 24.4113 19.1717" stroke="var(--stroke-0, #0A5028)" stroke-width="0.194719"/>
<path id="Vector_21" d="M20.9925 8.42009C20.9337 8.44478 20.8818 8.4841 20.8397 8.5358C20.7976 8.58751 20.766 8.65058 20.747 8.72143C20.7279 8.79227 20.7216 8.8695 20.7284 8.9487C20.7352 9.0279 20.7551 9.10753 20.7868 9.18303C20.8186 9.25853 20.8616 9.32843 20.9134 9.38873C20.9652 9.44904 21.0248 9.49857 21.0887 9.5345C21.1527 9.57042 21.2198 9.59205 21.2862 9.59813C21.3527 9.60421 21.4171 9.59463 21.4758 9.56993C21.5345 9.54524 21.5865 9.50592 21.6286 9.45422C21.6707 9.40251 21.7022 9.33944 21.7213 9.26859C21.7404 9.19775 21.7467 9.12052 21.7399 9.04132C21.733 8.96212 21.7132 8.88249 21.6814 8.807C21.6497 8.73149 21.6067 8.66159 21.5549 8.60129C21.5031 8.54098 21.4435 8.49145 21.3795 8.45552C21.3156 8.4196 21.2484 8.39798 21.182 8.3919C21.1156 8.38581 21.0512 8.39539 20.9925 8.42009Z" stroke="var(--stroke-0, #115663)" stroke-width="0.194719"/>
<path id="Vector_22" d="M14.0309 19.8487C14.1025 19.6984 13.9551 19.473 13.8447 19.3708C13.6724 19.2115 13.4566 19.09 13.1973 19.0062C13.0586 18.9614 12.8542 18.9126 12.8216 19.1229C12.8112 19.1882 12.8363 19.2334 12.8967 19.2587C13.0256 19.3131 13.1677 19.3461 13.3035 19.4176C13.51 19.5259 13.686 19.6691 13.8315 19.8471C13.8693 19.8932 13.9277 19.9013 14.0065 19.8712C14.0173 19.8671 14.0261 19.8591 14.0309 19.8487Z" stroke="var(--stroke-0, #7D5B16)" stroke-width="0.194719"/>
</g>
<path id="Vector_23" d="M2.13001 7.16661C2.11396 7.15474 2.11045 7.16166 2.11946 7.18737L1.99882 7.4214C1.98563 7.39437 1.97849 7.4091 1.97739 7.46557C1.73875 7.99648 1.56932 8.55046 1.46912 9.12752C1.45571 9.20487 1.44033 9.27991 1.42297 9.35265C1.40166 9.39088 1.39792 9.43285 1.41176 9.47856L1.35375 10.0027C1.30607 10.4556 1.32441 10.9057 1.4088 11.3531C1.42176 11.3815 1.43 11.4154 1.43352 11.455C1.4311 11.4657 1.43352 11.4742 1.44077 11.4803V11.4853C1.43572 11.4939 1.43758 11.5033 1.44637 11.5136L1.4767 11.6923C1.46637 11.7182 1.46857 11.7327 1.48329 11.7358C1.5235 11.9171 1.57152 12.0965 1.62734 12.2741C1.77435 12.7417 1.98014 13.1817 2.24471 13.5942C2.68047 14.2734 3.23808 14.8004 3.91754 15.1751C3.97511 15.2069 4.11542 15.2719 4.33846 15.3699C4.54436 16.041 4.89343 16.6249 5.38566 17.1218C5.46444 17.2012 5.5986 17.3054 5.66617 17.3904C5.68485 17.4139 5.70056 17.4316 5.71331 17.4435C4.49459 17.3231 3.41585 16.888 2.4771 16.1382C2.45007 16.1167 2.42842 16.0958 2.41216 16.0756C2.38711 16.0277 2.34843 15.9972 2.29613 15.9843C2.22647 15.9289 2.1566 15.8687 2.0865 15.8036C1.78852 15.5276 1.53098 15.2288 1.31387 14.9071C0.908653 14.2979 0.599909 13.6512 0.387634 12.9669C0.377965 12.9353 0.353683 12.8513 0.314788 12.7151C0.245128 12.4701 0.183489 12.1693 0.129871 11.8126C0.114049 11.7065 0.0887781 11.3698 0.0540581 10.8026C0.0516409 10.7607 0.0538382 10.7167 0.0606504 10.6708C0.0613086 10.6664 0.0615297 10.6621 0.0613098 10.6579L0.0398844 10.0023C0.0557062 9.7494 0.0813067 9.49713 0.116686 9.24552C0.308964 7.87804 0.829654 6.65339 1.67876 5.57157C1.70183 5.56476 1.71095 5.55333 1.70611 5.53729L1.99189 5.19647C2.0754 5.15449 2.13209 5.0922 2.16198 5.00957C2.58323 4.55623 2.99394 4.19354 3.3941 3.9215C4.02345 3.49343 4.7061 3.15128 5.44203 2.89506C5.8356 2.75816 6.20532 2.64015 6.5512 2.54105C7.16166 2.36602 7.64686 2.20813 8.08426 2.05222C8.36642 1.95158 8.66033 1.83357 8.966 1.69821C9.98419 1.24795 10.9549 0.710665 11.8891 0.121304C12.0483 0.02077 12.2322 -0.0537237 12.3762 0.105812C12.5256 0.270952 12.3281 0.478613 12.2002 0.597935C11.8078 0.964033 11.4231 1.27959 11.0462 1.5446C10.4261 1.98014 9.82004 2.3436 9.22805 2.63499C8.66835 2.91033 8.09196 3.14711 7.49886 3.34532C6.93169 3.53496 6.52703 3.67142 6.28487 3.75471C5.97283 3.86216 5.63563 4.00577 5.27326 4.18552C3.9439 4.84509 2.841 5.86889 2.13001 7.16661Z" fill="var(--fill-0, #13A050)"/>
<path id="Vector_24" d="M17.7201 4.01773C17.7293 4.0441 17.7321 4.06959 17.7286 4.09421C17.6117 4.15354 17.5791 4.23177 17.6307 4.3289C18.0733 5.16261 18.3623 6.02128 18.4976 6.90488C18.5051 6.9541 18.5401 6.99475 18.6028 7.02684C18.5415 7.23142 18.4509 7.40656 18.3312 7.55225C18.0042 7.94977 17.5523 8.13205 17.0275 8.14293C16.7423 8.14886 16.4552 8.10755 16.1662 8.01899C15.7078 7.87836 15.3014 7.66443 14.947 7.37722C14.6637 7.14781 14.4408 6.90367 14.2782 6.64481C14.2096 6.53581 14.1261 6.36771 14.0276 6.14049C14.0041 6.07149 13.984 6.00886 13.9673 5.9526C13.9205 5.79373 13.8916 5.64771 13.8806 5.51454C13.8158 4.72631 14.0812 4.09421 14.6767 3.61823C15.0021 3.35827 15.3859 3.20984 15.828 3.17292C16.3647 3.12842 16.8973 3.30575 17.3176 3.63768C17.4672 3.75591 17.6014 3.88259 17.7201 4.01773Z" fill="var(--fill-0, #FD6ACD)"/>
<path id="Vector_25" d="M20.6484 6.3976C20.0573 6.22026 19.451 6.13907 18.8296 6.15401C18.8266 6.15407 18.8237 6.15481 18.8211 6.15619C18.8185 6.15757 18.8163 6.15954 18.8146 6.16195C18.8129 6.16436 18.8118 6.16713 18.8113 6.17004C18.8109 6.17296 18.8111 6.17594 18.8121 6.17873C18.8837 6.39079 18.9204 6.6079 18.9222 6.83006C18.9231 6.96498 18.8566 7.04541 18.7228 7.07134C18.67 7.08145 18.6497 7.0731 18.6618 7.04629C18.8015 7.06574 18.9037 6.94213 18.8951 6.80534C18.8744 6.46418 18.786 6.15533 18.6977 5.83757C18.5419 5.2781 18.306 4.74697 17.99 4.24419C17.9386 4.16244 17.8394 4.0507 17.7286 4.09421C17.7321 4.0696 17.7293 4.04411 17.7201 4.01774C17.8216 3.92149 17.9435 3.83161 18.0859 3.74811C18.3782 3.57671 18.6828 3.4987 18.9996 3.51408C19.4562 3.53617 19.9051 3.77086 20.2031 4.11432C20.7361 4.7284 20.8353 5.60651 20.6484 6.3976Z" fill="var(--fill-0, #FAB62C)"/>
<path id="Vector_26" d="M18.6618 7.0463L18.6028 7.02685C18.5401 6.99477 18.5051 6.95411 18.4976 6.90489C18.3623 6.02129 18.0733 5.16263 17.6307 4.32891C17.5791 4.23178 17.6117 4.15355 17.7286 4.09422C17.8394 4.05071 17.9386 4.16245 17.99 4.2442C18.306 4.74698 18.5419 5.27811 18.6977 5.83758C18.786 6.15533 18.8744 6.46419 18.8951 6.80535C18.9037 6.94214 18.8015 7.06574 18.6618 7.0463ZM2.16198 5.00958C2.13209 5.0922 2.0754 5.1545 1.99189 5.19647L2.16198 5.00958ZM1.70611 5.5373C1.71095 5.55334 1.70183 5.56476 1.67876 5.57158C1.68447 5.55663 1.69359 5.54521 1.70611 5.5373Z" fill="var(--fill-0, black)"/>
<path id="Vector_27" d="M14.0276 6.1405C14.1261 6.36772 14.2096 6.53582 14.2782 6.64482C14.4408 6.90368 14.6637 7.14782 14.947 7.37723C15.3014 7.66444 15.7078 7.87837 16.1662 8.019C16.4552 8.10756 16.7423 8.14888 17.0275 8.14294C17.5523 8.13206 18.0042 7.94978 18.3312 7.55226C18.4509 7.40657 18.5415 7.23143 18.6028 7.02685L18.6618 7.0463C18.6497 7.0731 18.67 7.08146 18.7228 7.07135C18.8566 7.04542 18.9231 6.96499 18.9222 6.83006C18.9204 6.6079 18.8837 6.39079 18.8121 6.17874C18.8111 6.17594 18.8109 6.17296 18.8113 6.17005C18.8118 6.16714 18.8129 6.16436 18.8146 6.16196C18.8163 6.15955 18.8185 6.15758 18.8211 6.1562C18.8237 6.15482 18.8266 6.15407 18.8296 6.15401C19.451 6.13907 20.0573 6.22027 20.6484 6.3976C21.1622 6.55099 21.6512 6.73206 22.1155 6.94082C22.7955 7.24638 23.495 7.61918 24.177 7.97681C24.6615 8.23084 25.1573 8.47443 25.6642 8.70758C25.6348 8.76977 25.6061 8.83251 25.5782 8.89579C25.5474 8.96501 25.5233 9.02907 25.5057 9.08796C25.1906 10.1385 25.5179 11.2345 26.3086 11.9682C26.3866 12.0405 26.482 12.1016 26.5947 12.1515C26.4688 12.2341 26.3443 12.3113 26.2213 12.3832C25.582 12.7559 24.9277 13.0609 24.2584 13.2982C23.789 13.4645 23.3672 13.6068 22.993 13.7251C22.8071 13.7837 22.6653 13.8352 22.5678 13.8793C22.3548 13.9759 22.1581 14.0754 21.9975 14.231C21.9041 14.2365 21.8206 14.2751 21.747 14.3467C21.2787 14.8016 20.7641 15.3089 20.2031 15.8686C20.155 15.9167 20.1205 15.9681 20.0996 16.0228C20.0961 16.0318 20.0944 16.0413 20.0946 16.0509L20.0983 16.1817C19.7886 16.3619 19.4806 16.5374 19.174 16.7081C18.9986 16.8059 18.8193 16.8971 18.6361 16.9817C18.6206 16.9888 18.608 17.0008 18.6002 17.0159C18.5923 17.031 18.5898 17.0483 18.5929 17.0651C18.7056 17.6679 18.8991 18.2495 19.1733 18.8101C19.1279 18.8283 19.0775 18.8422 19.0224 18.8516C18.9452 18.8648 18.894 18.8752 18.8688 18.8826C18.6666 18.9415 18.4753 19.026 18.2949 19.1361C18.1842 19.2038 18.0927 19.287 18.0207 19.3856C17.5436 18.9384 17.1156 18.4371 16.7368 17.8816C16.7432 17.855 16.7642 17.8251 16.7997 17.7919C16.8112 17.7811 16.8183 17.7665 16.8195 17.751C16.825 17.6834 16.8085 17.6229 16.7701 17.5697C16.5264 17.2318 16.3921 17.0476 16.3673 17.0173C16.3198 16.96 16.2696 16.9256 16.2167 16.9141C16.1155 16.8924 16.0166 16.9445 16.0126 17.0575C16.0106 17.1158 16.0146 17.1526 16.0245 17.1679C16.1238 17.324 16.2256 17.4783 16.3297 17.6311C16.1278 17.65 15.9249 17.6719 15.7212 17.697C15.4427 17.7316 15.2341 17.7454 14.9585 17.7761C14.8058 17.793 14.6969 17.8018 14.6318 17.8025C14.5602 17.8031 14.4878 17.808 14.4146 17.817C14.2511 17.8367 14.0553 17.8285 13.9063 17.8417C13.7991 17.8514 13.7022 17.8575 13.6156 17.8601C12.7933 17.8848 11.971 17.8794 11.1487 17.844L11.1168 17.8447L11.0208 17.8667C11.4663 17.5608 11.835 17.2269 12.1271 16.865C12.3811 16.5501 12.5852 16.216 12.7395 15.8626C13.0667 15.1131 13.142 14.3411 12.9653 13.5467C12.6752 12.2444 11.6468 11.2542 10.3946 10.8827C9.72171 10.6832 9.04609 10.683 8.36774 10.8821C8.23896 10.9199 8.14173 10.9604 8.07602 11.0037C8.06665 11.0098 8.0585 11.0174 8.05196 11.0261C8.00669 11.0846 7.98538 11.1291 7.98801 11.1596C7.99636 11.2609 8.05262 11.3104 8.15678 11.308C8.25193 11.3058 8.32412 11.2992 8.37334 11.2882C8.69593 11.2159 9.03665 11.1848 9.39549 11.1949C11.7674 11.2615 13.283 13.5899 12.2747 15.771C11.924 16.5295 11.3244 17.1851 10.6332 17.6538C10.5253 17.727 10.3938 17.8129 10.2387 17.9116C10.0985 18.001 10.0699 18.1067 10.153 18.2287C9.70687 18.5679 9.31979 18.9391 8.99171 19.3421C8.90029 19.4544 8.79405 19.6093 8.67296 19.8069C8.24907 19.8053 7.89583 19.7934 7.61324 19.771C7.57302 19.7679 7.50171 19.7552 7.39931 19.733C7.28241 19.7078 7.21176 19.6913 7.18737 19.6836C6.86533 19.5794 6.63657 19.3609 6.70118 19.0023C6.71964 18.8997 6.76304 18.7568 6.83138 18.5738C6.84434 18.5386 6.85313 18.51 6.85775 18.4881C6.86038 18.4744 6.86632 18.445 6.87555 18.3997C6.90521 18.2543 6.85346 18.1461 6.7203 18.0754C6.36277 17.8853 6.0271 17.6747 5.71331 17.4435C5.70056 17.4316 5.68485 17.4139 5.66617 17.3904C5.5986 17.3054 5.46444 17.2012 5.38566 17.1218C4.89343 16.6249 4.54436 16.041 4.33846 15.3699C4.22397 14.9928 4.1453 14.6089 4.10245 14.2182C4.01851 13.4546 4.03598 12.6926 4.15486 11.9323C4.4891 9.79566 5.71627 7.79651 7.61686 6.71074C8.13349 6.41562 8.70142 6.18731 9.32067 6.02579C10.1441 5.8111 10.9489 5.71947 11.7351 5.75089C12.1245 5.76649 12.3937 5.78649 12.5427 5.81088C12.6317 5.82538 12.701 5.83362 12.7507 5.8356C12.8109 5.83824 12.8531 5.84472 12.8773 5.85505C12.9208 5.87351 12.9854 5.86856 13.0474 5.88142C13.3526 5.94471 13.5507 5.98833 13.6417 6.01228C13.7058 6.02898 13.8345 6.07172 14.0276 6.1405ZM20.9925 8.42009C20.9337 8.44478 20.8818 8.4841 20.8397 8.5358C20.7976 8.58751 20.766 8.65058 20.747 8.72143C20.7279 8.79227 20.7216 8.8695 20.7284 8.9487C20.7352 9.0279 20.7551 9.10753 20.7868 9.18303C20.8186 9.25853 20.8616 9.32843 20.9134 9.38873C20.9652 9.44904 21.0248 9.49857 21.0887 9.5345C21.1527 9.57042 21.2198 9.59205 21.2862 9.59813C21.3527 9.60421 21.4171 9.59463 21.4758 9.56993C21.5345 9.54524 21.5865 9.50592 21.6286 9.45422C21.6707 9.40251 21.7022 9.33944 21.7213 9.26859C21.7404 9.19775 21.7467 9.12052 21.7399 9.04132C21.733 8.96212 21.7132 8.88249 21.6814 8.80699C21.6497 8.73149 21.6067 8.66159 21.5549 8.60129C21.5031 8.54098 21.4435 8.49145 21.3795 8.45552C21.3156 8.4196 21.2484 8.39798 21.182 8.39189C21.1156 8.38581 21.0512 8.39539 20.9925 8.42009Z" fill="var(--fill-0, #22ABC5)"/>
<path id="Vector_28" d="M2.13 7.16661C2.12978 7.1732 2.12627 7.18012 2.11946 7.18737C2.11045 7.16166 2.11396 7.15474 2.13 7.16661ZM1.99882 7.4214C1.9975 7.43657 1.99036 7.45129 1.97739 7.46557C1.97849 7.4091 1.98563 7.39437 1.99882 7.4214Z" fill="var(--fill-0, black)"/>
<path id="Vector_29" d="M21.6814 8.80697C21.5479 8.48945 21.2395 8.31624 20.9924 8.42008C20.7454 8.52392 20.6534 8.8655 20.7868 9.18301C20.9203 9.50053 21.2288 9.67374 21.4758 9.5699C21.7228 9.46606 21.8149 9.12448 21.6814 8.80697Z" fill="var(--fill-0, black)"/>
<path id="Vector_30" d="M28.5932 10.2884C28.5466 10.1682 28.4702 10.1054 28.3638 10.0999C28.1583 10.0891 27.8889 10.0854 27.5556 10.0887C27.3562 10.091 26.8785 10.0511 26.9214 10.3656C26.9349 10.4645 27.0203 10.5113 27.1119 10.5155C27.4119 10.529 27.8025 10.5383 28.2837 10.5436C28.347 10.5442 28.418 10.5337 28.4966 10.5119C28.4389 10.5981 28.3849 10.669 28.3348 10.7249C27.8257 11.292 27.2456 11.7676 26.5947 12.1515C26.482 12.1016 26.3866 12.0405 26.3086 11.9682C25.5179 11.2345 25.1906 10.1385 25.5057 9.08796C25.5233 9.02907 25.5474 8.96502 25.5782 8.8958C25.6061 8.83251 25.6348 8.76977 25.6642 8.70758C25.8194 8.77548 25.9809 8.84295 26.1488 8.90997C26.6898 9.1262 27.0748 9.27277 27.3038 9.34968C27.5308 9.42593 27.7338 9.50065 27.9129 9.57382C28.2039 9.69249 28.6067 9.91795 28.5932 10.2884Z" fill="var(--fill-0, #FAB62C)"/>
<path id="Vector_31" d="M1.42297 9.35264L1.41176 9.47856C1.39792 9.43285 1.40165 9.39088 1.42297 9.35264ZM0.0398819 10.0023L0.0613073 10.6579C0.0615272 10.6621 0.0613061 10.6664 0.0606479 10.6708C0.0538358 10.7167 0.0516384 10.7607 0.0540556 10.8026C0.0887756 11.3698 0.114047 11.7065 0.129868 11.8126C0.183487 12.1692 0.245126 12.4701 0.314785 12.7151C0.35368 12.8513 0.377962 12.9353 0.387631 12.9669C0.599907 13.6512 0.908651 14.2979 1.31386 14.9071C1.29453 14.8954 1.27288 14.872 1.24893 14.8369C0.843935 14.2455 0.542882 13.6051 0.345769 12.9155C0.265562 12.6358 0.201396 12.3524 0.153271 12.0654C0.0385635 11.3829 0.000767003 10.6952 0.0398819 10.0023ZM1.35375 10.0027C1.34254 10.4534 1.36089 10.9035 1.40879 11.3531C1.32441 10.9057 1.30606 10.4555 1.35375 10.0027ZM28.5932 10.2884C28.5989 10.3825 28.5667 10.457 28.4966 10.5119C28.418 10.5337 28.347 10.5442 28.2837 10.5436C27.8025 10.5383 27.4119 10.5289 27.1119 10.5155C27.0203 10.5113 26.9349 10.4644 26.9214 10.3656C26.8785 10.0511 27.3562 10.091 27.5556 10.0887C27.8889 10.0854 28.1583 10.0891 28.3638 10.0999C28.4702 10.1054 28.5466 10.1682 28.5932 10.2884ZM11.0208 17.8667C10.8103 18.0201 10.5889 18.1543 10.3567 18.2692C10.2668 18.2824 10.1989 18.2689 10.153 18.2287C10.0699 18.1067 10.0985 18.001 10.2387 17.9116C10.3938 17.8129 10.5253 17.727 10.6332 17.6538C11.3244 17.1851 11.924 16.5295 12.2747 15.771C13.283 13.5899 11.7674 11.2615 9.39549 11.1949C9.03664 11.1848 8.69593 11.2159 8.37334 11.2882C8.32411 11.2992 8.25193 11.3057 8.15678 11.3079C8.05262 11.3104 7.99636 11.2609 7.98801 11.1596C7.98538 11.1291 8.00669 11.0846 8.05196 11.0261C8.0585 11.0174 8.06665 11.0098 8.07602 11.0037C8.14173 10.9604 8.23896 10.9199 8.36773 10.8821C9.04609 10.683 9.7217 10.6832 10.3946 10.8827C11.6468 11.2542 12.6752 12.2444 12.9653 13.5467C13.142 14.3411 13.0667 15.1131 12.7395 15.8626C12.5852 16.216 12.3811 16.5501 12.1271 16.865C11.835 17.2269 11.4663 17.5608 11.0208 17.8667ZM1.44077 11.4803C1.43352 11.4742 1.4311 11.4657 1.43352 11.455C1.43857 11.4616 1.44099 11.47 1.44077 11.4803ZM1.44077 11.4853C1.44604 11.4936 1.44791 11.5031 1.44637 11.5136C1.43758 11.5033 1.43571 11.4939 1.44077 11.4853ZM1.48329 11.7358C1.46857 11.7327 1.46637 11.7182 1.4767 11.6923L1.48329 11.7358ZM21.9975 14.231C22.0215 14.2666 22.0433 14.2913 22.0631 14.3052C22.085 14.3205 22.1024 14.3415 22.1133 14.366C22.1242 14.3904 22.1283 14.4174 22.1251 14.444C22.1187 14.4949 22.0931 14.5493 22.0483 14.6071C22.0235 14.639 21.9929 14.6745 21.9567 14.7136C21.5457 15.1331 21.1249 15.5527 20.6942 15.9724C20.6408 16.0243 20.5452 16.1105 20.4074 16.2312C20.4046 16.2338 20.4015 16.236 20.3982 16.2377L20.2492 16.3169C20.2112 16.2597 20.1609 16.2147 20.0983 16.1817L20.0946 16.0509C20.0944 16.0413 20.0961 16.0318 20.0996 16.0228C20.1205 15.9681 20.1549 15.9167 20.2031 15.8686C20.7641 15.3089 21.2787 14.8016 21.747 14.3467C21.8206 14.2751 21.9041 14.2365 21.9975 14.231Z" fill="var(--fill-0, black)"/>
<path id="Vector_32" d="M21.9567 14.7136C21.9923 14.9265 22.0301 15.1431 22.07 15.3633C22.1364 15.7292 22.2069 16.055 22.2817 16.3409C22.3616 16.6479 22.4513 16.9325 22.5506 17.1946C22.6347 17.4168 22.7382 17.638 22.8865 17.8137C22.8946 17.8231 22.904 17.8311 22.9145 17.8374C23.0508 17.9202 23.1656 17.9696 23.259 17.9854C23.4886 18.0243 23.6847 18.0619 23.8474 18.0981C24.2089 18.1782 24.5494 18.3417 24.8023 18.6216C24.8784 18.7063 24.9321 18.8286 24.9269 18.9284C24.9183 19.0942 24.7238 19.145 24.5804 19.1598C24.5549 19.0177 24.4974 18.9049 24.4077 18.8216C24.3099 18.7305 24.1801 18.6571 24.0181 18.6015C23.906 18.563 23.8323 18.5994 23.7969 18.7106C23.791 18.7289 23.7918 18.7487 23.799 18.7665C23.8062 18.7844 23.8195 18.7991 23.8365 18.8081C23.9832 18.8866 24.1509 18.9594 24.2818 19.0652C24.3253 19.1006 24.3685 19.1361 24.4113 19.1717C24.3371 19.1717 24.2592 19.1708 24.1776 19.1691L23.1004 19.145C23.0055 19.1427 22.9201 19.1216 22.8292 19.119C22.7316 19.1163 22.6574 19.0942 22.5338 19.0646C22.3051 19.0092 22.1045 18.9049 21.9323 18.7518C21.8166 18.6486 21.6781 18.5065 21.5664 18.3602C21.3546 18.0826 21.1506 17.7864 20.9546 17.4715C20.7166 17.0896 20.4815 16.7047 20.2492 16.3169L20.3982 16.2378C20.4015 16.236 20.4046 16.2338 20.4074 16.2312C20.5452 16.1105 20.6408 16.0243 20.6942 15.9724C21.1249 15.5527 21.5457 15.1331 21.9567 14.7136Z" fill="var(--fill-0, #13A050)"/>
<path id="Vector_33" d="M2.41216 16.0756C2.36624 16.0545 2.32756 16.024 2.29614 15.9843C2.34844 15.9972 2.38711 16.0277 2.41216 16.0756ZM16.7368 17.8816C16.6592 17.9075 16.6029 17.9117 16.5677 17.8941C16.4791 17.8499 16.3998 17.7622 16.3297 17.6311C16.2256 17.4783 16.1238 17.324 16.0245 17.1679C16.0146 17.1526 16.0106 17.1158 16.0126 17.0575C16.0166 16.9445 16.1155 16.8924 16.2167 16.9141C16.2696 16.9256 16.3198 16.96 16.3673 17.0173C16.3921 17.0476 16.5264 17.2318 16.7701 17.5698C16.8085 17.6229 16.825 17.6834 16.8195 17.751C16.8183 17.7665 16.8112 17.7811 16.7998 17.7919C16.7642 17.8251 16.7432 17.855 16.7368 17.8816Z" fill="var(--fill-0, black)"/>
<path id="Vector_34" d="M11.1487 17.844C11.1384 17.8464 11.1278 17.8466 11.1168 17.8446L11.1487 17.844Z" fill="var(--fill-0, #13A050)"/>
<path id="Vector_35" d="M10.153 18.2287C10.1989 18.2689 10.2668 18.2824 10.3567 18.2692C10.4279 18.2793 10.5014 18.2894 10.5772 18.2995C10.6585 18.3103 10.7324 18.317 10.799 18.3196C11.2866 18.339 11.7741 18.386 12.2615 18.4607C12.5158 18.4994 12.7477 18.5447 12.9574 18.5965C13.1635 18.6475 13.373 18.7179 13.586 18.8078C13.9406 18.9571 14.2897 19.1994 14.4545 19.5537C14.4597 19.5651 14.4633 19.5771 14.4651 19.5893C14.4977 19.8102 14.3184 19.8692 14.1288 19.8824C14.0178 19.8903 13.9281 19.9048 13.8117 19.9041C13.3914 19.901 12.8802 19.8907 12.2783 19.8731C11.0749 19.8379 9.87838 19.8234 8.67296 19.8069C8.79404 19.6093 8.90029 19.4544 8.99171 19.3421C9.31979 18.9391 9.70687 18.568 10.153 18.2287ZM14.0309 19.8487C14.1025 19.6984 13.9551 19.473 13.8447 19.3708C13.6724 19.2115 13.4566 19.09 13.1973 19.0062C13.0586 18.9614 12.8542 18.9126 12.8216 19.1229C12.8112 19.1882 12.8363 19.2335 12.8967 19.2587C13.0256 19.3131 13.1677 19.3461 13.3035 19.4176C13.51 19.5259 13.686 19.6691 13.8315 19.8471C13.8693 19.8932 13.9277 19.9013 14.0065 19.8712C14.0173 19.8672 14.0261 19.8591 14.0309 19.8487Z" fill="var(--fill-0, #FAB62C)"/>
<path id="Vector_36" d="M24.5804 19.1598L24.4113 19.1717C24.3685 19.1361 24.3253 19.1006 24.2818 19.0652C24.1509 18.9594 23.9832 18.8866 23.8365 18.8081C23.8195 18.7991 23.8062 18.7844 23.799 18.7665C23.7918 18.7487 23.791 18.7289 23.7969 18.7106C23.8323 18.5994 23.906 18.563 24.0181 18.6015C24.1801 18.6571 24.3099 18.7304 24.4077 18.8216C24.4974 18.9049 24.5549 19.0177 24.5804 19.1598Z" fill="var(--fill-0, black)"/>
<path id="Vector_37" d="M20.743 19.9305C20.8488 19.8497 20.768 19.7159 20.7064 19.6229C20.5759 19.4265 20.4023 19.2786 20.1856 19.1793C20.0561 19.1203 19.9361 19.1951 19.9868 19.3428C19.9901 19.352 19.9958 19.3601 20.0033 19.3662C20.2182 19.536 20.4196 19.7279 20.6075 19.9417C20.1302 19.9533 19.6557 19.9402 19.1839 19.9021C19.1454 19.8988 19.0618 19.8849 18.9331 19.8603C18.5887 19.7943 18.2846 19.6361 18.0207 19.3856C18.0927 19.287 18.1842 19.2038 18.2949 19.1361C18.4753 19.026 18.6666 18.9415 18.8688 18.8826C18.894 18.8751 18.9452 18.8648 19.0224 18.8516C19.0775 18.8422 19.1279 18.8283 19.1733 18.8101C19.5979 18.7506 19.9908 18.7878 20.3521 18.9218C20.6461 19.0313 20.8928 19.2021 21.0921 19.4344C21.1323 19.481 21.1641 19.5463 21.1877 19.6302C21.2678 19.9156 20.9345 19.9364 20.743 19.9305Z" fill="var(--fill-0, #FD6ACD)"/>
<path id="Vector_38" d="M14.0065 19.8712C13.9277 19.9013 13.8693 19.8932 13.8315 19.8471C13.686 19.6691 13.51 19.5259 13.3035 19.4176C13.1677 19.3461 13.0256 19.3131 12.8967 19.2587C12.8363 19.2334 12.8112 19.1882 12.8216 19.1229C12.8542 18.9126 13.0586 18.9614 13.1973 19.0062C13.4566 19.09 13.6724 19.2115 13.8447 19.3708C13.9551 19.473 14.1025 19.6984 14.0309 19.8487C14.0261 19.8591 14.0173 19.8671 14.0065 19.8712ZM20.743 19.9305C20.7028 19.9456 20.6576 19.9494 20.6075 19.9417C20.4196 19.7279 20.2182 19.536 20.0033 19.3662C19.9958 19.3601 19.9901 19.352 19.9868 19.3428C19.9361 19.1951 20.0561 19.1203 20.1856 19.1793C20.4023 19.2786 20.5759 19.4265 20.7064 19.6229C20.768 19.7159 20.8488 19.8497 20.743 19.9305Z" fill="var(--fill-0, black)"/>
</g>
<defs>
<clipPath id="clip0_270_3603">
<rect width="28.644" height="19.975" fill="white"/>
</clipPath>
</defs>
</svg>
