<svg preserveAspectRatio="none" width="100%" height="100%" overflow="visible" style="display: block;" viewBox="0 0 30.0813 29.9012" fill="none" xmlns="http://www.w3.org/2000/svg">
<g id="made-with-blunge 7" clip-path="url(#clip0_258_1189)">
<g id="Group">
<path id="Vector" d="M20.8505 1.79888C20.6183 1.69897 20.3687 1.65381 20.1019 1.66342C19.8293 1.67327 19.6069 1.70149 19.4347 1.74808C18.8898 1.89627 18.4052 2.15049 17.9811 2.51074C17.4811 2.93548 17.1313 3.46541 16.865 4.06848C16.7735 4.27623 16.66 4.56455 16.5246 4.93345C16.4172 5.22622 16.2905 5.51322 16.1445 5.79446C15.745 6.56577 15.2147 7.11768 14.3822 7.38319C14.197 7.44227 14.0068 7.461 13.8425 7.51072C13.7582 7.53594 13.653 7.5644 13.6415 7.66599C13.6209 7.84323 13.7931 8.04678 13.9167 8.1581C14.2662 8.47368 14.6707 8.63795 15.1297 8.75035C15.1332 8.75117 15.1365 8.7528 15.1393 8.75512C15.1421 8.75744 15.1444 8.76038 15.1459 8.76372C15.1474 8.76706 15.1481 8.77071 15.1479 8.77438C15.1478 8.77806 15.1469 8.78167 15.1452 8.78494C14.7694 9.50581 14.2006 10.0765 13.4768 10.467C13.2283 10.601 13.0994 10.671 13.0903 10.677C12.9516 10.7689 12.8633 10.8276 12.9019 10.9947C12.9158 11.0553 12.9499 11.123 13.0042 11.1979C13.3475 11.6724 13.9639 11.9101 14.4982 12.0589C14.5688 12.0786 14.6917 12.0857 14.8671 12.0802C14.868 12.0802 14.8722 12.0822 14.8797 12.0863C14.884 12.0885 14.8886 12.0898 14.8934 12.0903C14.8936 12.0902 14.8939 12.0903 14.8942 12.0905C14.8944 12.0906 14.8946 12.0909 14.8946 12.0912C14.8947 12.0915 14.8946 12.0918 14.8944 12.092C14.8943 12.0922 14.894 12.0924 14.8937 12.0924C14.8908 12.0936 14.8883 12.0954 14.8861 12.0978" stroke="var(--stroke-0, #FFDE88)" stroke-width="0.072051"/>
<path id="Vector_2" d="M14.8861 12.0977C14.3579 12.0951 13.9977 12.0775 13.2855 12.0289C12.686 11.9881 12.2018 11.9165 11.5548 11.8419C10.9066 11.7672 10.255 11.7519 9.60005 11.7961C9.00971 11.8358 8.43439 11.9907 7.87407 12.2609" stroke="var(--stroke-0, #85D8DF)" stroke-width="0.072051"/>
<path id="Vector_3" d="M7.87414 12.2615C7.72284 11.8083 7.51509 11.4137 7.2509 11.0777C6.88344 10.6104 6.41944 10.2995 5.89382 10.065C5.47485 9.87803 5.02273 9.81967 4.55656 9.8312C3.42067 9.8593 2.42889 10.4339 1.71198 11.2953C1.15071 11.9697 0.725966 12.8109 0.559168 13.6762C0.472227 14.1277 0.450852 14.6011 0.495043 15.0963C0.536352 15.5579 0.63254 16.0224 0.783607 16.4898C0.883758 16.7989 0.981027 17.0954 1.07541 17.3793C1.23152 17.8478 1.2858 18.3278 1.23825 18.8192C1.18421 19.374 0.866826 19.8398 0.464061 20.1889C0.29294 20.337 0.111732 20.4555 0.0753459 20.583C0.0321153 20.7361 0.223411 20.8071 0.33581 20.8478C0.591351 20.9403 0.848093 20.992 1.10604 21.0031C1.34813 21.0135 1.681 21.0099 1.9357 20.9663C2.65982 20.8427 3.41419 20.5556 3.95133 20.0797C4.41702 19.6671 4.71363 19.1509 4.84116 18.531C4.88343 18.3261 4.90456 18.0738 4.90456 17.7741C4.9048 17.4295 4.897 17.176 4.88115 17.0136C4.78568 16.0312 4.72299 15.5888 4.7565 14.8895C4.78928 14.2058 5.12036 13.3051 5.83258 13.0883C6.01415 13.0328 6.20496 13.0343 6.40502 13.0929C6.44729 13.1054 6.53376 13.1442 6.66441 13.2093" stroke="var(--stroke-0, #FFDE88)" stroke-width="0.072051"/>
<path id="Vector_4" d="M6.6644 13.2085C6.62429 13.2606 6.58479 13.3104 6.54588 13.3577C6.49688 13.4175 6.4587 13.4679 6.43132 13.509C6.00814 14.1399 5.7508 14.8282 5.65929 15.574C5.57403 16.2669 5.60477 16.9851 5.75152 17.7286C5.8106 18.0284 5.85263 18.2355 5.87761 18.3501C5.97872 18.8119 6.02279 19.2578 6.00982 19.6877C5.99073 20.3092 5.70252 20.8045 5.20645 21.1572C5.05995 21.2614 4.91176 21.3741 4.7619 21.4951C4.32851 21.8453 4.29068 22.3831 4.21323 22.9188C4.08738 23.7928 4.008 24.3943 3.9751 24.7234C3.93619 25.1106 3.84577 26.0646 3.75498 26.752C3.71896 27.0236 3.68437 27.2899 3.65123 27.551" stroke="var(--stroke-0, #85D8DF)" stroke-width="0.072051"/>
<path id="Vector_5" d="M3.65104 27.5516C3.61165 27.8864 3.6209 28.2099 3.67878 28.5221C3.74723 28.893 3.84966 29.2309 3.98608 29.5359C4.04516 29.6678 4.13726 29.7465 4.26239 29.7722C4.83051 29.889 5.45447 29.8785 6.04277 29.8346C6.1996 29.8228 6.33722 29.8032 6.45562 29.7758C6.6271 29.7362 6.71068 29.6279 6.70636 29.4509C6.703 29.3073 6.68546 29.164 6.65376 29.0211C6.55361 28.5679 6.39474 28.1194 6.27333 27.6651" stroke="var(--stroke-0, #FFB5DD)" stroke-width="0.072051"/>
<path id="Vector_6" d="M6.27338 27.6652C6.25537 27.2591 6.27735 26.8541 6.33931 26.4504C6.49458 25.437 6.74063 24.4305 7.08468 23.4524C7.15853 23.2423 7.26012 23.1087 7.44133 22.9941C7.52923 22.939 7.61173 22.8889 7.70936 22.8432C8.16472 22.6281 8.52606 22.4761 8.89352 22.2624C9.27467 22.0405 9.63924 21.7677 9.98725 21.4439C10.037 21.3978 10.0909 21.3476 10.149 21.2934" stroke="var(--stroke-0, #85D8DF)" stroke-width="0.072051"/>
<path id="Vector_7" d="M10.1489 21.2934L10.0888 21.5765" stroke="var(--stroke-0, #80C7A4)" stroke-width="0.072051"/>
<path id="Vector_8" d="M10.0892 21.5764C9.99313 21.83 9.85155 22.0686 9.66446 22.2922C9.51171 22.4748 9.43017 22.5712 9.41985 22.5815C9.09237 22.9068 9.09922 23.1961 9.29232 23.6176C9.39391 23.8395 9.47352 23.9997 9.53116 24.0982C10.1213 25.1076 10.6817 26.1251 11.2125 27.1506" stroke="var(--stroke-0, #85D8DF)" stroke-width="0.072051"/>
<path id="Vector_9" d="M11.2123 27.1505C11.2344 27.2063 11.2793 27.307 11.347 27.4528C11.4318 27.6351 11.5287 27.8918 11.6378 28.223C11.694 28.394 11.7365 28.5174 11.7653 28.593C11.8217 28.741 11.9349 28.826 12.1047 28.8481C12.3787 28.8836 12.6545 28.9011 12.9322 28.9007C13.323 28.8999 13.5341 28.8989 13.8717 28.8574C14.0955 28.8296 14.2154 28.7179 14.2312 28.5224C14.2399 28.4161 14.1999 28.2281 14.17 28.1337C14.0062 27.6161 13.7898 27.121 13.5208 26.6484" stroke="var(--stroke-0, #FFB5DD)" stroke-width="0.072051"/>
<path id="Vector_10" d="M13.5213 26.6481C13.2718 26.143 13.0173 25.6337 12.7579 25.1202C12.6518 24.9103 12.4157 24.4574 12.0497 23.7613C11.9872 23.6427 11.9358 23.5299 11.8955 23.4231C11.8931 23.4166 11.8929 23.4095 11.8948 23.4029C11.8968 23.3963 11.9008 23.3905 11.9063 23.3863C12.5007 22.9302 12.9954 22.3812 13.3902 21.7392C13.5737 21.4409 13.7202 21.1238 13.8297 20.7878" stroke="var(--stroke-0, #85D8DF)" stroke-width="0.072051"/>
<path id="Vector_11" d="M13.8293 20.7879L13.91 20.5202" stroke="var(--stroke-0, #80C7A4)" stroke-width="0.072051"/>
<path id="Vector_12" d="M13.9098 20.5206C13.9151 20.5129 13.9225 20.5099 13.9322 20.5116C14.3445 20.5803 14.7918 20.6309 15.2741 20.6636L15.3534 20.6694C16.053 20.7229 16.7892 20.733 17.5621 20.6996C17.624 20.697 17.6816 20.6911 17.7346 20.682" stroke="var(--stroke-0, #85D8DF)" stroke-width="0.072051"/>
<path id="Vector_13" d="M17.7349 20.6827C17.8131 20.771 17.9015 20.7848 18.0002 20.724" stroke="var(--stroke-0, #80C7A4)" stroke-width="0.072051"/>
<path id="Vector_14" d="M17.9984 20.7232C18.0782 21.5962 18.1554 22.4696 18.2301 23.3433C18.301 24.1701 18.3587 25.1446 18.3893 25.8399C18.426 26.6824 18.4498 27.2887 18.4606 27.6588C18.4628 27.7395 18.4659 27.8272 18.47 27.9218" stroke="var(--stroke-0, #85D8DF)" stroke-width="0.072051"/>
<path id="Vector_15" d="M18.4694 27.9216C18.4723 28.1942 18.4962 28.4725 18.5411 28.7567C18.5824 29.017 18.6534 29.2682 18.754 29.5103C18.8217 29.6734 18.9436 29.7679 19.1197 29.7938C19.7479 29.8863 20.3849 29.8859 21.0304 29.7927C21.2372 29.7627 21.3544 29.6613 21.3821 29.4883C21.39 29.4374 21.3822 29.3549 21.3586 29.2408C21.3341 29.1229 21.3154 29.0421 21.3024 28.9984C21.1924 28.6276 21.0588 28.2507 20.9015 27.8679C20.888 27.8357 20.8767 27.7787 20.8676 27.6968" stroke="var(--stroke-0, #FFB5DD)" stroke-width="0.072051"/>
<path id="Vector_16" d="M20.8676 27.6969C20.826 27.3765 20.8021 27.0727 20.7959 26.7855C20.7601 25.1257 20.8175 23.4385 20.9681 21.7239C21.0173 21.1622 21.0696 20.5985 21.1248 20.0329" stroke="var(--stroke-0, #85D8DF)" stroke-width="0.072051"/>
<path id="Vector_17" d="M21.1246 20.0325C21.1851 20.0847 21.2554 20.1337 21.3343 20.0843C21.3917 20.0486 21.4369 19.995 21.4701 19.9237" stroke="var(--stroke-0, #80C7A4)" stroke-width="0.072051"/>
<path id="Vector_18" d="M21.4704 19.9238C21.7522 19.8285 22.0046 19.7059 22.2277 19.556" stroke="var(--stroke-0, #85D8DF)" stroke-width="0.072051"/>
<path id="Vector_19" d="M22.2276 19.556L22.5411 19.7887" stroke="var(--stroke-0, #80C7A4)" stroke-width="0.072051"/>
<path id="Vector_20" d="M22.5412 19.789C23.0847 20.1559 23.6474 20.494 24.2293 20.8031C24.3399 20.8618 24.5939 21.0027 24.6468 21.1046C24.7121 21.2307 24.635 21.4152 24.5734 21.5304C24.4281 21.8026 24.2779 22.0452 24.123 22.2585C23.7438 22.7802 23.339 23.2564 22.9086 23.6873" stroke="var(--stroke-0, #85D8DF)" stroke-width="0.072051"/>
<path id="Vector_21" d="M22.9087 23.6869C22.8397 23.7412 22.7767 23.7915 22.7195 23.8379C22.5495 23.9765 22.3528 24.0958 22.1842 24.2013C21.9349 24.3577 21.793 24.5555 21.7958 24.8556C21.7968 24.9543 21.8447 25.1056 21.9396 25.3095C22.1274 25.713 22.3586 26.088 22.6331 26.4346C22.7707 26.6082 22.9667 26.8553 23.2102 26.7725C23.2652 26.754 23.3417 26.6869 23.4397 26.5711C23.6582 26.3134 23.8241 26.1291 23.9372 26.0181C23.9871 25.9691 24.1055 25.8615 24.2924 25.6953" stroke="var(--stroke-0, #FFB5DD)" stroke-width="0.072051"/>
<path id="Vector_22" d="M24.2922 25.6958C25.0915 24.9398 25.8083 24.1083 26.4425 23.2014C26.7809 22.718 27.0718 22.1984 27.3151 21.6426C27.4513 21.3311 27.5213 21.0199 27.5251 20.7088C27.5294 20.3428 27.3363 19.9991 27.0982 19.7347C26.7949 19.3986 26.4951 19.0895 26.1878 18.7364C25.7308 18.2117 25.2637 17.6802 24.7864 17.142" stroke="var(--stroke-0, #85D8DF)" stroke-width="0.072051"/>
<path id="Vector_23" d="M24.7882 17.1438L24.5789 16.888" stroke="var(--stroke-0, #80C7A4)" stroke-width="0.072051"/>
<path id="Vector_24" d="M24.5786 16.8881C24.7772 16.1697 24.8921 15.4452 24.9234 14.7146C24.9541 13.9956 24.9432 13.3457 24.8906 12.7649C24.8096 11.8734 24.66 10.9187 24.4417 9.90091C24.4237 9.81709 24.4033 9.73135 24.3805 9.64369" stroke="var(--stroke-0, #85D8DF)" stroke-width="0.072051"/>
<path id="Vector_25" d="M24.3814 9.64561L24.3227 9.40069" stroke="var(--stroke-0, #80C7A4)" stroke-width="0.072051"/>
<path id="Vector_26" d="M24.3227 9.40069C24.8592 9.48403 25.3111 9.56245 25.6783 9.63594C25.9985 9.69982 26.4931 9.80622 27.1622 9.95512" stroke="var(--stroke-0, #85D8DF)" stroke-width="0.072051"/>
<path id="Vector_27" d="M27.1617 9.95465C27.5546 10.0596 27.9513 10.1218 28.3516 10.1413C28.4657 10.1468 28.572 10.136 28.6705 10.1088C29.0869 9.99428 29.5931 9.71112 29.7927 9.30511C30.0508 8.78058 30.0822 8.23851 29.8867 7.67892C29.8259 7.50431 29.7377 7.36742 29.6219 7.26823C29.4036 7.08089 29.0787 6.82307 28.6474 6.49476" stroke="var(--stroke-0, #FFB5DD)" stroke-width="0.072051"/>
<path id="Vector_28" d="M28.6475 6.49497L26.3959 4.93759" stroke="var(--stroke-0, #85D8DF)" stroke-width="0.072051"/>
<path id="Vector_29" d="M26.396 4.93759C26.6801 4.96713 26.9216 4.96845 27.1204 4.94155C27.5077 4.88931 28.0254 4.62308 28.2131 4.23833C28.2198 4.2245 28.2222 4.20898 28.22 4.19377C28.2179 4.17855 28.2112 4.16434 28.2009 4.15295C28.1576 4.1054 28.1068 4.08006 28.0485 4.07694C27.8213 4.06493 27.6224 4.03034 27.4519 3.97318C27.3998 3.95565 27.2709 3.88564 27.0653 3.76315C27.0545 3.75693 27.0444 3.74969 27.0351 3.74154C26.9087 3.63394 26.6877 3.3802 26.3718 2.98032C25.8435 2.31121 25.1615 1.86161 24.326 1.63153C23.8151 1.49079 23.2751 1.47385 22.7059 1.58073" stroke="var(--stroke-0, #FFDE88)" stroke-width="0.072051"/>
<path id="Vector_30" d="M22.7055 1.58077C22.5489 1.15543 22.3508 0.769594 22.1111 0.423269C22.0181 0.289254 21.7689 0.0457216 21.5891 0.0676971C21.1932 0.115971 20.9885 1.01409 20.9305 1.3412C20.9003 1.51028 20.8735 1.66303 20.8502 1.79944" stroke="var(--stroke-0, #85D8DF)" stroke-width="0.072051"/>
<path id="Vector_31" d="M22.7059 1.5807C22.8662 2.00616 22.9786 2.40316 22.9977 2.82502C22.9982 2.83723 23.0023 2.84904 23.0095 2.85902C23.0166 2.86899 23.0266 2.87671 23.038 2.88122C23.1531 2.9271 23.2774 2.98354 23.4109 3.05054C23.8216 3.25685 24.2474 3.50663 24.6884 3.79987C25.162 4.11498 25.6757 4.45926 26.2295 4.83272C26.2867 4.87115 26.3422 4.9061 26.396 4.93756" stroke="var(--stroke-0, #85B767)" stroke-width="0.072051"/>
<path id="Vector_32" d="M28.6475 6.49481C28.5749 6.48088 28.5162 6.49337 28.4713 6.53227C28.0224 6.91919 27.6864 7.38764 27.4633 7.93763C27.3031 8.33223 27.1977 8.74868 27.147 9.18699C27.1163 9.4531 27.1212 9.709 27.1618 9.9547" stroke="var(--stroke-0, #858EBC)" stroke-width="0.072051"/>
<path id="Vector_33" d="M24.3219 9.40014C24.2059 9.35451 24.0494 9.32689 23.8524 9.31728C23.6262 9.30599 23.348 9.2594 23.0177 9.1775C22.4555 9.03796 22.0338 8.72238 21.7525 8.23075C21.6723 8.09049 21.5884 7.9249 21.5007 7.73396C21.3797 7.46953 21.0792 7.6194 21.1765 7.88599C21.5209 8.83082 22.1919 9.39389 23.1896 9.57522C23.3486 9.60404 23.5531 9.62698 23.8031 9.64403C23.9928 9.65676 24.1852 9.65652 24.3802 9.64331M24.5784 16.8877C24.5373 16.8656 24.4971 16.8981 24.4577 16.9853C24.2876 17.3609 24.0889 17.7207 23.8615 18.0646C23.6535 18.3785 23.3889 18.6687 23.0678 18.935C22.7693 19.1829 22.4891 19.3899 22.2273 19.5561M21.4701 19.9239C21.4598 19.8648 21.456 19.8253 21.4589 19.8054C21.5343 19.2621 21.5997 18.6645 21.6549 18.0124C21.6585 17.9701 21.6453 17.928 21.6181 17.8954C21.5909 17.8628 21.552 17.8421 21.5097 17.838L21.4989 17.8369C21.4778 17.8349 21.4565 17.8369 21.4363 17.8431C21.416 17.8492 21.3971 17.8593 21.3808 17.8727C21.3644 17.8861 21.3508 17.9026 21.3409 17.9213C21.3309 17.9399 21.3248 17.9604 21.3227 17.9814L21.1246 20.0327" stroke="var(--stroke-0, #06A083)" stroke-width="0.072051"/>
<path id="Vector_34" d="M20.8676 27.6968C20.7134 27.7333 20.5628 27.7639 20.4159 27.7886C19.8349 27.8857 19.2498 27.9302 18.6607 27.9223C18.5997 27.9216 18.5359 27.9213 18.4694 27.9216" stroke="var(--stroke-0, #858EBC)" stroke-width="0.072051"/>
<path id="Vector_35" d="M17.9983 20.7235C18.036 20.6824 18.0511 20.6255 18.0437 20.5527C18.0072 20.1959 17.9439 19.6209 17.8538 18.8278C17.8492 18.787 17.8288 18.7496 17.797 18.7236C17.7653 18.6977 17.7246 18.6851 17.6838 18.6888L17.6726 18.6895C17.6523 18.6913 17.6326 18.6971 17.6146 18.7067C17.5965 18.7162 17.5806 18.7292 17.5677 18.745C17.5548 18.7608 17.5451 18.779 17.5393 18.7985C17.5335 18.8181 17.5317 18.8386 17.5339 18.8588L17.735 20.6824M13.9101 20.521C13.907 20.4949 13.873 20.4787 13.8082 20.4724C13.0596 20.3992 12.3355 20.2751 11.6358 20.1003C11.631 20.0991 11.6264 20.0968 11.6226 20.0935C11.6188 20.0902 11.6159 20.0861 11.614 20.0815C11.6121 20.0768 11.6113 20.0718 11.6117 20.0668C11.6121 20.0618 11.6137 20.057 11.6164 20.0527C11.9381 19.5296 12.1413 18.9435 12.2829 18.3275C12.414 17.7557 12.4486 17.1887 12.3729 16.6533C12.3092 16.2009 12.1434 15.7214 11.8974 15.3031C11.848 15.2195 11.7915 15.1983 11.6989 15.2181C11.5732 15.2447 11.5638 15.4094 11.6117 15.4987C12.0668 16.3432 12.1827 17.2355 11.9593 18.1758C11.8976 18.4359 11.8469 18.6311 11.8073 18.7616C11.6636 19.2342 11.4517 19.7166 11.1459 20.1143C10.8501 20.4987 10.5688 20.793 10.1995 21.1702C10.1606 21.2098 10.1439 21.251 10.1494 21.2938" stroke="var(--stroke-0, #06A083)" stroke-width="0.072051"/>
<path id="Vector_36" d="M6.27353 27.6651C6.26464 27.6742 6.25263 27.6758 6.2375 27.6698C6.22501 27.665 6.21204 27.6637 6.19859 27.6658C5.70024 27.7424 5.20117 27.7655 4.70137 27.735C4.34664 27.7134 3.9966 27.6523 3.65123 27.5516" stroke="var(--stroke-0, #858EBC)" stroke-width="0.072051"/>
<path id="Vector_37" d="M6.6641 13.2091C7.00106 12.8169 7.4043 12.501 7.87384 12.2613M14.8858 12.0981C15.1308 12.1144 15.3761 12.1093 15.6218 12.0826C16.4908 11.9879 17.2502 11.4658 17.6241 10.6787C17.7742 10.3626 17.894 10.0056 17.9833 9.60765C18.2114 8.59245 18.3547 7.5315 18.6058 6.53828C18.8605 5.52884 19.188 4.52409 19.8548 3.7164C20.102 3.41739 20.3963 3.18791 20.7378 3.02796C20.7425 3.02579 20.7464 3.02232 20.7492 3.01792C20.752 3.01353 20.7535 3.0084 20.7537 3.0031C20.7618 2.61739 20.794 2.21606 20.8502 1.79913" stroke="var(--stroke-0, #85B767)" stroke-width="0.072051"/>
<path id="Vector_38" d="M24.7865 17.142C24.5597 17.6389 24.331 18.0432 24.1002 18.3549C23.7037 18.8908 23.1875 19.3507 22.5518 19.7347C22.5429 19.7402 22.5393 19.7584 22.541 19.7891M13.829 20.7885C13.3738 20.7392 12.9241 20.6765 12.4798 20.6004C12.1128 20.5372 11.7645 20.4573 11.4347 20.3605C11.4303 20.3592 11.4257 20.3592 11.4214 20.3606C11.4171 20.3619 11.4133 20.3645 11.4106 20.368C11.0983 20.7636 10.7441 21.1227 10.3478 21.4452C10.2532 21.5221 10.1668 21.5659 10.0888 21.5767" stroke="var(--stroke-0, #06A083)" stroke-width="0.072051"/>
<path id="Vector_39" d="M24.2924 25.6953C23.7086 25.1172 23.2473 24.4478 22.9087 23.6869M13.5208 26.6482C12.8882 26.8687 12.2389 27.0209 11.5729 27.105C11.5717 27.105 11.5113 27.11 11.3917 27.1201C11.3281 27.1257 11.2683 27.1357 11.2123 27.1504" stroke="var(--stroke-0, #858EBC)" stroke-width="0.072051"/>
<path id="Vector_40" d="M23.9351 5.04154C23.8258 5.05573 23.729 5.1302 23.6658 5.24857C23.6026 5.36693 23.5783 5.5195 23.5982 5.6727C23.608 5.74857 23.6285 5.8223 23.6583 5.8897C23.6881 5.9571 23.7267 6.01684 23.7719 6.06552C23.8171 6.11419 23.868 6.15084 23.9218 6.17338C23.9755 6.19592 24.031 6.2039 24.0851 6.19687C24.1944 6.18268 24.2912 6.10821 24.3544 5.98985C24.4176 5.87148 24.4419 5.71891 24.422 5.56571C24.4122 5.48984 24.3918 5.41611 24.3619 5.34871C24.3321 5.28131 24.2935 5.22157 24.2483 5.17289C24.2031 5.12422 24.1522 5.08757 24.0984 5.06503C24.0447 5.04249 23.9892 5.03451 23.9351 5.04154Z" stroke="var(--stroke-0, #06A083)" stroke-width="0.072051"/>
<path id="Vector_41" d="M15.7543 8.45495C15.8249 8.54286 15.9355 8.50719 16.0191 8.45279C16.3217 8.25645 16.6088 7.9261 16.8304 7.60007C17.0696 7.24798 17.2892 6.86119 17.4893 6.43969C17.8031 5.77898 18.0387 5.29768 18.4159 4.76594C18.4403 4.73142 18.4507 4.68896 18.4451 4.64707C18.4395 4.60517 18.4182 4.56695 18.3856 4.54006L18.3834 4.53826C18.3667 4.52447 18.3472 4.51426 18.3264 4.50827C18.3055 4.50228 18.2836 4.50063 18.2621 4.50343C18.2405 4.50624 18.2198 4.51343 18.2011 4.52456C18.1825 4.53569 18.1663 4.55053 18.1536 4.56816C18.0436 4.71083 17.9437 4.85865 17.8539 5.01164C17.521 5.57832 17.2674 6.14788 16.9943 6.68178C16.8956 6.8744 16.746 7.12405 16.5454 7.43075C16.3473 7.73408 16.1146 7.9793 15.8473 8.16639C15.7338 8.24601 15.6574 8.33319 15.7543 8.45495ZM15.9759 10.3038C15.6963 10.574 15.3962 10.7973 15.0756 10.9739C15.0038 11.0132 14.9603 11.0454 14.9452 11.0704C14.889 11.1615 14.9383 11.3024 15.05 11.31C15.1115 11.3141 15.1715 11.2998 15.2301 11.2671C15.5894 11.067 15.9152 10.8259 16.2075 10.5437C16.4998 10.2613 16.7521 9.94401 16.9644 9.59192C16.999 9.53428 17.0153 9.47472 17.0134 9.41323C17.0098 9.30119 16.8707 9.24716 16.7774 9.30011C16.752 9.31452 16.7184 9.35691 16.6766 9.42728C16.489 9.74167 16.2554 10.0338 15.9759 10.3038Z" stroke="var(--stroke-0, #80A62C)" stroke-width="0.072051"/>
<path id="Vector_42" d="M28.8575 8.18801C28.7945 8.1646 28.7204 8.17908 28.6514 8.22826C28.5825 8.27744 28.5243 8.35729 28.4898 8.45024C28.4552 8.54319 28.447 8.64163 28.4671 8.72391C28.4872 8.80619 28.5338 8.86557 28.5967 8.889C28.6279 8.90059 28.6622 8.90301 28.6975 8.89611C28.7329 8.88921 28.7686 8.87312 28.8028 8.84877C28.8369 8.82442 28.8688 8.79228 28.8965 8.75419C28.9243 8.7161 28.9474 8.6728 28.9645 8.62677C28.9991 8.53382 29.0072 8.43538 28.9871 8.3531C28.9671 8.27082 28.9204 8.21144 28.8575 8.18801" stroke="var(--stroke-0, #807D81)" stroke-width="0.072051"/>
<path id="Vector_43" d="M6.60563 12.4686C6.69281 12.5514 6.81673 12.465 6.84195 12.368C6.86105 12.2942 6.81205 12.2214 6.76234 12.1685C6.39992 11.7826 5.84873 11.6515 5.32168 11.703C4.78994 11.7545 4.25172 12.0402 3.81581 12.3817C3.02217 13.0043 2.63309 13.8566 2.72532 14.8884C2.74958 15.1593 2.79041 15.4261 2.84781 15.6889C2.99227 16.3496 3.10431 16.9692 3.10179 17.6328C3.09998 18.162 2.99983 18.7107 2.67669 19.1235C2.55972 19.2729 2.4956 19.3557 2.48431 19.3718C2.3629 19.5468 2.55744 19.7778 2.71199 19.6189C3.10203 19.2176 3.33223 18.7394 3.4026 18.1844C3.4905 17.4887 3.41233 16.7347 3.27399 16.0801C3.16399 15.5589 3.09962 15.2189 3.08089 15.0599C3.00668 14.4334 3.07909 13.817 3.42097 13.3087C3.79275 12.756 4.39006 12.2971 5.03455 12.1058C5.47731 11.9743 6.0602 11.9981 6.43811 12.3126C6.45228 12.3241 6.50812 12.3761 6.60563 12.4686Z" stroke="var(--stroke-0, #80A62C)" stroke-width="0.072051"/>
</g>
<path id="Vector_44" d="M22.7057 1.58057C22.866 2.00603 22.9784 2.40303 22.9975 2.82489C22.998 2.8371 23.0021 2.84891 23.0093 2.85889C23.0164 2.86886 23.0264 2.87658 23.0379 2.88109C23.1529 2.92697 23.2772 2.98341 23.4107 3.05041C23.8214 3.25672 24.2472 3.5065 24.6882 3.79974C25.1618 4.11485 25.6755 4.45913 26.2294 4.83259C26.2865 4.87102 26.342 4.90597 26.3958 4.93743L28.6474 6.49481C28.5749 6.48088 28.5161 6.49337 28.4712 6.53228C28.0223 6.91919 27.6863 7.38764 27.4632 7.93763C27.303 8.33223 27.1976 8.74868 27.1469 9.18699C27.1162 9.4531 27.1211 9.709 27.1617 9.9547C26.4926 9.80579 25.998 9.6994 25.6778 9.63551C25.3106 9.56202 24.8587 9.4836 24.3222 9.40027C24.2062 9.35463 24.0497 9.32701 23.8528 9.31741C23.6265 9.30612 23.3483 9.25952 23.018 9.17763C22.4558 9.03809 22.0341 8.7225 21.7528 8.23088C21.6726 8.09062 21.5887 7.92502 21.501 7.73409C21.38 7.46966 21.0795 7.61953 21.1768 7.88611C21.5212 8.83094 22.1922 9.39402 23.1899 9.57535C23.3489 9.60417 23.5534 9.62711 23.8034 9.64416C23.9931 9.65689 24.1855 9.65665 24.3805 9.64344C24.4033 9.7311 24.4238 9.81684 24.4418 9.90066C24.6601 10.9185 24.8097 11.8732 24.8907 12.7647C24.9432 13.3454 24.9542 13.9953 24.9234 14.7144C24.8922 15.445 24.7773 16.1695 24.5787 16.8878C24.5376 16.8657 24.4974 16.8982 24.458 16.9854C24.2879 17.3611 24.0892 17.7208 23.8618 18.0648C23.6538 18.3787 23.3892 18.6688 23.0681 18.9351C22.7696 19.183 22.4894 19.39 22.2276 19.5562C22.0045 19.7061 21.7521 19.8287 21.4704 19.924C21.4601 19.8649 21.4563 19.8254 21.4592 19.8055C21.5346 19.2622 21.6 18.6646 21.6552 18.0125C21.6588 17.9702 21.6456 17.9282 21.6184 17.8955C21.5912 17.8629 21.5523 17.8423 21.51 17.8382L21.4992 17.8371C21.4781 17.835 21.4568 17.8371 21.4366 17.8432C21.4163 17.8493 21.3974 17.8594 21.3811 17.8728C21.3647 17.8862 21.3512 17.9027 21.3412 17.9214C21.3312 17.9401 21.3251 17.9605 21.323 17.9815L21.1249 20.0328C21.0697 20.5984 21.0174 21.1621 20.9682 21.7239C20.8176 23.4384 20.7602 25.1256 20.796 26.7854C20.8022 27.0727 20.8261 27.3765 20.8677 27.6969C20.7135 27.7334 20.5629 27.764 20.4159 27.7887C19.835 27.8858 19.2499 27.9303 18.6608 27.9224C18.5998 27.9217 18.536 27.9214 18.4695 27.9217C18.4654 27.8271 18.4623 27.7394 18.4601 27.6587C18.4493 27.2886 18.4255 26.6823 18.3888 25.8398C18.3582 25.1445 18.3005 24.17 18.2295 23.3432C18.1548 22.4695 18.0776 21.5961 17.9979 20.7231C18.0356 20.682 18.0507 20.6251 18.0433 20.5523C18.0068 20.1954 17.9435 19.6205 17.8534 18.8274C17.8488 18.7866 17.8284 18.7492 17.7966 18.7232C17.7649 18.6972 17.7242 18.6847 17.6834 18.6884L17.6722 18.6891C17.6519 18.6909 17.6322 18.6967 17.6141 18.7062C17.5961 18.7158 17.5802 18.7288 17.5673 18.7446C17.5543 18.7603 17.5447 18.7785 17.5389 18.7981C17.5331 18.8176 17.5313 18.8381 17.5335 18.8584L17.7345 20.682C17.6815 20.6911 17.624 20.697 17.562 20.6997C16.7891 20.733 16.0529 20.723 15.3533 20.6694L15.274 20.6636C14.7917 20.631 14.3444 20.5803 13.9321 20.5116C13.9225 20.5099 13.915 20.5129 13.9097 20.5206C13.9066 20.4944 13.8726 20.4782 13.8078 20.472C13.0592 20.3987 12.335 20.2747 11.6354 20.0998C11.6306 20.0987 11.626 20.0963 11.6222 20.0931C11.6184 20.0898 11.6155 20.0857 11.6136 20.081C11.6117 20.0764 11.6109 20.0714 11.6113 20.0664C11.6117 20.0614 11.6133 20.0565 11.616 20.0523C11.9377 19.5292 12.1409 18.9431 12.2825 18.327C12.4136 17.7553 12.4482 17.1883 12.3725 16.6529C12.3088 16.2004 12.143 15.7209 11.897 15.3027C11.8476 15.2191 11.7911 15.1978 11.6985 15.2177C11.5727 15.2443 11.5634 15.409 11.6113 15.4983C12.0664 16.3427 12.1823 17.2351 11.9589 18.1754C11.8972 18.4355 11.8465 18.6307 11.8069 18.7611C11.6632 19.2338 11.4513 19.7162 11.1455 20.1139C10.8497 20.4983 10.5684 20.7926 10.1991 21.1698C10.1602 21.2094 10.1435 21.2506 10.149 21.2934C10.0909 21.3476 10.037 21.3978 9.98727 21.4439C9.63926 21.7677 9.27468 22.0405 8.89353 22.2624C8.52607 22.4761 8.16474 22.6281 7.70938 22.8432C7.61175 22.8889 7.52925 22.939 7.44135 22.9941C7.26014 23.1087 7.15855 23.2423 7.0847 23.4524C6.74065 24.4305 6.4946 25.437 6.33933 26.4504C6.27736 26.8541 6.25539 27.2591 6.2734 27.6652C6.26451 27.6743 6.25251 27.6759 6.23738 27.6699C6.22489 27.6651 6.21192 27.6637 6.19847 27.6659C5.70012 27.7425 5.20104 27.7656 4.70125 27.7351C4.34652 27.7135 3.99647 27.6523 3.65111 27.5517C3.68425 27.2906 3.71883 27.0243 3.75486 26.7527C3.84564 26.0653 3.93607 25.1113 3.97498 24.7241C4.00788 24.395 4.08725 23.7935 4.2131 22.9195C4.29056 22.3838 4.32839 21.846 4.76177 21.4958C4.91164 21.3748 5.05982 21.2621 5.20633 21.1579C5.7024 20.8052 5.9906 20.3099 6.00969 19.6884C6.02266 19.2585 5.97859 18.8126 5.87748 18.3508C5.8525 18.2362 5.81047 18.0291 5.75139 17.7294C5.60465 16.9858 5.57391 16.2676 5.65917 15.5747C5.75067 14.8289 6.00801 14.1406 6.43119 13.5097C6.45857 13.4686 6.49676 13.4182 6.54575 13.3584C6.58466 13.3111 6.62417 13.2614 6.66428 13.2092C7.00124 12.817 7.40448 12.5011 7.87401 12.2614C8.43433 11.9912 9.00966 11.8363 9.59999 11.7967C10.2549 11.7525 10.9065 11.7677 11.5547 11.8424C12.2018 11.917 12.6859 11.9887 13.2854 12.0294C13.9976 12.078 14.3579 12.0957 14.886 12.0982C15.131 12.1145 15.3763 12.1094 15.622 12.0827C16.4909 11.988 17.2504 11.466 17.6243 10.6788C17.7744 10.3627 17.8941 10.0057 17.9835 9.60777C18.2115 8.59257 18.3549 7.53162 18.606 6.5384C18.8607 5.52897 19.1882 4.52422 19.855 3.71652C20.1021 3.41751 20.3965 3.18803 20.738 3.02808C20.7426 3.02591 20.7466 3.02244 20.7494 3.01805C20.7522 3.01365 20.7537 3.00852 20.7538 3.00322C20.762 2.61751 20.7942 2.21618 20.8504 1.79925C20.8737 1.66283 20.9005 1.51008 20.9307 1.341C20.9887 1.01389 21.1934 0.115778 21.5893 0.0675035C21.769 0.045528 22.0183 0.28906 22.1113 0.423075C22.351 0.7694 22.5491 1.15523 22.7057 1.58057ZM23.9348 5.04172C23.8255 5.05591 23.7287 5.13039 23.6655 5.24875C23.6023 5.36712 23.578 5.51968 23.5979 5.67289C23.6078 5.74875 23.6282 5.82249 23.658 5.88989C23.6878 5.95729 23.7264 6.01703 23.7716 6.0657C23.8168 6.11438 23.8678 6.15103 23.9215 6.17357C23.9753 6.1961 24.0308 6.20409 24.0849 6.19706C24.1941 6.18287 24.291 6.1084 24.3541 5.99003C24.4173 5.87166 24.4416 5.7191 24.4217 5.56589C24.4119 5.49003 24.3915 5.41629 24.3617 5.34889C24.3319 5.28149 24.2933 5.22175 24.248 5.17308C24.2028 5.12441 24.1519 5.08775 24.0981 5.06521C24.0444 5.04268 23.9889 5.03469 23.9348 5.04172Z" fill="var(--fill-0, #0BB1BE)"/>
<path id="Vector_45" d="M26.3958 4.93739C26.342 4.90593 26.2865 4.87098 26.2294 4.83256C25.6755 4.45909 25.1618 4.11481 24.6882 3.79971C24.2472 3.50646 23.8214 3.25668 23.4107 3.05038C23.2772 2.98337 23.1529 2.92693 23.0379 2.88106C23.0264 2.87654 23.0165 2.86883 23.0093 2.85885C23.0021 2.84887 22.998 2.83706 22.9975 2.82486C22.9784 2.403 22.866 2.006 22.7057 1.58054C23.2749 1.47366 23.8149 1.49059 24.3258 1.63133C25.1613 1.86142 25.8433 2.31101 26.3717 2.98013C26.6875 3.38001 26.9086 3.63375 27.0349 3.74135C27.0442 3.74949 27.0544 3.75673 27.0652 3.76296C27.2707 3.88545 27.3996 3.95546 27.4517 3.97299C27.6222 4.03015 27.8211 4.06473 28.0483 4.07674C28.1067 4.07986 28.1575 4.1052 28.2007 4.15276C28.211 4.16415 28.2177 4.17836 28.2199 4.19357C28.222 4.20879 28.2196 4.22431 28.2129 4.23814C28.0252 4.62289 27.5076 4.88912 27.1203 4.94135C26.9214 4.96825 26.6799 4.96693 26.3958 4.93739ZM20.8504 1.79921C20.7942 2.21615 20.762 2.61747 20.7539 3.00318C20.7537 3.00848 20.7522 3.01362 20.7494 3.01801C20.7466 3.0224 20.7426 3.02588 20.738 3.02804C20.3965 3.18799 20.1022 3.41748 19.855 3.71649C19.1882 4.52418 18.8607 5.52893 18.606 6.53836C18.3549 7.53159 18.2115 8.59254 17.9835 9.60774C17.8942 10.0057 17.7744 10.3627 17.6243 10.6788C17.2504 11.4659 16.491 11.9879 15.622 12.0827C15.3763 12.1093 15.131 12.1145 14.886 12.0982C14.8882 12.0958 14.8907 12.094 14.8936 12.0928C14.8939 12.0927 14.8941 12.0926 14.8943 12.0923C14.8945 12.0921 14.8945 12.0918 14.8945 12.0915C14.8944 12.0912 14.8943 12.091 14.894 12.0908C14.8938 12.0906 14.8935 12.0906 14.8932 12.0906C14.8884 12.0901 14.8839 12.0888 14.8795 12.0866C14.8721 12.0826 14.8679 12.0805 14.8669 12.0805C14.6916 12.086 14.5686 12.079 14.498 12.0593C13.9638 11.9105 13.3474 11.6727 13.0041 11.1983C12.9498 11.1233 12.9157 11.0556 12.9017 10.9951C12.8632 10.8279 12.9515 10.7692 13.0902 10.6773C13.0993 10.6713 13.2281 10.6013 13.4767 10.4673C14.2005 10.0768 14.7693 9.50614 15.145 8.78527C15.1468 8.78201 15.1477 8.7784 15.1478 8.77472C15.1479 8.77104 15.1472 8.76739 15.1457 8.76405C15.1442 8.76071 15.142 8.75777 15.1392 8.75546C15.1364 8.75314 15.1331 8.75151 15.1296 8.75069C14.6706 8.63829 14.266 8.47401 13.9166 8.15843C13.793 8.04711 13.6208 7.84357 13.6413 7.66632C13.6529 7.56473 13.7581 7.53627 13.8424 7.51105C14.0066 7.46134 14.1969 7.4426 14.382 7.38352C15.2146 7.11801 15.7449 6.5661 16.1444 5.7948C16.2904 5.51356 16.4171 5.22656 16.5245 4.93379C16.6599 4.56489 16.7734 4.27656 16.8649 4.06882C17.1311 3.46575 17.4809 2.93582 17.981 2.51107C18.4051 2.15082 18.8897 1.8966 19.4346 1.74842C19.6068 1.70182 19.8292 1.6736 20.1018 1.66376C20.3686 1.65415 20.6182 1.6993 20.8504 1.79921ZM15.7539 8.45492C15.8245 8.54282 15.9351 8.50716 16.0187 8.45276C16.3213 8.25642 16.6084 7.92607 16.83 7.60004C17.0692 7.24795 17.2888 6.86115 17.4889 6.43965C17.8026 5.77895 18.0383 5.29765 18.4154 4.76591C18.4398 4.73139 18.4503 4.68892 18.4446 4.64703C18.439 4.60514 18.4178 4.56692 18.3852 4.54003L18.383 4.53823C18.3662 4.52443 18.3468 4.51422 18.3259 4.50823C18.305 4.50224 18.2832 4.5006 18.2616 4.5034C18.2401 4.5062 18.2193 4.51339 18.2007 4.52453C18.182 4.53566 18.1659 4.5505 18.1532 4.56813C18.0432 4.71079 17.9433 4.85862 17.8534 5.0116C17.5206 5.57829 17.2669 6.14785 16.9939 6.68175C16.8952 6.87436 16.7455 7.12402 16.545 7.43072C16.3469 7.73405 16.1141 7.97926 15.8468 8.16636C15.7333 8.24597 15.657 8.33315 15.7539 8.45492ZM15.9754 10.3037C15.6959 10.5739 15.3958 10.7973 15.0752 10.9738C15.0033 11.0132 14.9599 11.0454 14.9447 11.0704C14.8885 11.1615 14.9379 11.3024 15.0496 11.3099C15.1111 11.314 15.1711 11.2997 15.2297 11.2671C15.589 11.067 15.9148 10.8259 16.2071 10.5437C16.4994 10.2612 16.7517 9.94397 16.964 9.59188C16.9986 9.53424 17.0149 9.47468 17.013 9.4132C17.0094 9.30116 16.8703 9.24712 16.777 9.30008C16.7515 9.31449 16.7179 9.35688 16.6761 9.42725C16.4886 9.74163 16.255 10.0338 15.9754 10.3037Z" fill="var(--fill-0, #FFBD10)"/>
<path id="Vector_46" d="M16.018 8.4526C15.9344 8.507 15.8238 8.54266 15.7532 8.45476C15.6563 8.33299 15.7327 8.24581 15.8462 8.1662C16.1135 7.9791 16.3462 7.73389 16.5443 7.43056C16.7449 7.12386 16.8945 6.8742 16.9932 6.68159C17.2663 6.14769 17.5199 5.57813 17.8528 5.01144C17.9426 4.85846 18.0425 4.71063 18.1525 4.56797C18.1652 4.55034 18.1814 4.5355 18.2 4.52437C18.2187 4.51323 18.2394 4.50604 18.261 4.50324C18.2825 4.50044 18.3044 4.50208 18.3253 4.50807C18.3461 4.51406 18.3656 4.52427 18.3824 4.53807L18.3845 4.53987C18.4171 4.56676 18.4384 4.60498 18.444 4.64687C18.4496 4.68876 18.4392 4.73123 18.4148 4.76575C18.0376 5.29749 17.802 5.77879 17.4882 6.43949C17.2881 6.86099 17.0685 7.24779 16.8293 7.59988C16.6077 7.92591 16.3206 8.25626 16.018 8.4526Z" fill="var(--fill-0, #008F48)"/>
<path id="Vector_47" d="M24.4215 5.56553C24.3801 5.24648 24.1621 5.0118 23.9346 5.04135C23.7071 5.07089 23.5563 5.35348 23.5977 5.67253C23.6391 5.99157 23.8572 6.22625 24.0847 6.19671C24.3121 6.16716 24.463 5.88457 24.4215 5.56553Z" fill="var(--fill-0, #008F48)"/>
<path id="Vector_48" d="M28.6473 6.49461C29.0787 6.82293 29.4035 7.08075 29.6218 7.26808C29.7376 7.36727 29.8258 7.50417 29.8866 7.67877C30.0821 8.23837 30.0508 8.78043 29.7926 9.30496C29.593 9.71097 29.0868 9.99413 28.6704 10.1087C28.5719 10.1358 28.4656 10.1466 28.3516 10.1411C27.9512 10.1217 27.5546 10.0595 27.1616 9.9545C27.1211 9.70881 27.1161 9.45291 27.1469 9.1868C27.1976 8.74849 27.303 8.33203 27.4632 7.93744C27.6863 7.38745 28.0223 6.91899 28.4712 6.53208C28.5161 6.49317 28.5748 6.48068 28.6473 6.49461ZM28.8577 8.18785C28.7947 8.16444 28.7206 8.17892 28.6516 8.2281C28.5827 8.27727 28.5245 8.35712 28.4899 8.45008C28.4554 8.54302 28.4472 8.64146 28.4673 8.72374C28.4874 8.80603 28.534 8.86541 28.5969 8.88883C28.6281 8.90043 28.6624 8.90285 28.6977 8.89594C28.7331 8.88904 28.7688 8.87296 28.803 8.8486C28.8371 8.82425 28.869 8.79212 28.8967 8.75402C28.9245 8.71593 28.9476 8.67264 28.9647 8.6266C28.9993 8.53366 29.0074 8.43522 28.9873 8.35294C28.9673 8.27066 28.9206 8.21127 28.8577 8.18785" fill="var(--fill-0, #FF6ABA)"/>
<path id="Vector_49" d="M24.3221 9.39995L24.3805 9.64312C24.1855 9.65633 23.9931 9.65657 23.8034 9.64384C23.5534 9.62679 23.3489 9.60385 23.1899 9.57503C22.1922 9.3937 21.5212 8.83062 21.1768 7.8858C21.0795 7.61921 21.3799 7.46934 21.501 7.73377C21.5887 7.9247 21.6726 8.0903 21.7528 8.23056C22.034 8.72219 22.4558 9.03777 23.018 9.17731C23.3483 9.25921 23.6265 9.3058 23.8527 9.31709C24.0497 9.32669 24.2061 9.35431 24.3221 9.39995Z" fill="var(--fill-0, #008F48)"/>
<path id="Vector_50" d="M28.9648 8.62727C29.0368 8.4337 28.9889 8.23725 28.8578 8.1885C28.7267 8.13974 28.5621 8.25714 28.4901 8.45071C28.4181 8.64428 28.466 8.84073 28.5971 8.88948C28.7282 8.93824 28.8928 8.82084 28.9648 8.62727Z" fill="var(--fill-0, #008F48)"/>
<path id="Vector_51" d="M16.2074 10.5435C15.9151 10.8257 15.5893 11.0669 15.23 11.2669C15.1714 11.2996 15.1114 11.3139 15.0499 11.3098C14.9382 11.3022 14.8889 11.1614 14.9451 11.0702C14.9602 11.0452 15.0037 11.0131 15.0755 10.9737C15.3961 10.7971 15.6962 10.5738 15.9757 10.3036C16.2553 10.0336 16.4889 9.74148 16.6764 9.4271C16.7182 9.35673 16.7519 9.31434 16.7773 9.29993C16.8706 9.24697 17.0097 9.30101 17.0133 9.41305C17.0152 9.47453 16.9989 9.53409 16.9643 9.59173C16.752 9.94382 16.4997 10.2611 16.2074 10.5435Z" fill="var(--fill-0, #008F48)"/>
<path id="Vector_52" d="M7.87402 12.2613C7.40449 12.501 7.00124 12.8169 6.66428 13.2091C6.53363 13.144 6.44717 13.1052 6.4049 13.0928C6.20484 13.0342 6.01402 13.0326 5.83245 13.0881C5.12023 13.3049 4.78916 14.2056 4.75637 14.8893C4.72287 15.5886 4.78555 16.031 4.88102 17.0134C4.89687 17.1758 4.90468 17.4293 4.90444 17.7739C4.90444 18.0736 4.8833 18.3259 4.84103 18.5308C4.7135 19.1507 4.41689 19.6669 3.9512 20.0795C3.41406 20.5554 2.65969 20.8426 1.93558 20.9661C1.68088 21.0097 1.348 21.0133 1.10591 21.0029C0.847968 20.9918 0.591226 20.9401 0.335685 20.8476C0.223286 20.8069 0.0319901 20.7359 0.0752207 20.5828C0.111606 20.4553 0.292815 20.3368 0.463936 20.1887C0.866701 19.8396 1.18409 19.3738 1.23812 18.819C1.28568 18.3276 1.2314 17.8476 1.07529 17.3791C0.980902 17.0952 0.883633 16.7987 0.783482 16.4896C0.632415 16.0222 0.536227 15.5577 0.494918 15.0961C0.450726 14.6009 0.472102 14.1275 0.559043 13.676C0.725841 12.8107 1.15058 11.9695 1.71186 11.2951C2.42877 10.4337 3.42055 9.8591 4.55643 9.831C5.0226 9.81948 5.47472 9.87784 5.8937 10.0648C6.41931 10.2993 6.88332 10.6102 7.25078 11.0775C7.51497 11.4135 7.72271 11.8081 7.87402 12.2613ZM6.60556 12.4681C6.69274 12.5509 6.81667 12.4645 6.84189 12.3676C6.86098 12.2937 6.81199 12.2209 6.76227 12.168C6.39986 11.7821 5.84867 11.651 5.32161 11.7025C4.78988 11.754 4.25166 12.0397 3.81575 12.3812C3.02211 13.0038 2.63303 13.8561 2.72526 14.8879C2.74951 15.1588 2.79034 15.4256 2.84774 15.6884C2.99221 16.3491 3.10424 16.9687 3.10172 17.6323C3.09992 18.1615 2.99977 18.7102 2.67662 19.1231C2.55966 19.2724 2.49553 19.3552 2.48425 19.3713C2.36284 19.5464 2.55738 19.7773 2.71193 19.6184C3.10196 19.2171 3.33217 18.7389 3.40254 18.1839C3.49044 17.4882 3.41226 16.7342 3.27392 16.0796C3.16393 15.5585 3.09956 15.2184 3.08083 15.0594C3.00662 14.4329 3.07903 13.8165 3.42091 13.3082C3.79269 12.7556 4.38999 12.2966 5.03449 12.1053C5.47724 11.9738 6.06014 11.9976 6.43804 12.3121C6.45221 12.3236 6.50805 12.3756 6.60556 12.4681Z" fill="var(--fill-0, #FFBD10)"/>
<path id="Vector_53" d="M6.84228 12.3674C6.81706 12.4643 6.69314 12.5508 6.60595 12.4679C6.50845 12.3754 6.45261 12.3234 6.43844 12.3119C6.06053 11.9974 5.47764 11.9736 5.03488 12.1051C4.39039 12.2964 3.79308 12.7554 3.4213 13.308C3.07942 13.8163 3.00701 14.4327 3.08122 15.0592C3.09995 15.2182 3.16432 15.5583 3.27432 16.0795C3.41266 16.734 3.49083 17.4881 3.40293 18.1837C3.33256 18.7387 3.10236 19.2169 2.71232 19.6182C2.55777 19.7771 2.36323 19.5462 2.48464 19.3711C2.49593 19.355 2.56005 19.2723 2.67701 19.1229C3.00016 18.71 3.10031 18.1614 3.10212 17.6322C3.10464 16.9686 2.9926 16.3489 2.84814 15.6882C2.79074 15.4255 2.74991 15.1587 2.72565 14.8877C2.63342 13.856 3.0225 13.0036 3.81614 12.3811C4.25205 12.0396 4.79027 11.7539 5.32201 11.7024C5.84906 11.6508 6.40025 11.782 6.76267 12.1678C6.81238 12.2208 6.86138 12.2935 6.84228 12.3674ZM13.9101 20.5203L13.8294 20.788C13.3743 20.7388 12.9246 20.6761 12.4803 20.5999C12.1133 20.5368 11.7649 20.4568 11.4352 20.36C11.4308 20.3587 11.4262 20.3588 11.4219 20.3601C11.4176 20.3615 11.4138 20.3641 11.411 20.3676C11.0988 20.7631 10.7446 21.1222 10.3483 21.4447C10.2537 21.5216 10.1673 21.5654 10.0893 21.5762L10.1494 21.2931C10.1439 21.2503 10.1606 21.2091 10.1995 21.1695C10.5688 20.7923 10.8501 20.498 11.1459 20.1136C11.4517 19.7159 11.6636 19.2335 11.8073 18.7608C11.8469 18.6304 11.8976 18.4352 11.9593 18.1751C12.1827 17.2348 12.0668 16.3424 11.6117 15.498C11.5638 15.4087 11.5731 15.244 11.6989 15.2174C11.7915 15.1976 11.848 15.2188 11.8974 15.3024C12.1434 15.7206 12.3092 16.2001 12.3729 16.6526C12.4486 17.188 12.414 17.755 12.2829 18.3267C12.1413 18.9428 11.9381 19.5289 11.6164 20.052C11.6137 20.0563 11.6121 20.0611 11.6117 20.0661C11.6113 20.0711 11.6121 20.0761 11.614 20.0807C11.6159 20.0854 11.6188 20.0895 11.6226 20.0928C11.6264 20.096 11.631 20.0984 11.6358 20.0995C12.3354 20.2744 13.0596 20.3984 13.8082 20.4717C13.873 20.4779 13.907 20.4941 13.9101 20.5203ZM24.5791 16.8875L24.7869 17.1415C24.5602 17.6384 24.3315 18.0427 24.1007 18.3545C23.7041 18.8903 23.188 19.3502 22.5523 19.7342C22.5434 19.7398 22.5398 19.7579 22.5415 19.7886L22.228 19.5559C22.4898 19.3897 22.77 19.1827 23.0685 18.9348C23.3896 18.6685 23.6542 18.3784 23.8622 18.0645C24.0896 17.7205 24.2883 17.3608 24.4584 16.9851C24.4978 16.898 24.538 16.8654 24.5791 16.8875Z" fill="var(--fill-0, #008F48)"/>
<path id="Vector_54" d="M24.2917 25.6957C23.7079 25.1176 23.2466 24.4481 22.908 23.6872C23.3384 23.2564 23.7432 22.7801 24.1224 22.2585C24.2773 22.0452 24.4274 21.8025 24.5727 21.5304C24.6343 21.4151 24.7114 21.2307 24.6462 21.1046C24.5933 21.0026 24.3393 20.8618 24.2287 20.803C23.6467 20.4939 23.084 20.1559 22.5405 19.7889C22.5388 19.7582 22.5424 19.74 22.5513 19.7345C23.1871 19.3505 23.7032 18.8906 24.0997 18.3547C24.3305 18.043 24.5593 17.6387 24.786 17.1418C25.2632 17.68 25.7303 18.2115 26.1874 18.7363C26.4947 19.0893 26.7944 19.3984 27.0977 19.7345C27.3359 19.9989 27.529 20.3426 27.5247 20.7086C27.5208 21.0197 27.4508 21.3309 27.3146 21.6424C27.0713 22.1982 26.7805 22.7178 26.4421 23.2013C25.8078 24.1081 25.091 24.9396 24.2917 25.6957Z" fill="var(--fill-0, #0BB1BE)"/>
<path id="Vector_55" d="M21.4706 19.9239C21.4374 19.9952 21.3922 20.0488 21.3348 20.0846C21.2559 20.1339 21.1856 20.0849 21.1251 20.0327L21.3232 17.9814C21.3253 17.9604 21.3314 17.9399 21.3414 17.9213C21.3513 17.9026 21.3649 17.8861 21.3812 17.8727C21.3976 17.8593 21.4165 17.8492 21.4367 17.8431C21.457 17.8369 21.4783 17.8349 21.4994 17.837L21.5102 17.838C21.5525 17.8422 21.5914 17.8628 21.6186 17.8954C21.6458 17.928 21.659 17.9701 21.6554 18.0124C21.6001 18.6645 21.5348 19.2621 21.4594 19.8054C21.4565 19.8253 21.4602 19.8648 21.4706 19.9239ZM17.9981 20.723C17.9001 20.7832 17.8123 20.7696 17.7347 20.6819L17.5337 18.8583C17.5315 18.838 17.5333 18.8175 17.5391 18.798C17.5449 18.7784 17.5545 18.7602 17.5674 18.7445C17.5804 18.7287 17.5963 18.7156 17.6143 18.7061C17.6324 18.6966 17.6521 18.6908 17.6724 18.689L17.6836 18.6882C17.7244 18.6846 17.765 18.6971 17.7968 18.7231C17.8286 18.7491 17.849 18.7865 17.8536 18.8273C17.9437 19.6203 18.007 20.1953 18.0435 20.5522C18.0509 20.625 18.0358 20.6819 17.9981 20.723Z" fill="var(--fill-0, #008F48)"/>
<path id="Vector_56" d="M13.8297 20.7883C13.7202 21.1243 13.5737 21.4415 13.3902 21.7398C12.9953 22.3817 12.5007 22.9308 11.9063 23.3868C11.9008 23.391 11.8967 23.3968 11.8948 23.4034C11.8929 23.4101 11.8931 23.4171 11.8955 23.4236C11.9358 23.5305 11.9872 23.6432 12.0497 23.7619C12.4157 24.4579 12.6518 24.9108 12.7579 25.1208C13.0173 25.6342 13.2718 26.1435 13.5213 26.6486C12.8887 26.8691 12.2394 27.0213 11.5734 27.1054C11.5734 27.1054 11.5118 27.1104 11.3922 27.1205C11.3286 27.1261 11.2688 27.1361 11.2128 27.1508C10.682 26.1253 10.1216 25.1078 9.53149 24.0984C9.47385 23.9999 9.39424 23.8397 9.29264 23.6178C9.09955 23.1963 9.0927 22.907 9.42018 22.5817C9.4305 22.5714 9.51204 22.4749 9.66479 22.2924C9.85188 22.0688 9.99346 21.8302 10.0895 21.5766C10.1676 21.5658 10.2539 21.5219 10.3486 21.4451C10.7448 21.1225 11.0991 20.7635 11.4113 20.3679C11.4141 20.3644 11.4178 20.3618 11.4222 20.3604C11.4265 20.3591 11.4311 20.3591 11.4354 20.3603C11.7652 20.4571 12.1136 20.5371 12.4805 20.6003C12.9249 20.6764 13.3746 20.7391 13.8297 20.7883Z" fill="var(--fill-0, #0BB1BE)"/>
<path id="Vector_57" d="M22.9088 23.6867C23.2474 24.4476 23.7087 25.117 24.2925 25.6951C24.1057 25.8613 23.9873 25.9689 23.9373 26.0179C23.8242 26.1289 23.6584 26.3132 23.4398 26.5709C23.3418 26.6867 23.2653 26.7538 23.2103 26.7723C22.9668 26.8552 22.7708 26.608 22.6332 26.4344C22.3587 26.0878 22.1275 25.7128 21.9397 25.3093C21.8448 25.1054 21.7969 24.9541 21.796 24.8554C21.7931 24.5553 21.935 24.3575 22.1843 24.2012C22.3529 24.0956 22.5496 23.9764 22.7197 23.8377C22.7768 23.7913 22.8399 23.741 22.9088 23.6867ZM13.5209 26.648C13.7899 27.1207 14.0063 27.6158 14.1701 28.1333C14.2 28.2277 14.24 28.4158 14.2313 28.5221C14.2155 28.7176 14.0956 28.8292 13.8718 28.8571C13.5342 28.8985 13.3231 28.8996 12.9323 28.9003C12.6546 28.9008 12.3788 28.8833 12.1047 28.8477C11.9349 28.8256 11.8218 28.7406 11.7654 28.5927C11.7366 28.517 11.6941 28.3937 11.6379 28.2227C11.5288 27.8915 11.4319 27.6347 11.3471 27.4525C11.2794 27.3067 11.2345 27.2059 11.2124 27.1502C11.2684 27.1356 11.3282 27.1255 11.3918 27.1199C11.5114 27.1099 11.5718 27.1048 11.573 27.1048C12.239 27.0208 12.8883 26.8685 13.5209 26.648ZM6.27366 27.6646C6.39507 28.1189 6.55394 28.5674 6.65409 29.0206C6.68579 29.1635 6.70333 29.3068 6.70669 29.4504C6.71101 29.6274 6.62743 29.7358 6.45595 29.7754C6.33755 29.8028 6.19993 29.8223 6.0431 29.8341C5.4548 29.8781 4.83084 29.8885 4.26272 29.7718C4.13759 29.7461 4.04549 29.6673 3.98641 29.5354C3.84999 29.2304 3.74756 28.8925 3.67911 28.5217C3.62123 28.2095 3.61198 27.886 3.65137 27.5512C3.99673 27.6518 4.34678 27.7129 4.70151 27.7345C5.2013 27.765 5.70038 27.742 6.19873 27.6654C6.21218 27.6632 6.22515 27.6645 6.23764 27.6693C6.25277 27.6753 6.26478 27.6738 6.27366 27.6646ZM20.868 27.6963C20.8771 27.7782 20.8884 27.8353 20.9018 27.8675C21.0591 28.2503 21.1928 28.6271 21.3028 28.9979C21.3157 29.0417 21.3345 29.1225 21.359 29.2404C21.3825 29.3545 21.3903 29.437 21.3824 29.4879C21.3548 29.6608 21.2376 29.7623 21.0308 29.7923C20.3852 29.8855 19.7483 29.8859 19.12 29.7934C18.9439 29.7675 18.8221 29.6729 18.7543 29.5099C18.6537 29.2678 18.5827 29.0166 18.5414 28.7562C18.4965 28.4721 18.4726 28.1937 18.4697 27.9211C18.5363 27.9209 18.6 27.9211 18.661 27.9219C19.2502 27.9298 19.8352 27.8852 20.4162 27.7882C20.5632 27.7635 20.7138 27.7329 20.868 27.6963Z" fill="var(--fill-0, #FF6ABA)"/>
</g>
<defs>
<clipPath id="clip0_258_1189">
<rect width="30.0813" height="29.9012" fill="white"/>
</clipPath>
</defs>
</svg>
